<svg id="Modo_de_isolamento" xmlns="http://www.w3.org/2000/svg" viewBox="0 0 44 44"><style>.st0{fill:#FFFFFF;}</style><path class="st0" d="M27 27h-4v4h4v-4zm0-7h-4v4h4v-4zm0 14h-4v4h4v-4zm6-14h-4v4h4v-4zm6 0h-4v4h4v-4zm-6 7h-4v4h4v-4zm6 0h-4v4h4v-4zm-18 0h-4v4h4v-4zm0-7h-4v4h4v-4zm0 14h-4v4h4v-4zM9 27H5v4h4v-4zm0-7H5v4h4v-4zM40 4h-4V1c0-.6-.4-1-1-1s-1 .4-1 1v3H10V1c0-.6-.4-1-1-1S8 .4 8 1v3H4C1.8 4 0 5.8 0 8v32c0 2.2 1.8 4 4 4h36c2.2 0 4-1.8 4-4V8c0-2.2-1.8-4-4-4m2 36c0 1.1-.9 2-2 2H4c-1.1 0-2-.9-2-2V16h40v24zm0-26H2V8c0-1.1.9-2 2-2h4v3c0 .6.4 1 1 1s1-.4 1-1V6h24v3c0 .6.4 1 1 1s1-.4 1-1V6h4c1.1 0 2 .9 2 2v6zM9 34H5v4h4v-4zm6-14h-4v4h4v-4zm0 14h-4v4h4v-4zm0-7h-4v4h4v-4z"/></svg>