<svg id="Modo_de_isolamento" xmlns="http://www.w3.org/2000/svg" viewBox="0 0 44 36"><style>.st0{fill:#FFFFFF;}</style><path class="st0" d="M20 29c0-.6-.4-1-1-1-.3 0-.5.1-.7.3l-6 6c-.2.2-.3.4-.3.7 0 .6.4 1 1 1 .3 0 .5-.1.7-.3l6-6c.2-.2.3-.4.3-.7m-6 0c0-.6-.4-1-1-1-.3 0-.5.1-.7.3l-6 6c-.2.2-.3.4-.3.7 0 .6.4 1 1 1 .3 0 .5-.1.7-.3l6-6c.2-.2.3-.4.3-.7m12 0c0-.6-.4-1-1-1-.3 0-.5.1-.7.3l-6 6c-.2.2-.3.4-.3.7 0 .6.4 1 1 1 .3 0 .5-.1.7-.3l6-6c.2-.2.3-.4.3-.7m5-1c-.3 0-.5.1-.7.3l-6 6c-.2.2-.3.4-.3.7 0 .6.4 1 1 1 .3 0 .5-.1.7-.3l6-6c.2-.2.3-.4.3-.7 0-.6-.4-1-1-1m7-17.7V10c0-3.3-2.7-6-6-6-1.5 0-2.9.6-3.9 1.5C25.9 2.2 22.2 0 18 0 12 0 7 4.4 6.1 10.2c-3.5.9-6.1 4-6.1 7.8 0 4.4 3.6 8 8 8h28c4.4 0 8-3.6 8-8 0-3.7-2.6-6.9-6-7.7M36 24H8c-3.3 0-6-2.7-6-6 0-2.8 1.9-5.2 4.6-5.8.8-.2 1.4-.9 1.5-1.7.7-4.8 5-8.5 9.9-8.5 3.4 0 5.5.7 7.4 3.6.3.5 1.8 1.8 2.4 1.9h.3c.5 0 .9-.2 1.3-.5.7-.6 1.6-1 2.6-1 2.2 0 4 1.8 4 4v.1c0 .9.6 1.8 1.5 2 2.7.7 4.5 3.1 4.5 5.8 0 3.4-2.7 6.1-6 6.1"/></svg>