<?xml version="1.0" encoding="utf-8"?>
<!-- Generator: Adobe Illustrator 19.0.0, SVG Export Plug-In . SVG Version: 6.00 Build 0)  -->
<svg version="1.1" id="Modo_de_isolamento" xmlns="http://www.w3.org/2000/svg" xmlns:xlink="http://www.w3.org/1999/xlink" x="0px"
	 y="0px" viewBox="0 0 44 36" style="enable-background:new 0 0 44 36;" xml:space="preserve">
<style type="text/css">
	.st0{fill:#999999;}
</style>
<path class="st0" d="M22,10c-1.1,0-2,0.9-2,2l1,11c0,0.6,0.4,1,1,1c0.6,0,1-0.4,1-1l1-11C24,10.9,23.1,10,22,10 M22,26
	c-1.1,0-2,0.9-2,2c0,1.1,0.9,2,2,2s2-0.9,2-2C24,26.9,23.1,26,22,26 M43.5,30l-18-28c0,0-0.9-2-3.5-2c-2.4,0-3.5,2-3.5,2l-18,28
	c0,0-0.5,0.7-0.5,2c0,2.2,1.8,4,4,4h36c2.2,0,4-1.8,4-4C44,30.6,43.5,30,43.5,30 M40,34H4c-1.1,0-2-0.9-2-2c0-0.4,0.1-0.7,0.1-0.8
	c0,0,0,0,0.1-0.1l18-28c0,0,0.1-0.1,0.1-0.1c0,0,0.6-1,1.7-1c1.2,0,1.6,0.8,1.7,0.9c0,0.1,0.1,0.1,0.1,0.3l18,28
	c0,0,0.1,0.1,0.1,0.1c0,0.1,0.1,0.3,0.1,0.8C42,33.1,41.1,34,40,34"/>
</svg>
