<svg id="Modo_de_isolamento" xmlns="http://www.w3.org/2000/svg" viewBox="0 0 44 44"><style>.st0{fill:#666666;}</style><path class="st0" d="M40 0H4C1.8 0 0 1.8 0 4v36c0 2.2 1.8 4 4 4h36c2.2 0 4-1.8 4-4V4c0-2.2-1.8-4-4-4m2 40c0 1.1-.9 2-2 2H4c-1.1 0-2-.9-2-2V4c0-1.1.9-2 2-2h36c1.1 0 2 .9 2 2v36zM28 12H16c-2.2 0-4 1.8-4 4v12c0 2.2 1.8 4 4 4h12c2.2 0 4-1.8 4-4V16c0-2.2-1.8-4-4-4m-2 3h3v3h-3v-3zm-4 3c2.2 0 4 1.8 4 4s-1.8 4-4 4-4-1.8-4-4 1.8-4 4-4m8 10c0 1.1-.9 2-2 2H16c-1.1 0-2-.9-2-2v-7h2.1c-.1.3-.1.7-.1 1 0 3.3 2.7 6 6 6s6-2.7 6-6c0-.3 0-.7-.1-1H30v7z"/></svg>