<?xml version="1.0" encoding="utf-8"?>
<!-- Generator: Adobe Illustrator 19.0.0, SVG Export Plug-In . SVG Version: 6.00 Build 0)  -->
<svg version="1.1" id="Modo_de_isolamento" xmlns="http://www.w3.org/2000/svg" xmlns:xlink="http://www.w3.org/1999/xlink" x="0px"
	 y="0px" viewBox="0 0 48 48" style="enable-background:new 0 0 48 48;" xml:space="preserve">
<style type="text/css">
	.st0{fill:#66CC00;stroke:#66CC00;stroke-width:4;stroke-miterlimit:10;}
</style>
<path class="st0" d="M24,29.6l-9.3-9.3C14.5,20.1,14.3,20,14,20c-0.6,0-1,0.4-1,1c0,0.3,0.1,0.5,0.3,0.7l10,10
	c0.2,0.2,0.4,0.3,0.7,0.3c0.3,0,0.5-0.1,0.7-0.3l0,0l16.7-17.5c0,0,0,0,0,0l1.4-1.5c0,0,0,0,0,0l2.9-3l0,0C45.9,9.5,46,9.3,46,9
	c0-0.6-0.4-1-1-1c-0.3,0-0.5,0.1-0.7,0.3l0,0L41.7,11c0,0,0,0,0,0l-1.4,1.5c0,0,0,0,0,0L24,29.6z M44.2,15.6c-0.4-0.4-1-0.4-1.4,0
	c-0.3,0.3-0.3,0.7-0.2,1l0,0c0.9,2.3,1.4,4.8,1.4,7.4c0,11-9,20-20,20C13,44,4,35,4,24C4,13,13,4,24,4c5.7,0,10.8,2.4,14.4,6.1l0,0
	c0.4,0.4,1,0.3,1.4,0c0.4-0.4,0.4-1,0-1.4c0,0-0.1-0.1-0.1-0.1C35.7,4.5,30.1,2,24,2C11.8,2,2,11.8,2,24c0,12.1,9.8,22,22,22
	c12.2,0,22-9.9,22-22c0-2.8-0.6-5.5-1.5-8C44.4,15.8,44.4,15.7,44.2,15.6"/>
</svg>
