<svg id="Camada_1" xmlns="http://www.w3.org/2000/svg" viewBox="0 0 32 44"><style>.st0{fill:#F15922;} .st1{fill:#FFFFFF;}</style><path class="st0" d="M16 0C7.2 0 0 7.2 0 16c0 13 16 28 16 28s16-15 16-28c0-8.8-7.2-16-16-16"/><path class="st1" d="M8.1 15.8h1.7v10.8h2.5v-9.2h2.5v9.2h2.5v-9.2h2.5v9.2h2.5V15.8h1.6c.2 0 .5-.1.6-.2.2-.1.2-.3.2-.5 0-.3-.1-.5-.3-.6l-8-4.1V9.1c.5.2 1.2.3 2.1.1 1-.2 1.8-.2 2.5.1V6.6c-.7-.3-1.5-.3-2.5-.1-1 .2-1.7.1-2.1-.1v-.2c0-.2-.1-.4-.4-.4-.3 0-.4.1-.4.4v4.1l-8 4.1c-.2.2-.4.4-.4.6 0 .2.1.4.3.5.2.2.3.3.6.3zm0 0M8.9 27.3l-1.7 1.5h17.6l-1.6-1.5H8.9zm0 0"/></svg>