<?xml version="1.0" encoding="utf-8"?>
<!-- Generator: Adobe Illustrator 19.0.0, SVG Export Plug-In . SVG Version: 6.00 Build 0)  -->
<svg version="1.1" id="Camada_1" xmlns="http://www.w3.org/2000/svg" xmlns:xlink="http://www.w3.org/1999/xlink" x="0px" y="0px"
	 viewBox="0 0 69.9 92.8" style="enable-background:new 0 0 69.9 92.8;" xml:space="preserve">
<style type="text/css">
	.st0{fill:#D0212E;}
	.st1{fill:#FFFFFF;}
</style>
<g>
	<path class="st0" d="M69.9,34.9C69.9,15.6,54.2,0,34.9,0C15.6,0,0,15.6,0,34.9c0,11.7,5.7,22,14.5,28.3C23.8,79.2,35,92.8,35,92.8
		s11.1-13.6,20.4-29.5C64.2,56.9,69.9,46.6,69.9,34.9z"/>
	<circle class="st1" cx="34.9" cy="34.9" r="29"/>
	<path class="st0" d="M44.2,43.5c2.5-0.6,4.6-2.1,5.9-4.1c1.6-2.5-1.3-24.3-1.3-24.3l-1.5,0l0,20.5l-3.4,0l-0.9-20.5l-2,0l-0.7,20.5
		l-2.9,0l0-20.5l-1.9,0c0,0-2.9,21.9-1.2,24.3c1.3,2,3.5,3.6,6,4.1l-0.9,17.9c1.9-0.3,3.8-0.9,5.6-1.6L44.2,43.5
		C44.2,43.5,44.2,43.5,44.2,43.5z"/>
	<path class="st0" d="M28.1,9.4c0-2.3-2.5,0.1-3.5,2.2c-1,2.2-5.3,11.9-5.2,21.9c0,3.8-0.1,8.8-0.1,11.1c0,4.3,4.5,2.3,4.6,8.4
		l-0.3,6.6c1.7,0.7,3.4,1.2,5.3,1.6l-0.4-10.4C28.3,50.9,28.1,12.7,28.1,9.4z"/>
</g>
</svg>
