<?xml version="1.0" encoding="utf-8"?>
<!-- Generator: Adobe Illustrator 19.0.0, SVG Export Plug-In . SVG Version: 6.00 Build 0)  -->
<svg version="1.1" id="Modo_de_isolamento" xmlns="http://www.w3.org/2000/svg" xmlns:xlink="http://www.w3.org/1999/xlink" x="0px"
	 y="0px" viewBox="0 0 61.2 40.2" style="enable-background:new 0 0 61.2 40.2;" xml:space="preserve">
<style type="text/css">
	.st0{fill:#0B80E0;}
	.st1{fill:#0B80E0;stroke:#FFFFFF;stroke-miterlimit:10;}
</style>
<g>
	<path class="st0" d="M49.6,3.8C43.2,3.8,38,9,38,15.4c0,9.9,11.6,20.7,11.6,20.7s11.6-10.8,11.6-20.7C61.2,9,56,3.8,49.6,3.8z
		 M49.6,20.4c-2.7,0-5-2.2-5-5c0-2.7,2.2-5,5-5c2.7,0,5,2.2,5,5C54.5,18.2,52.3,20.4,49.6,20.4z"/>
</g>
<g>
	<path class="st0" d="M11.6,3.8C5.2,3.8,0,9,0,15.4c0,9.9,11.6,20.7,11.6,20.7s11.6-10.8,11.6-20.7C23.2,9,18,3.8,11.6,3.8z
		 M11.6,20.4c-2.7,0-5-2.2-5-5c0-2.7,2.2-5,5-5c2.7,0,5,2.2,5,5C16.6,18.2,14.3,20.4,11.6,20.4z"/>
</g>
<g>
	<path class="st1" d="M30.6,0.5c-7.7,0-14,6.3-14,14c0,12,14,25,14,25s14-13,14-25C44.6,6.8,38.3,0.5,30.6,0.5z M30.6,20.5
		c-3.3,0-6-2.7-6-6c0-3.3,2.7-6,6-6c3.3,0,6,2.7,6,6C36.6,17.8,33.9,20.5,30.6,20.5z"/>
</g>
</svg>
