<?xml version="1.0" encoding="UTF-8" standalone="no"?>
<!-- Created with Inkscape (http://www.inkscape.org/) -->

<svg
   xmlns:dc="http://purl.org/dc/elements/1.1/"
   xmlns:cc="http://creativecommons.org/ns#"
   xmlns:rdf="http://www.w3.org/1999/02/22-rdf-syntax-ns#"
   xmlns:svg="http://www.w3.org/2000/svg"
   xmlns="http://www.w3.org/2000/svg"
   version="1.1"
   width="100%"
   height="100%"
   viewBox="0 0 20 40"
   id="Modo_de_isolamento"
   xml:space="preserve"><metadata
     id="metadata11"><rdf:RDF><cc:Work
         rdf:about=""><dc:format>image/svg+xml</dc:format><dc:type
           rdf:resource="http://purl.org/dc/dcmitype/StillImage" /><dc:title></dc:title></cc:Work></rdf:RDF></metadata><defs
     id="defs9" /><style
     type="text/css"
     id="style3" /><path
     d="m 10.7,29.7 19,-18 C 29.9,11.5 30,11.3 30,11 c 0,-0.6 -0.4,-1 -1,-1 -0.3,0 -0.5,0.1 -0.7,0.3 L 10,27.6 -8.3,10.3 C -8.5,10.1 -8.7,10 -9,10 c -0.6,0 -1,0.4 -1,1 0,0.3 0.1,0.5 0.3,0.7 l 19,18 c 0.2,0.2 0.4,0.3 0.7,0.3 0.3,0 0.5,-0.1 0.7,-0.3"
     id="path5"
     style="fill:#ffffff;fill-opacity:1" /></svg>