<svg id="Camada_1" xmlns="http://www.w3.org/2000/svg" viewBox="0 0 106.8 105.7"><style>.st0{fill:#FFFFFF;}</style><path class="st0" d="M78.7 17.5c4.8.4 9-3.2 9.4-8 .4-4.8-3.2-9-8.1-9.4-4.8-.4-9 3.2-9.4 8.1-.3 4.7 3.3 8.9 8.1 9.3zM70.6 19.9c2.2-1.3 4.5-.9 6.8-.7 3 .2 5.5 2.1 7 4.4l8.8 17.5 12.1 8.3c1 .8 1.7 2.1 1.5 3.5-.2 2.2-2.1 3.8-4.2 3.6-.7 0-1.2-.3-1.8-.6l-13.2-9.1c-.4-.3-.7-.7-1-1.2L83.3 39l-4 17.4 15.5 18.3c.4.6.6 1.2.7 1.9L99.8 99v1.2c-.2 3.3-3.1 5.7-6.4 5.5-2.7-.2-4.7-2.2-5.3-4.7l-4-20.7-12.6-13.9-2.9 13.5c-.1.6-.9 2-1.2 2.5l-12.1 20.4c-1.2 1.9-3.2 3.1-5.5 2.9-3.3-.2-5.7-3.1-5.5-6.4.1-.9.5-1.9.8-2.6l11.3-18.9 10-40.6-5.8 7.3-9.4 11.9C50 58 47.7 58.7 46 57.7c-1.9-1.1-2.5-3.5-1.4-5.4.1-.1.2-.3.3-.5l11-13.9 12.8-16c.5-.8 1.9-2 1.9-2z"/><path class="st0" d="M32.59 76.933l-2.457-1.892 18.25-23.683 2.457 1.893z"/><circle class="st0" cx="14.6" cy="101.9" r="3.7"/><path class="st0" d="M37.4 70.4L27 62.2c-1.6-1.2-3.8-.9-5 .6l-1.5 1.9-.1-.1c-1.5-1.2-3.8-.9-5 .6L.8 84.1c-1.2 1.5-.9 3.8.6 5l.1.1-.1.2c-1.2 1.5-.9 3.8.6 5l7.6 5.9c.7-2.1 2.7-3.6 5-3.6 2 0 3.8 1.2 4.7 2.9l18.7-24c1.2-1.8 1-4-.6-5.2z"/></svg>