<svg id="Modo_de_isolamento" xmlns="http://www.w3.org/2000/svg" viewBox="0 0 44 44"><style>.st0{fill:#666666;}</style><path class="st0" d="M21.1 18.4h.4c.9 0 1.7-.7 1.7-1.6v-2.7c0-.9-.7-1.6-1.7-1.6h-.4c-.9 0-1.7.7-1.7 1.6v2.7c.1.8.8 1.6 1.7 1.6zm-.4-4.4c0-.3.3-.6.6-.6s.6.3.6.6v2.9c0 .3-.3.6-.6.6s-.6-.3-.6-.6V14zM25.3 18.4c.8 0 1.5-.7 1.5-.7v.6H28v-5.9h-1.2v4.5s-.4.5-.8.5-.4-.3-.4-.3v-4.7h-1.2v5.1c-.1 0 0 .9.9.9zM16.3 18.3h1.4v-3.2l1.7-4.5H18l-1 2.9-1-2.9h-1.5l1.8 4.5zM29.2 25.1c-.6 0-.6.7-.6.7v.9h1.2v-.9s0-.7-.6-.7z"/><path class="st0" d="M29.6 19.6s-3.8-.2-7.6-.2-7.6.2-7.6.2c-1.7 0-3.1 1.3-3.1 3 0 0-.3 1.9-.3 3.8s.3 3.8.3 3.8c0 1.6 1.4 3 3.1 3 0 0 3.7.2 7.6.2 3.7 0 7.6-.2 7.6-.2 1.7 0 3.1-1.3 3.1-3 0 0 .3-1.9.3-3.8s-.3-3.8-.3-3.8c0-1.6-1.4-3-3.1-3zM17.5 23H16v7.8h-1.4V23H13v-1.3h4.5V23zm3.9 7.8h-1.2v-.6s-.7.7-1.6.7c-.8 0-.9-.8-.9-.8V24H19v5.7s0 .3.4.3.8-.5.8-.5V24h1.2v6.8zm4.9-1.5s0 1.6-1.1 1.6c-.7 0-1.1-.4-1.3-.7v.6h-1.3v-9.1h1.3v2.9c.2-.2.7-.7 1.3-.7.8 0 1.1.7 1.1 1.6v3.8zm4.8-3.6v2h-2.6v1.5s0 .7.6.7.6-.7.6-.7v-.7H31v1.1s-.2 1.4-1.9 1.4-2-1.4-2-1.4v-3.8s0-1.7 2-1.7 2 1.6 2 1.6z"/><path class="st0" d="M24.4 25.1c-.3 0-.5.2-.6.3v4.1c.1.1.3.3.6.3.6 0 .6-.7.6-.7v-3.3s-.1-.7-.6-.7z"/><path class="st0" d="M40 0H4C1.8 0 0 1.8 0 4v36c0 2.2 1.8 4 4 4h36c2.2 0 4-1.8 4-4V4c0-2.2-1.8-4-4-4m2 40c0 1.1-.9 2-2 2H4c-1.1 0-2-.9-2-2V4c0-1.1.9-2 2-2h36c1.1 0 2 .9 2 2v36z"/></svg>