<svg id="idh" xmlns="http://www.w3.org/2000/svg" viewBox="0 0 500 500"><defs><style>.cls-1{fill:#e9552c;}</style></defs><title>about</title><path class="cls-1" d="M356,131.71a39.82,39.82,0,1,0-39.82-39.81A39.82,39.82,0,0,0,356,131.71Z"/><path class="cls-1" d="M452.92,396H390.58l8.53-107.29L400.75,269h17.94c9.9,0,16.09-8.84,13.76-19.57l-17.77-81.9C412.35,156.81,401.47,148,390.48,148H321.63c-11,0-21.87,8.77-24.2,19.5l-17.76,81.94c-2.33,10.73,3.52,19.56,13,19.56H309.8l1.68,19.71L320,396H252.52c0-1-.52-0.51-0.52-0.64v-225c0-1.53,1.7-2.31,3.22-2.31h9.92c1.91,0,3.05-2.85,1.53-4.76l-31.28-31.37a2.55,2.55,0,0,0-3.81,0L200.3,163.26c-1.53,1.53-.38,4.74,1.91,4.74h9.92c1.53,0,2.88.78,2.88,2.31v225c0,0.13-.19-0.36-0.17.64H193.16c0-1-.16-0.51-0.16-0.64V224a2.75,2.75,0,0,0-2.47-3H158.1c-1.53,0-2.1,1.48-2.1,3V395.36c0,0.13-.55-0.36-0.53.64H136.89c0-1,.11-0.51.11-0.64V303.43a2.41,2.41,0,0,0-2.65-2.43H101.93c-1.53,0-2.93.91-2.93,2.43v91.93c0,0.13.27-.36,0.29,0.64H59.07c-3.51,0-6.07.89-6.07,2.42v32.42c0,1.53,2.56,2.16,6.07,2.16H452.92c3.51,0,6.08-.64,6.08-2.16V398.42C459,396.89,456.43,396,452.92,396Z"/></svg>