<?xml version="1.0" encoding="utf-8"?>
<!-- Generator: Adobe Illustrator 19.2.1, SVG Export Plug-In . SVG Version: 6.00 Build 0)  -->
<svg version="1.1" id="sobre" xmlns="http://www.w3.org/2000/svg" xmlns:xlink="http://www.w3.org/1999/xlink" x="0px" y="0px"
	 viewBox="0 0 283.7 390.1" style="enable-background:new 0 0 283.7 390.1;" xml:space="preserve">
<style type="text/css">
	.st0{fill:#F15922;}
	.st1{fill:#FFFFFF;}
</style>
<path class="st0" d="M141.9,0C63.5,0,0,63.5,0,141.9c0,115.3,141.9,248.3,141.9,248.3s141.9-133,141.9-248.3
	C283.7,63.5,220.2,0,141.9,0"/>
<g>
	<path class="st1" d="M77.5,132.5h13.7v87.3h20.5v-74.8h20.1v74.8h20.5v-74.8h20.1v74.8h20.5v-87.3h13.3c2,0,3.7-0.6,4.9-1.7
		c1.3-1.1,1.9-2.6,1.9-4.4c0-2-0.9-3.7-2.7-4.9v-0.4H210l-64.6-33.4v-9.9c3.8,1.8,9.6,2,17.3,0.8c7.7-1.3,14.4-0.9,19.9,1.1V58.1
		c-5.3-2-12-2.4-19.9-1.1c-8,1.3-13.7,1-17.3-0.8v-1.5c0-2-1.1-3-3.4-3c-2.3,0-3.4,1-3.4,3v33l-64.6,33.4h-0.4v0.4
		c-2,1.3-3,2.9-3,4.9c0,1.8,0.7,3.2,2.1,4.4C74.1,132,75.7,132.5,77.5,132.5L77.5,132.5z M77.5,132.5"/>
	<path class="st1" d="M84.3,226l-13.7,12.5h142.4L199.8,226H84.3z M84.3,226"/>
</g>
</svg>
