<svg id="elders" xmlns="http://www.w3.org/2000/svg" viewBox="0 0 500 500"><defs><style>.cls-1{fill:#e9552c;}</style></defs><title>about</title><path class="cls-1" d="M25.5,415.91V254.55a28.23,28.23,0,0,1,56.46,0V256a6.6,6.6,0,0,1-13.19,0v-1.44a15,15,0,0,0-30.08,0V415.9A6.59,6.59,0,0,1,25.5,415.91ZM88.56,219.83V345.53h29.26V406a16.48,16.48,0,1,0,33,0V345.53H164V406a16.48,16.48,0,1,0,33,0V345.53h29.26V219.83A68.83,68.83,0,1,0,88.56,219.83Zm255.3,0A68.71,68.71,0,0,0,373.12,276V405.93a16.48,16.48,0,1,0,33,0V288.27c2.17,0.21,4.37.33,6.6,0.33s4.42-.13,6.6-0.33V405.93a16.48,16.48,0,0,0,33,0V276A68.81,68.81,0,1,0,343.86,219.78ZM287.39,422.45a6.59,6.59,0,0,0,6.6-6.6V254.5a15,15,0,1,1,30.08,0v1.44a6.6,6.6,0,1,0,13.19,0V254.5a28.23,28.23,0,1,0-56.46,0V415.85A6.59,6.59,0,0,0,287.39,422.45ZM294,162.33c0.21,1,.43,2.47,1.13,2.86a2.61,2.61,0,0,0,3.6-.87,9.87,9.87,0,0,1,2.37-2.19,3.76,3.76,0,0,0,1.57.13c3.3-.43,5.53-2.43,7.28-5a27.76,27.76,0,0,0,1.72-3.23,28.21,28.21,0,0,0,1.72,3.23c1.75,2.61,4,4.61,7.28,5a3.75,3.75,0,0,0,1.57-.13,9.87,9.87,0,0,1,2.37,2.19,2.61,2.61,0,0,0,3.6.87c0.7-.4.92-1.84,1.13-2.86a10.51,10.51,0,0,0-.06-2.49h0a59.53,59.53,0,0,0-.37-8c-1-5.91-7.09-10.38-12.47-9.59a33.12,33.12,0,0,0-4.81,1.71,33.8,33.8,0,0,0-4.81-1.71c-5.37-.79-11.42,3.68-12.47,9.59a59.58,59.58,0,0,0-.37,8h0A10,10,0,0,0,294,162.33Zm6-48.24,82,17.22c1.4,0.29,5.26-1.87,6-5.39s-2.37-7.16-3.78-7.46L374,116.31a18.58,18.58,0,0,0,1.18-3.68l1.26-6c1.85-8.81-2.8-17.26-10.38-18.86l-33.87-7.11c-7.59-1.59-15.24,4.27-17.09,13.09l-1.26,6a18.92,18.92,0,0,0-.4,3.85l-10.26-2.15c-1.42-.3-5.72,1.77-6.46,5.31S298.63,113.81,300,114.1ZM332.56,163c-0.35,1.75-.79,3.95-2.73,5a6.12,6.12,0,0,1-3,.8,5.89,5.89,0,0,1-4.85-2.64,4.33,4.33,0,0,0-.61-0.64h-0.2l-0.89-.06a12.82,12.82,0,0,1-8.58-5.12A15.07,15.07,0,0,1,309,163a38,38,0,0,0,67.06-24.51,39,39,0,0,0-.2-3.95L305,119.67a37.81,37.81,0,0,0-5,18.82c0,0.6.06,1.19,0.09,1.79a12.93,12.93,0,0,1,7.27-1.17,25.31,25.31,0,0,1,4.34,1.42,26.32,26.32,0,0,1,4.34-1.42c7.25-1.08,14.81,4.83,16.12,12.23a34.61,34.61,0,0,1,.39,6c0,0.79,0,1.59,0,2.38l0,0.74a11.66,11.66,0,0,1,.06,1.42l0,0.46h0A4.33,4.33,0,0,1,332.56,163ZM43.22,137.81A38.74,38.74,0,1,0,82,99.07,38.74,38.74,0,0,0,43.22,137.81Zm79.94-13.26A22.77,22.77,0,1,0,92.43,95.89,42.14,42.14,0,0,1,123.17,124.55Z"/></svg>