<?xml version="1.0" encoding="utf-8"?>
<!-- Generator: Adobe Illustrator 16.0.0, SVG Export Plug-In . SVG Version: 6.00 Build 0)  -->
<!DOCTYPE svg PUBLIC "-//W3C//DTD SVG 1.1//EN" "http://www.w3.org/Graphics/SVG/1.1/DTD/svg11.dtd">
<svg version="1.1" id="Camada_1" xmlns="http://www.w3.org/2000/svg" xmlns:xlink="http://www.w3.org/1999/xlink" x="0px" y="0px"
	 width="50.024px" height="54.11px" viewBox="0 0 50.024 54.11" enable-background="new 0 0 50.024 54.11" xml:space="preserve">
<path fill="#818181" d="M9.285,14.161c2.239,0,4.048-2.591,4.048-4.83s-1.809-4.046-4.048-4.046c-2.23,0-4.047,1.815-4.047,4.046
	C5.238,11.569,7.055,14.161,9.285,14.161L9.285,14.161z M9.285,14.161"/>
<path fill="#818181" d="M39.746,14.161c2.238,0,4.055-2.591,4.055-4.83s-1.816-4.046-4.055-4.046c-2.231,0-4.048,1.815-4.048,4.046
	C35.698,11.569,37.515,14.161,39.746,14.161L39.746,14.161z M39.746,14.161"/>
<path fill="#818181" d="M12.08,31.814c-0.603-0.751-0.869-1.699-0.767-2.654l1.581-14.232c-1.136-0.243-2.411-0.439-3.609-0.439
	c-2.857,0-6.177,1.113-6.834,1.339c-0.023,0.008-0.047,0.016-0.07,0.024c-0.016,0.008-0.039,0.016-0.047,0.016
	c-0.031,0.016-0.047,0.038-0.078,0.054c-0.157,0.063-0.306,0.142-0.423,0.259c-0.063,0.046-0.102,0.11-0.148,0.172
	c-0.087,0.094-0.165,0.188-0.22,0.296c-0.055,0.102-0.07,0.212-0.102,0.314c-0.016,0.079-0.063,0.148-0.07,0.235L0.009,28.73
	c-0.094,0.876,0.54,1.667,1.417,1.769c0.063,0.008,0.117,0.008,0.18,0.008c0.807,0,1.495-0.603,1.59-1.425l1.166-10.506
	c0.133-0.039,0.282-0.086,0.446-0.125V29.38L3.531,45.225c-0.086,1.057,0.705,1.988,1.762,2.075c0.055,0,0.102,0,0.156,0
	c0.994,0,1.832-0.759,1.91-1.762l1.159-14.326c0.234,0.102,0.493,0.165,0.767,0.165c0.282,0,0.54-0.063,0.783-0.165l1.15,14.326
	c0.079,1.002,0.924,1.762,1.91,1.762c0.055,0,0.103,0,0.157,0c1.057-0.086,1.847-1.018,1.761-2.075l-0.979-12.173
	C13.294,32.872,12.597,32.457,12.08,31.814L12.08,31.814z M12.08,31.814"/>
<rect x="0.001" display="none" fill="none" width="50.023" height="54.11"/>
<path fill="#818181" d="M47.746,17.199c-0.008-0.087-0.055-0.149-0.07-0.226c-0.031-0.111-0.055-0.221-0.109-0.331
	c-0.047-0.093-0.109-0.165-0.173-0.243c-0.07-0.086-0.125-0.164-0.203-0.235c-0.086-0.078-0.195-0.124-0.297-0.179
	c-0.071-0.039-0.118-0.095-0.196-0.117c-0.148-0.056-3.836-1.379-6.951-1.379c-1.198,0-2.474,0.204-3.602,0.447l1.581,14.224
	c0.103,0.955-0.172,1.903-0.774,2.654c-0.501,0.634-1.198,1.058-1.98,1.237l-0.979,12.173c-0.087,1.057,0.704,1.988,1.761,2.067
	c0.055,0.008,0.102,0.008,0.157,0.008c0.994,0,1.831-0.759,1.91-1.762l1.158-14.326c0.235,0.102,0.493,0.165,0.768,0.165
	c0.281,0,0.54-0.063,0.782-0.165l1.151,14.326c0.078,1.002,0.923,1.762,1.91,1.762c0.055,0,0.102,0,0.156-0.008
	c1.057-0.079,1.848-1.01,1.762-2.067L44.231,29.38V18.443c0.164,0.046,0.313,0.094,0.446,0.133l1.166,10.506
	c0.095,0.814,0.783,1.425,1.59,1.425c0.063,0,0.117-0.008,0.18-0.016c0.877-0.094,1.511-0.885,1.417-1.769L47.746,17.199z
	 M47.746,17.199"/>
<path fill="#818181" d="M24.52,11.108c2.795,0,5.065-3.24,5.065-6.044C29.585,2.271,27.314,0,24.52,0
	c-2.803,0-5.073,2.271-5.073,5.064C19.446,7.868,21.717,11.108,24.52,11.108L24.52,11.108z M24.52,11.108"/>
<path fill="#818181" d="M23.744,11.554c-3.374,0.173-7.014,1.379-7.781,1.637c-0.031,0.016-0.063,0.024-0.094,0.038
	c-0.016,0.007-0.039,0.016-0.047,0.016c-0.047,0.017-0.07,0.048-0.109,0.063c-0.188,0.086-0.376,0.18-0.532,0.322
	c-0.071,0.07-0.118,0.148-0.181,0.219c-0.102,0.124-0.203,0.234-0.273,0.375c-0.063,0.126-0.087,0.258-0.126,0.4
	c-0.023,0.095-0.078,0.181-0.094,0.281L12.91,29.341c-0.126,1.096,0.665,2.09,1.769,2.208c0.071,0.008,0.149,0.016,0.22,0.016
	c1.01,0,1.879-0.76,1.996-1.785l1.456-13.144c0.172-0.048,0.36-0.102,0.556-0.157v13.677L17.31,49.984
	c-0.102,1.323,0.885,2.489,2.207,2.592c0.063,0.007,0.134,0.007,0.196,0.007c1.245,0,2.294-0.955,2.396-2.208l1.44-17.927
	c0.298,0.133,0.626,0.204,0.971,0.204s0.673-0.07,0.971-0.204l1.44,17.927c0.102,1.252,1.158,2.208,2.396,2.208
	c0.063,0,0.133,0,0.195-0.007c1.323-0.103,2.31-1.269,2.208-2.592l-1.597-19.829V16.478c0.195,0.056,0.383,0.109,0.556,0.157
	l1.456,13.144c0.117,1.025,0.986,1.785,1.988,1.785c0.078,0,0.148-0.008,0.227-0.016l0,0c1.097-0.117,1.895-1.111,1.77-2.208
	l-1.604-14.437c-0.008-0.094-0.063-0.18-0.086-0.273c-0.039-0.142-0.063-0.282-0.134-0.414c-0.063-0.111-0.141-0.205-0.227-0.308
	c-0.078-0.102-0.149-0.203-0.243-0.288c-0.117-0.103-0.242-0.156-0.375-0.236c-0.087-0.038-0.149-0.109-0.243-0.141
	c-0.18-0.069-4.212-1.51-7.923-1.706 M34.359,31.548"/>
</svg>
