<svg id="area" xmlns="http://www.w3.org/2000/svg" viewBox="0 0 500 500"><defs><style>.cls-1{fill:#fff;}</style></defs><title>home</title><path id="white" class="cls-1" d="M114.34,55a59.54,59.54,0,0,0-12.77,1.4,9.59,9.59,0,1,0,4,18.66,41.27,41.27,0,0,1,8.78-.8h21.15a9.63,9.63,0,0,0,0-19.27H114.34Zm53.08,0a9.63,9.63,0,0,0,0,19.27h31.93a9.63,9.63,0,0,0,0-19.27H167.42Zm63.85,0a9.63,9.63,0,0,0,0,19.27H263.2a9.63,9.63,0,0,0,0-19.27H231.27Zm63.85,0a9.63,9.63,0,0,0,0,19.27h31.93a9.63,9.63,0,0,0,0-19.27H295.12ZM359,55a9.63,9.63,0,0,0,0,19.27h23.55a42.6,42.6,0,0,1,6.78.4,8.93,8.93,0,0,0,1.4.2,9.59,9.59,0,0,0,1.6-19.06,61.49,61.49,0,0,0-9.78-.8H359Zm59.66,15.05a9.54,9.54,0,0,0-6.78,2.81,9.7,9.7,0,0,0,0,13.65,41.27,41.27,0,0,1,11.77,22.68,9.63,9.63,0,0,0,9.38,8.23,10.64,10.64,0,0,0,1.6-.2,9.52,9.52,0,0,0,7.78-11,60.37,60.37,0,0,0-17-33.31A9.52,9.52,0,0,0,418.64,70.07Zm-342.82,2a9.5,9.5,0,0,0-6.58,3.21,60.27,60.27,0,0,0-15.17,34.12A9.71,9.71,0,0,0,62.66,120a8.62,8.62,0,0,0,1,0A9.3,9.3,0,0,0,73,111.61,42,42,0,0,1,83.61,88.13,9.65,9.65,0,0,0,75.83,72.08Zm360.57,58.2a9.6,9.6,0,0,0-9.58,9.63V172A9.58,9.58,0,1,0,446,172V139.91A9.6,9.6,0,0,0,436.4,130.28ZM66,132.89a9.6,9.6,0,0,0-9.58,9.63v32.31a9.58,9.58,0,1,0,19.16,0V142.52A9.6,9.6,0,0,0,66,132.89ZM436.4,194.5a9.61,9.61,0,0,0-9.58,9.63v32.11a9.58,9.58,0,1,0,19.16,0V204.13A9.61,9.61,0,0,0,436.4,194.5ZM66,197.31a9.6,9.6,0,0,0-9.58,9.63V239a9.58,9.58,0,1,0,19.16,0V206.94A9.6,9.6,0,0,0,66,197.31ZM436.4,258.71a9.61,9.61,0,0,0-9.58,9.63v32.11a9.58,9.58,0,1,0,19.16,0V268.35A9.61,9.61,0,0,0,436.4,258.71ZM66,261.52a9.6,9.6,0,0,0-9.58,9.63v32.11a9.58,9.58,0,1,0,19.16,0V271.16A9.6,9.6,0,0,0,66,261.52ZM436.4,322.93a9.61,9.61,0,0,0-9.58,9.63v32.31a9.58,9.58,0,1,0,19.16,0V332.57A9.61,9.61,0,0,0,436.4,322.93ZM66,325.74a9.6,9.6,0,0,0-9.58,9.63v32.11a9.58,9.58,0,1,0,19.16,0V335.38A9.6,9.6,0,0,0,66,325.74Zm367.56,50.57a9.6,9.6,0,0,0-9.58,9.63,41.8,41.8,0,0,1-7.78,24.48,9.66,9.66,0,0,0,2.19,13.45,9.46,9.46,0,0,0,5.59,1.81,9.6,9.6,0,0,0,7.78-4,60.81,60.81,0,0,0,11.37-35.72A9.6,9.6,0,0,0,433.61,376.32ZM64.45,390a8.23,8.23,0,0,0-1.8.2A9.69,9.69,0,0,0,55.87,402a61.29,61.29,0,0,0,20.55,31.51,9.3,9.3,0,0,0,6,2,9.41,9.41,0,0,0,7.38-3.61,9.54,9.54,0,0,0-1.4-13.45,41.57,41.57,0,0,1-14-21.47A9.68,9.68,0,0,0,64.45,390Zm333.24,35.12a10.48,10.48,0,0,0-2,.4,41.7,41.7,0,0,1-13.17,2.21H367.16a9.63,9.63,0,0,0,0,19.27h15.36a60.32,60.32,0,0,0,19.16-3,9.77,9.77,0,0,0,6.19-12.24A9.6,9.6,0,0,0,397.69,425.08Zm-287.54,2.61a9.45,9.45,0,0,0-8,9,9.65,9.65,0,0,0,9,10.23c1.08,0.05,2.11,0,3.19,0h29.33a9.63,9.63,0,0,0,0-19.27H114.34c-0.75,0-1.45,0-2.19,0A10.14,10.14,0,0,0,110.15,427.69Zm65.45,0a9.63,9.63,0,0,0,0,19.27h31.93a9.63,9.63,0,0,0,0-19.27H175.6Zm63.85,0a9.63,9.63,0,0,0,0,19.27h31.93a9.63,9.63,0,0,0,0-19.27H239.45Zm63.85,0a9.63,9.63,0,0,0,0,19.27h31.93a9.63,9.63,0,0,0,0-19.27H303.31ZM375,130.75v41.33a7,7,0,0,1-14,0v-24.7L150.65,358h24.7a7,7,0,0,1,0,14H134c-0.23,0-.45-0.08-0.68-0.1s-0.2-.1-0.3-0.11l-0.36-.06-0.33-.08-0.33-.08-0.29-.1-0.36-.13-0.2-.09-0.43-.21-0.09,0a7.14,7.14,0,0,1-1.57-1.14,7,7,0,0,1-2.08-4.94V323.64a7,7,0,0,1,14,0v24.7L351.61,138h-24.7a7,7,0,0,1,0-14h41.33A6.66,6.66,0,0,1,375,130.75Z"/></svg>