<svg id="coins" xmlns="http://www.w3.org/2000/svg" viewBox="0 0 500 500"><defs><style>.cls-1{fill:#fff;}</style></defs><title>home</title><path id="white" class="cls-1" d="M291.53,62.16c54.11,0,99.82,25.95,99.82,56.67s-45.71,56.67-99.82,56.67c-0.79,0-1.57,0-2.35-.06-9.68-29.78-48.25-52.25-97.43-56,0-.19,0-0.39,0-0.58C191.72,88.11,237.43,62.16,291.53,62.16ZM361.24,244a115.17,115.17,0,0,0-69.7,2.55V232.76c43.36,0,80.35-14.31,99.82-35.91V204C391.35,219.45,379.69,233.69,361.24,244Zm30.12-4.63v7.13a31.56,31.56,0,0,1-1.65,9.72,112.41,112.41,0,0,0-10.83-5.73A80.47,80.47,0,0,0,391.35,239.41Zm-99.82-21.35V190.19c43.36,0,80.35-14.31,99.82-35.91v7.13C391.35,192.12,345.64,218.07,291.53,218.07ZM177,133.52c54.11,0,99.82,25.95,99.82,56.67S231.13,246.85,177,246.85,77.21,220.9,77.21,190.18,122.92,133.52,177,133.52ZM77.21,225.63c19.47,21.61,56.46,35.91,99.82,35.91s80.35-14.31,99.82-35.91v7.13c0,30.72-45.71,56.67-99.82,56.67s-99.82-25.95-99.82-56.67v-7.13Zm0,42.57c19.47,21.61,56.46,35.91,99.82,35.91a174.06,174.06,0,0,0,54.68-8.45,114.51,114.51,0,0,0-12.89,30.84A160.29,160.29,0,0,1,177,332c-54.11,0-99.82-25.95-99.82-56.67V268.2Zm0,42.57c19.47,21.61,56.46,35.91,99.82,35.91a182.2,182.2,0,0,0,38.91-4.11,113.16,113.16,0,0,0,.29,27.21,161.61,161.61,0,0,1-39.2,4.78c-54.11,0-99.82-25.95-99.82-56.67v-7.13h0ZM177,417.14c-54.11,0-99.82-25.95-99.82-56.67v-7.13c19.47,21.61,56.46,35.91,99.82,35.91a180.49,180.49,0,0,0,42-4.85,114.31,114.31,0,0,0,9.45,24.24A156.69,156.69,0,0,1,177,417.14Zm153.4,38.36A100.49,100.49,0,1,1,430.91,355,100.6,100.6,0,0,1,330.43,455.5Zm30.05-93.9a40.91,40.91,0,0,0-9.81-7.3,122.55,122.55,0,0,0-16-6.94q-10.21-3.75-14.47-7.93t-4.27-11.12q0-7.73,4.3-11.88t12-4.15a14.68,14.68,0,0,1,12.24,5.79q4.5,5.78,4.51,15.83h19.3q0-15.64-7.58-25.41t-21.45-11.76V279.18H326.44v17.39q-13.8,1.59-21.85,10.13t-8.06,21.76q0,19.54,18.58,29.5a113.72,113.72,0,0,0,15.63,6.58q10,3.54,14.35,8a15.38,15.38,0,0,1,4.3,11.2,15.09,15.09,0,0,1-4.74,11.64q-4.75,4.39-13.83,4.39-9.26,0-14.31-5.51t-5.07-15.54H292.06q0,15.78,8.49,25.36t24.28,11.33v15.46h12.67V415.29q14.75-1.51,23-9.89t8.26-21.85A33.32,33.32,0,0,0,366.62,371,28.89,28.89,0,0,0,360.48,361.6Z"/></svg>