<svg id="population" xmlns="http://www.w3.org/2000/svg" viewBox="0 0 500 500"><defs><style>.cls-1{fill:#fff;}</style></defs><title>home</title><path id="white" class="cls-1" d="M307.61,183.5v80a22.14,22.14,0,0,1-22.13,22.14H280.1V402.17A17.06,17.06,0,0,1,263,419.23H237.1A17.06,17.06,0,0,1,220,402.17V285.59h-5.38a22.14,22.14,0,0,1-22.12-22.14v-80a22.13,22.13,0,0,1,22.13-22.13h70.81A22.14,22.14,0,0,1,307.61,183.5Zm-92-66A34.48,34.48,0,1,0,250.07,83,34.48,34.48,0,0,0,215.59,117.49Zm-53.06,63.82H107.46a17.2,17.2,0,0,0-17.21,17.21v62.19a17.21,17.21,0,0,0,17.2,17.21h4.18V368.6a13.26,13.26,0,0,0,13.26,13.27h20.17a13.27,13.27,0,0,0,13.28-13.27V277.93h4.18a17.21,17.21,0,0,0,17.21-17.21V198.53A17.2,17.2,0,0,0,162.54,181.31Zm-54.36-34.12A26.82,26.82,0,1,0,135,120.37,26.82,26.82,0,0,0,108.18,147.19Zm-43,54.07H25.84a12.29,12.29,0,0,0-12.29,12.3V258a12.29,12.29,0,0,0,12.28,12.29h3V335a9.48,9.48,0,0,0,9.48,9.48H52.7A9.48,9.48,0,0,0,62.18,335V270.27h3A12.3,12.3,0,0,0,77.46,258V213.56A12.28,12.28,0,0,0,65.17,201.26ZM26.35,176.89a19.15,19.15,0,1,0,19.15-19.15A19.15,19.15,0,0,0,26.35,176.89Zm366.32,4.43H337.61a17.2,17.2,0,0,0-17.21,17.21v62.19a17.21,17.21,0,0,0,17.2,17.21h4.18V368.6A13.26,13.26,0,0,0,355,381.87h20.18A13.26,13.26,0,0,0,388.5,368.6V277.93h4.18a17.22,17.22,0,0,0,17.21-17.21V198.53A17.22,17.22,0,0,0,392.67,181.31Zm-54.35-34.12a26.82,26.82,0,1,0,26.82-26.82A26.82,26.82,0,0,0,338.33,147.19Zm136,54.07H435a12.29,12.29,0,0,0-12.29,12.3V258A12.29,12.29,0,0,0,435,270.27h3V335a9.48,9.48,0,0,0,9.48,9.48h14.41a9.48,9.48,0,0,0,9.48-9.48V270.27h3A12.3,12.3,0,0,0,486.6,258V213.56A12.29,12.29,0,0,0,474.3,201.26Zm-38.82-24.37a19.15,19.15,0,1,0,19.15-19.15A19.15,19.15,0,0,0,435.48,176.89Z"/></svg>