<svg id="altitude" xmlns="http://www.w3.org/2000/svg" viewBox="0 0 500 500"><defs><style>.cls-1{fill:#fff;}</style></defs><title>home</title><path id="white" class="cls-1" d="M495.81,379.65c0-.56-23.42-49.08-60.79-124.93-11.71-24-22.31-46.85-31.23-66.37-28.44-61.91-46.29-99.27-68-99.27-27.33,0-49.64,53.54-71.95,104.85-15.06,35.14-33.46,78.64-45.73,79.2-3.35.56-6.69-4.46-9.48-8.37-31.23-54.66-48.52-74.18-65.25-75.29-12.27-1.12-23.42,8.92-35.14,24C79.2,249.14,7.25,374.07,4.46,379.09L0,386.9H499.16ZM155,250.82C141.1,248,87.56,266.43,97.6,249.14c0,0,27.33-48,42.39-48s25.66,16.73,37.92,36.81C186.28,250.82,169,253.6,155,250.82ZM361.4,164.37c-39.6-29-68-1.12-60.79-19.52,0,0,17.85-39.6,32.91-39.6s22.87,15.06,30.12,29C374.79,156.56,384.83,181.66,361.4,164.37Z"/></svg>