<svg id="police" xmlns="http://www.w3.org/2000/svg" viewBox="0 0 500 500"><defs><style>.cls-1{fill:#a6d23e;}</style></defs><title>info</title><path class="cls-1" d="M375.34,213.9l-1.94,17.62a305.9,305.9,0,0,1-244.31,0l-1.93-17.62A305.74,305.74,0,0,1,375.34,213.9Zm20.88-74.27a13.31,13.31,0,0,0-1.91-1,306.17,306.17,0,0,1-96.52-62.35,67.37,67.37,0,0,0-93.08,0,305.45,305.45,0,0,1-96.52,62.35,10.7,10.7,0,0,0-5.92,13.89l1,1.88,28.3,42.6a306.05,306.05,0,0,1,239.56,0l28.17-42.6A10.7,10.7,0,0,0,396.21,139.63Zm-145.85-51a13,13,0,0,0,.88-1.43,19.36,19.36,0,0,0,26.5,6.91c0.44-.28.94-0.59,1.44-0.94A55.59,55.59,0,0,1,251.25,148a55.55,55.55,0,0,1-27.89-54.83A19.36,19.36,0,0,0,250.37,88.61ZM367,249.67c0.28,0.44.56,0.88,0.79,1.28a44.81,44.81,0,0,1-15.69,61.44,146,146,0,0,1-92.2,106.67,24.88,24.88,0,0,1-17.27,0A145.9,145.9,0,0,1,150.37,312.4c-0.41-.26-0.84-0.5-1.22-0.75a44.85,44.85,0,0,1-13.67-62l-17-10.89a65.08,65.08,0,0,0,14,85.75A166.15,166.15,0,0,0,235.63,438a45.58,45.58,0,0,0,31.3,0A166.08,166.08,0,0,0,370,324.54a65,65,0,0,0,14.08-85.75Z"/></svg>