<svg id="drive" xmlns="http://www.w3.org/2000/svg" viewBox="0 0 500 500"><defs><style>.cls-1{fill:#a6d23e;}</style></defs><title>info</title><path class="cls-1" d="M202,256a47.19,47.19,0,1,0,47.19-47.19A47.19,47.19,0,0,0,202,256h0Zm211.24,34.61c-0.45-8.54-13.93-20.22-37.3-14.83-17.08,4-40.45,18.43-64.27,42.25-17.53,17.53-33.26,44-33.26,85.84,0.45,49.89,137.08-44.94,134.83-113.26h0ZM84.69,218.72c-0.9,8.09,15.73,7.19,26.07,5.84,32.36-5.84,86.74-33.71,141.12-33.71,38.2,0,79.1,18,106.52,26.07,9.44,2.7,22.92,7.64,42.25,8.54,7.19,0.45,14.38-1.35,13.93-7.64-2.7-44.49-60.23-133-165.39-133-80,0-158.2,67-164.5,133.93h0ZM86,290.63c-2.25,68.31,134.83,163.15,134.83,113.26,0-41.8-15.73-68.32-33.26-85.84-23.82-23.37-46.74-38.2-64.27-41.8C100,270.86,86.49,282.09,86,290.63h0ZM46.94,252A202.25,202.25,0,1,1,249.18,454.23,202,202,0,0,1,46.94,252h0Zm169.44,4a32.81,32.81,0,1,1,32.81,32.81A33,33,0,0,1,216.37,256h0ZM202,256a47.19,47.19,0,1,0,47.19-47.19A47.19,47.19,0,0,0,202,256h0Zm211.24,34.61c-0.45-8.54-13.93-20.22-37.3-14.83-17.08,4-40.45,18.43-64.27,42.25-17.53,17.53-33.26,44-33.26,85.84,0.45,49.89,137.08-44.94,134.83-113.26h0ZM84.69,218.72c-0.9,8.09,15.73,7.19,26.07,5.84,32.36-5.84,86.74-33.71,141.12-33.71,38.2,0,79.1,18,106.52,26.07,9.44,2.7,22.92,7.64,42.25,8.54,7.19,0.45,14.38-1.35,13.93-7.64-2.7-44.49-60.23-133-165.39-133-80,0-158.2,67-164.5,133.93h0ZM86,290.63c-2.25,68.31,134.83,163.15,134.83,113.26,0-41.8-15.73-68.32-33.26-85.84-23.82-23.37-46.74-38.2-64.27-41.8C100,270.86,86.49,282.09,86,290.63h0ZM46.94,252A202.25,202.25,0,1,1,249.18,454.23,202,202,0,0,1,46.94,252h0Zm169.44,4a32.81,32.81,0,1,1,32.81,32.81A33,33,0,0,1,216.37,256h0Z"/></svg>