<svg id="power-plug" xmlns="http://www.w3.org/2000/svg" viewBox="0 0 500 500"><defs><style>.cls-1{fill:#a6d23e;}</style></defs><title>info</title><path class="cls-1" d="M459.17,296.92H362.39V188.73h96.79a26.83,26.83,0,0,0,0-53.65H362.39V95.74H322.84V96c-107.55,3.51-134,78.45-214.36,78.45H80.76v38.45H22.64v69.74H80.76v37.55h27.71c80.39,0,106.82,74.94,214.36,78.46v0.23h39.55V350.55h96.79A26.82,26.82,0,1,0,459.17,296.92Zm21.46-135a21.49,21.49,0,0,1-21.46,21.46H429.78V140.45h29.39A21.49,21.49,0,0,1,480.64,161.91ZM275.45,252.6H243.69L266.9,184.9h36.65l-29.32,50.72h33.6l-50.09,76.74Zm183.72,92.59H429.78V302.28h29.39A21.46,21.46,0,1,1,459.17,345.19Z"/></svg>