<svg id="ambulance" xmlns="http://www.w3.org/2000/svg" viewBox="0 0 500 500"><defs><style>.cls-1{fill:#a6d23e;}</style></defs><title>info</title><path class="cls-1" d="M264.58,130.75v-9.05h11.83V116c0-10.19,8.9-18.43,19.92-18.43s19.89,8.24,19.89,18.43v5.73h11.57v9.05H264.58Zm146.6,229A42.25,42.25,0,1,1,369,317.44,42.24,42.24,0,0,1,411.18,359.7Zm-22,0a20.21,20.21,0,1,0-20.2,20.22A20.19,20.19,0,0,0,389.14,359.71Zm-219.89-.41A42.26,42.26,0,1,1,127,317,42.25,42.25,0,0,1,169.25,359.3Zm-22,0a20.22,20.22,0,1,0-20.21,20.22A20.21,20.21,0,0,0,147.29,359.34Zm259.24-201c-4.56-11-13.8-17.25-26.42-17.25H47.91a17.93,17.93,0,0,0-17.7,18.17V344.11c0,8.83,7,15.67,16.07,15.67H71.94a54.89,54.89,0,1,1,109.79,0H314.05a54.89,54.89,0,1,1,109.77,0h31c12.89,0,23.23-6.67,20-25l-9-56.22c-5.7-31.15-13.26-36.6-25.88-39.06Zm-19.74,1.59,31.15,76.79h-88.8V159.92H386.8Zm-90,66.94V274H249.71v47.12H202.59V274H155.46V226.86h47.13V179.74h47.12v47.12h47.12Z"/></svg>