<svg id="emergency-management" xmlns="http://www.w3.org/2000/svg" viewBox="0 0 500 500"><defs><style>.cls-1{fill:#a6d23e;}</style></defs><title>info</title><path class="cls-1" d="M344.65,209.48c-44.73,32.31-55.24,38-91.19,74-35.94-35.93-46.46-41.65-91.18-74-21.52-15.54-39.13-40.15-39.13-67.47,0-43.84,26.15-77.28,70-77.28,26,0,54.95,22,60.33,48.23,5.38-26.25,34.35-48.23,60.34-48.23,43.83,0,70,33.44,70,77.28C383.78,169.34,366.17,193.95,344.65,209.48ZM137.89,266.56v0l-15.1-13.72a18.08,18.08,0,1,0-25.57,25.57l17.1,15.52,26.94,24.44,17.27,15.67a5.73,5.73,0,1,1-7.7,8.49L91.5,288.73a29.07,29.07,0,0,1,15.56-52.35l-11-91.6a18.08,18.08,0,1,0-36.17,0V310.05a18.09,18.09,0,0,0,7.38,14.59l66,59.2A31.27,31.27,0,0,1,143,406.63v20.5h0v0.06a13,13,0,0,0,13,13h50a13,13,0,0,0,13-13V360a45.16,45.16,0,0,0-14.82-33.17ZM429,126.7a18.1,18.1,0,0,0-18.11,18.09l-11,91.6a29.08,29.08,0,0,1,15.58,52.35l-59.35,53.81a5.73,5.73,0,0,1-7.71-8.49l17.29-15.67,26.92-24.44,17.12-15.52a18.06,18.06,0,0,0,0-25.57,18.28,18.28,0,0,0-25.57,0l-15.1,13.72v0L302.8,326.84A45.16,45.16,0,0,0,288,360v67.18a13,13,0,0,0,13,13h49.95a13,13,0,0,0,13-13V406.63a31.33,31.33,0,0,1,9.84-22.79l65.94-59.2a18.06,18.06,0,0,0,7.39-14.59V144.78A18.09,18.09,0,0,0,429,126.7Z"/></svg>