<svg id="water-supply" xmlns="http://www.w3.org/2000/svg" viewBox="0 0 500 500"><defs><style>.cls-1{fill:#a6d23e;}</style></defs><title>info</title><path class="cls-1" d="M371.57,390.6c5.8,9.37,10.26,15.17,10.26,26.77a35.69,35.69,0,1,1-71.38,0c0-11.6,4.46-17.4,10.26-26.77,8-13.38,18.74-29,25.43-45.51C352.84,361.6,363.54,377.21,371.57,390.6Zm17-94.58h-6.69V250.51a87.11,87.11,0,0,0-87-87H238.62V158.6a31,31,0,0,0-18.29-28.11V100.61a28.4,28.4,0,0,0,8.92-8.92h19.63a12,12,0,1,0,0-24.09H229.7a25.06,25.06,0,0,0-42.83,0H167.69a12,12,0,1,0,0,24.09h19.18a28.4,28.4,0,0,0,8.92,8.92V130.5A31,31,0,0,0,177.5,158.6v4.91H106.12v71.38H177.5v4.91a30.78,30.78,0,0,0,61.57,0v-4.91h56.21a15,15,0,0,1,15.17,15.17v45.51h-6.69a12,12,0,1,0,0,24.09h84.77a12,12,0,0,0,12-12C400.57,300.92,395.22,296,388.53,296Z"/></svg>