<svg id="guard" xmlns="http://www.w3.org/2000/svg" viewBox="0 0 500 500"><defs><style>.cls-1{fill:#a6d23e;}</style></defs><title>info</title><path class="cls-1" d="M316.23,150.66l-1.08,9.47a164.46,164.46,0,0,1-131.35,0l-1-9.47A164.61,164.61,0,0,1,316.23,150.66Zm-85.58,99.17a62,62,0,0,0,77.91-77.91,172.76,172.76,0,0,1-118.15,0A62,62,0,0,0,230.64,249.82Zm96.79-139.08a6.34,6.34,0,0,0-1-.53,165.27,165.27,0,0,1-51.91-33.56,36.22,36.22,0,0,0-50.06,0,164.84,164.84,0,0,1-51.88,33.56,5.75,5.75,0,0,0-3.21,7.43,6.71,6.71,0,0,0,.6,1l15.13,22.92a164.25,164.25,0,0,1,128.83,0L329,118.67A5.78,5.78,0,0,0,327.43,110.74ZM258.5,79.37a19.81,19.81,0,0,1,2.77,4.91,21.12,21.12,0,0,1-11.78,27.4,23.4,23.4,0,0,1-4.9-2.77,21.11,21.11,0,0,1-4.18-29.54,11.61,11.61,0,0,0,9.09.11A11.46,11.46,0,0,0,258.5,79.37ZM193.37,261.6a131,131,0,0,0-70.54,151.72,311.76,311.76,0,0,0,253.3,0A131,131,0,0,0,305.53,261.6,90.32,90.32,0,0,1,193.37,261.6Zm11.19,148.87a6.63,6.63,0,0,1-9.39,0,6.55,6.55,0,0,1,0-9.37l6.24-6.26,0-1.8a7.43,7.43,0,0,1,2.16-5.63l15.07-15.07a7.58,7.58,0,0,1,5.65-2.19L226,370.2l70.4-70.37a6.64,6.64,0,1,1,9.4,9.37l-70.43,70.37,0.1,1.8a7.22,7.22,0,0,1-2.24,5.59l-3.19,3.27,20.71,20.71a6.41,6.41,0,0,1,0,9,6.32,6.32,0,0,1-9,0l-20.76-20.71-2.82,2.83a7.6,7.6,0,0,1-5.65,2.21l-1.8-.08Z"/></svg>