<svg id="eletricity-co" xmlns="http://www.w3.org/2000/svg" viewBox="0 0 500 500"><defs><style>.cls-1{fill:#a6d23e;}</style></defs><title>info</title><path class="cls-1" d="M318.14,405.25H181.79V379.36a15.8,15.8,0,0,1,16-15.58H302.17a15.81,15.81,0,0,1,16,15.58v25.89Zm-22.35,39.4v-29.1H204.11v29.1A11.34,11.34,0,0,0,215.44,456h69A11.34,11.34,0,0,0,295.79,444.65ZM220,431.4h60v8.77H220V431.4Zm1.19-191.13a6.37,6.37,0,0,0,4.79-.36l41-20.53a6.36,6.36,0,0,0,3-3.33,5.89,5.89,0,0,0-.2-4.71,6.33,6.33,0,0,0-8.16-2.52l-41,20.52a6.34,6.34,0,0,0-3.17,3.63A5.74,5.74,0,0,0,221.14,240.27Zm158.07-56.79a128.38,128.38,0,0,1-24.65,76l-1.68,2.26c-1.27,1.63-2.62,3.29-4.11,5.06a110.79,110.79,0,0,0-11.28,18.8c-0.57,2.18-.88,3.89-1,4.53v17.07c0,20.55-16.34,37.28-36.4,37.28H199.83c-20.07,0-36.39-16.73-36.39-37.28V290.08a44.11,44.11,0,0,0-1-4.53,108.81,108.81,0,0,0-11.27-18.8c-1.48-1.76-2.84-3.42-4.06-5l-1.67-2.23a128.34,128.34,0,0,1-24.71-76c0-71.26,58-129.25,129.24-129.25A129.4,129.4,0,0,1,379.21,183.48Zm-24.52,0A104.72,104.72,0,1,0,165.22,245l1.35,1.81c1.06,1.38,2.21,2.81,3.51,4.34l0.44,0.55a132.23,132.23,0,0,1,14.62,24.57l0.61,1.64c0.51,1.76,2.19,7.86,2.19,11.76v17.48c0,7,5.34,12.74,11.88,12.74h46v-62.5l-20.11,10.06a7.49,7.49,0,0,1-3.34.78,7.19,7.19,0,0,1-2.3-.36,6.62,6.62,0,0,1-3.92-3.36,7.12,7.12,0,0,1,3.38-9.38l56-28c3.34-1.67,7.93-.27,9.54,2.91a6.69,6.69,0,0,1,.22,5.5,7.43,7.43,0,0,1-3.61,3.91l-22.15,11.09c0,0.15.08,0.29,0.08,0.45v68.91h40.5c6.54,0,11.88-5.71,11.88-12.74V289.69c0-3.93,1.69-10,2.2-11.78l0.59-1.64A132.66,132.66,0,0,1,329.4,251.7l0.45-.55c1.29-1.53,2.45-3,3.51-4.35l1.38-1.85A103.84,103.84,0,0,0,354.69,183.49Z"/></svg>