<svg id="customer-service" xmlns="http://www.w3.org/2000/svg" viewBox="0 0 500 500"><defs><style>.cls-1{fill:#a6d23e;}</style></defs><title>info</title><path class="cls-1" d="M367.46,332.14c63.95,17.55,79.31,72.26,79.18,101.29H63.94c-0.09-15.85,4.54-46.56,19.19-64.82,12.16-15.05,31.13-28.59,60-36.47,2.4-.67,4.85-1.29,7.08-1.87,36.52-10.11,50.07-16.3,62.81-25.34,5.08-3.61,8.42-7.79,10.15-12.78a0.36,0.36,0,0,1-.18-0.36c0-.58,1.43-1.11.8-1.78C200,268.59,182,226.91,182,193.24c0-47.69,39-86.26,75.88-86.26s74,41.19,74,88.84c0,16.83-5,35.27-13.09,52.15a22.81,22.81,0,0,0-1.2-2.32c-3-5.08-8-8.42-13.49-8.42H279.53c-9.22,0-16.7,9.17-16.7,20.48s7.48,20.48,16.7,20.48h19.77A98.21,98.21,0,0,1,287,290.59c4.72,18.26,19.7,24.94,70.34,38.74C360.6,330.27,363.94,331.2,367.46,332.14ZM353.95,172.45c-2.54-35.71-23.11-60.61-49.65-74l-3.65,7.44c27.74,14.07,42.26,40.79,44.4,66.57h-4.23V221h4.76c-2.32,11.44-10.2,21.2-21.06,27.3a44.72,44.72,0,0,1-4.85,2.4s-0.09,0-.13,0c-0.89.36-1.78,0.67-2.67,1.07a7.83,7.83,0,0,0-1.34.45q-2.07.67-4.28,1.2c-1.16-4.28-4-7.3-7.21-7.3H279.53c-4.23,0-7.79,5.25-7.79,11.58s3.56,11.58,7.79,11.58H304a5.26,5.26,0,0,0,2.81-.8,10.47,10.47,0,0,0,4.23-5.88,0.8,0.8,0,0,0-.45.09,9.48,9.48,0,0,0,.71-1.11,5,5,0,0,1-.27,1c1.65-.36,3.25-0.71,4.85-1.2a45,45,0,0,0,4.72-1.56c17.9-6.77,31.13-21.33,34-38.88a11.06,11.06,0,0,0,10.64-10.78v-27A11.08,11.08,0,0,0,353.95,172.45Zm-43.33,90.27a0.8,0.8,0,0,1,.45-0.09,5,5,0,0,0,.27-1A9.48,9.48,0,0,1,310.62,262.71ZM294.41,94a110.92,110.92,0,0,0-22-5.83,108.92,108.92,0,0,0-16.57-1.38c-45.07-.45-92,26.18-98.37,86a11,11,0,0,0-8.24,10.38v27A11.05,11.05,0,0,0,160.59,221h13.14V172.45h-7.21c6.32-53,48.32-76.73,88.62-76.73h0.71a120,120,0,0,1,15.36,1.07,97,97,0,0,1,20.4,5.12,79.15,79.15,0,0,1,9,4l3.65-7.44A98.23,98.23,0,0,0,294.41,94Z"/></svg>