<svg id="highway-patrol" xmlns="http://www.w3.org/2000/svg" viewBox="0 0 500 500"><defs><style>.cls-1{fill:#a6d23e;}</style></defs><title>info</title><path class="cls-1" d="M359.61,417.26A12.44,12.44,0,0,0,372,429.66h25.49a12.43,12.43,0,0,0,12.4-12.4V391.88h-50.3v25.38Zm-268.1,0a12.43,12.43,0,0,0,12.4,12.4h25.5a12.44,12.44,0,0,0,12.4-12.4V391.88H91.51v25.38ZM403.34,263a20.58,20.58,0,0,0-1.62-41.11H382.46l-11.13-37.1c-5.17-17.22-22.9-30.78-40.88-31.59a23.18,23.18,0,0,0-22.28-29.79H255v29.71h-8.59V123.36H193.26A23.19,23.19,0,0,0,171,153.15c-18,.81-35.71,14.38-40.88,31.59L119,221.84H99.7A20.58,20.58,0,0,0,98.08,263a38.63,38.63,0,0,0-22.27,35v69.21A16.2,16.2,0,0,0,92,383.34h317.4a16.2,16.2,0,0,0,16.2-16.2V297.92A38.61,38.61,0,0,0,403.34,263Zm-260.9-74.51c3.66-12.19,17.5-22.49,30.23-22.49H328.75c12.73,0,26.58,10.3,30.24,22.49l15.93,56.17s-42.76,10.74-124.21,10.74-124.18-10.74-124.18-10.74ZM305.15,311.83v8.59H196.27v-8.59H305.15ZM129.68,332a20.52,20.52,0,1,1,20.51-20.52A20.52,20.52,0,0,1,129.68,332ZM327.29,355H174.13v-8.59H327.29V355ZM371.74,332a20.52,20.52,0,1,1,20.52-20.52A20.52,20.52,0,0,1,371.74,332ZM257.15,70.36H244.27V94.88h12.89V70.36Zm-57.45,0H186.82V94.88H199.7V70.36Zm-38.46,35.11L143.91,88.13l-9.11,9.11,17.34,17.34Zm-19.7,34.68H117V153h24.52V140.16ZM366.62,97.25l-9.11-9.11-17.33,17.34,9.11,9.11ZM359.88,153H384.4V140.16H359.88V153ZM314.61,70.36H301.72V94.88h12.89V70.36Z"/></svg>