<svg id="no-smoking" xmlns="http://www.w3.org/2000/svg" viewBox="0 0 500 500"><defs><style>.cls-1{fill:#a6d23e;}</style></defs><title>info</title><path class="cls-1" d="M378.93,238H92.87V275.6H382.69V238h-3.76Zm0,33.87H205.79V241.73H378.93v30.11ZM385.8,238h3.76V275.6H385.8V238Zm7.53,0h3.76V275.6h-3.76V238Zm7.52,0h3.77V275.6h-3.77V238ZM248.42,38.28c-118.51,0-214.93,96.41-214.93,214.93S129.9,468.14,248.42,468.14s214.92-96.42,214.92-214.93S366.93,38.28,248.42,38.28Zm0,398.25c-101.08,0-183.32-82.24-183.32-183.32a182.48,182.48,0,0,1,43.07-117.89L366.31,393.44A182.42,182.42,0,0,1,248.42,436.53ZM388.66,371.1L130.53,113A182.49,182.49,0,0,1,248.42,69.89c101.08,0,183.32,82.24,183.32,183.32A182.47,182.47,0,0,1,388.66,371.1Z"/></svg>