<svg id="firetruck" xmlns="http://www.w3.org/2000/svg" viewBox="0 0 500 500"><defs><style>.cls-1{fill:#a6d23e;}</style></defs><title>info</title><path class="cls-1" d="M412.49,197.83H396.61V166.08h0a31.85,31.85,0,0,0-31.75-31.75h0V118.45H333.11v15.88H317.23V54.94H301.35V70.82H206.09V54.94H190.21v79.38H174.34V118.45H142.58v15.88h0a31.85,31.85,0,0,0-31.75,31.75v31.75H95c-9.53,0-15.88,6.35-15.88,15.88v47.63c0,9.53,6.35,15.88,15.88,15.88h15.88V356.6H95c-9.53,0-15.88,6.35-15.88,15.88h0c0,9.53,6.35,15.88,15.88,15.88H412.49c9.53,0,15.88-6.35,15.88-15.88h0c0-9.53-6.35-15.88-15.88-15.88H396.61V277.22h15.88c9.53,0,15.88-6.35,15.88-15.88V213.71C428.37,204.18,422,197.83,412.49,197.83ZM380.74,340.72V356.6H333.11V340.72h47.63Zm-174.65-254h95.26v15.88H206.09V86.69Zm0,31.75h95.26v15.88H206.09V118.45Zm-63.51,47.63h95.26v79.38H142.58V166.08ZM174.34,356.6H126.71V340.72h47.63V356.6Zm142.89,0h-127V277.22h127V356.6ZM269.6,245.46V166.08h95.26v79.38H269.6Zm-127,127a31.75,31.75,0,1,1-31.75,31.75A31.75,31.75,0,0,1,142.58,372.48Zm222.28,0a31.75,31.75,0,1,1-31.75,31.75A31.75,31.75,0,0,1,364.86,372.48Zm-254,0h63.51v31.75H110.83V372.48Zm222.28,0h63.51v31.75H333.11V372.48Z"/></svg>