<svg id="tip" xmlns="http://www.w3.org/2000/svg" viewBox="0 0 500 500"><defs><style>.cls-1{fill:#a6d23e;}</style></defs><title>info</title><path class="cls-1" d="M347.73,108.23l-47.91-64L132.22,165.13H199.8Zm45.09,56.89-19.11-51.69L230.26,165.13H392.83Zm10.06-6.31h27.44c7.85,0,12.9,6.12,12.9,13.94v87.6l12.36-6.18-0.12-88c0-7.85-11-20-18.83-20H397.88L402.26,158Zm40.34,202.46v72c7.16-.76,12.58-7.19,12.58-14.54L455.71,355ZM84.78,158.82h36.3l17.6-12.61H97.5l0.29-.1c-30.47,0-39.77.32-39.49,38.22V440.72c0,7.86,7.82,14.54,15.67,14.54H417.71c7.85,0,15.74-6.47,15.74-14.29l0-68.46-1.52.76H400.37a50.46,50.46,0,1,1,0-100.91h31.54l1.48-.76,0-85.91c0-7.85-7.79-14.25-15.64-14.25H97.47a22.83,22.83,0,0,1-3.12-.25H86.58A6.31,6.31,0,0,1,84.78,158.82ZM431.91,285H400.37a37.84,37.84,0,1,0,0,75.68h31.54l23.71-19.9-0.1-75.18ZM381.45,322.8a18.92,18.92,0,1,1,18.92,18.92A18.93,18.93,0,0,1,381.45,322.8Z"/></svg>