<svg id="fed" xmlns="http://www.w3.org/2000/svg" viewBox="0 0 500 500"><defs><style>.cls-1{fill:#a6d23e;}</style></defs><title>info</title><path class="cls-1" d="M351.37,177.17c-2.59-10.11-9-16.46-16.89-16.81L341,145.53a280.44,280.44,0,0,0-176.4.39l5.89,14.44c-7.85.35-14.29,6.7-16.88,16.81s-0.93,20.62.29,26A58.21,58.21,0,0,0,162,223c2.86,4.33,8.61,11.32,16.57,12.62,14.71,31.48,43.21,51.54,73.87,51.54s59.17-20.06,73.87-51.54c8-1.3,13.71-8.29,16.57-12.62a58.28,58.28,0,0,0,8.17-19.86C352.29,197.79,354,187.27,351.37,177.17Zm-15.13,22.64a43.64,43.64,0,0,1-6,14.84c-2.68,4.06-5.41,6-6.59,6h0l-6.62-2-2.61,6.4C305.13,247.73,284,272,252.46,272S199.8,247.73,190.56,225l-2.76-6.37-6.62,2c-1,0-3.76-1.9-6.46-6a43.58,43.58,0,0,1-6-14.84c-1.56-6.88-1.7-13.76-.39-18.87,0.94-3.65,2.43-5.26,2.81-5.43a4.15,4.15,0,0,1,1.83.82l9.82,6.47q0.94-5.81,1.88-11.61,0.18-1.1.38-2.19a146.72,146.72,0,0,0,134.88,0c0.13,0.73.26,1.46,0.38,2.2q0.94,5.8,1.88,11.61l9.82-6.47a4.81,4.81,0,0,1,1.77-.83c0.44,0.18,1.94,1.8,2.87,5.44C337.93,186.06,337.79,192.94,336.24,199.81ZM370,335.71l-56.12-56.12L283.16,433.06H405.93V422.53A122.75,122.75,0,0,0,370,335.71Zm-14,44.1a50.78,50.78,0,0,1-32.59,0c-4.37-1.62-11.11-5-11.11-11s6.73-9.4,11.1-11a50.78,50.78,0,0,1,32.58,0c4.37,1.62,11.11,5,11.11,11S360.31,378.2,355.94,379.81Zm-69-146.7v5.63c-9.68-2.91-19.28-3.78-29.29-3.78-2.43-2.43-4.21-4.67-4.32-8.4-0.1,3.73-1.88,6-4.32,8.4-10,0-19.61.88-29.29,3.78v-5.63a8.4,8.4,0,0,1,6.36-8.15l17.05-4.26a40.33,40.33,0,0,1,20.37,0L280.59,225A8.4,8.4,0,0,1,286.95,233.11ZM321.54,71c9.72,10.85,21.07,17.27,34.24,22.6,3.19,1.29,6.4,2.45,9.66,3.52Q368,98,370.6,98.73l1.32,0.38c0.82,0.24-.59.62-0.91,0.91q-1,.93-2,1.87a110.71,110.71,0,0,0-13.47,15,76.93,76.93,0,0,0-5.74,9c-0.8,1.47-1.53,3-2.21,4.5-0.27.6-.7,0.05-1.06-0.07l-1.21-.4-2.43-.78q-9.81-3.11-19.81-5.52a295.57,295.57,0,0,0-40.81-6.9,292.53,292.53,0,0,0-82.44,3.46,295.86,295.86,0,0,0-40,10.28c-0.69.23-1.3,0.49-1.67-.38-0.29-.7-0.6-1.38-0.92-2.06-0.66-1.4-1.36-2.77-2.12-4.13a78.88,78.88,0,0,0-5.33-8.26,114.54,114.54,0,0,0-15-16.51c19.48-5.57,36.25-12.26,50.46-28.13a9.61,9.61,0,0,1,9.13-3.54c19.41,2,36.34.33,54.16-8.76a9.63,9.63,0,0,1,9.81,0c17.81,9.1,34.75,10.74,54.16,8.76A9.6,9.6,0,0,1,321.54,71ZM242,311.51a29,29,0,0,1-8.11-8,16.92,16.92,0,0,1-2.75-6.45,5.9,5.9,0,0,1,.37-4.26c3.26-5.92,15.79-7.09,20.91-7.09s17.66,1.17,20.91,7.09a5.87,5.87,0,0,1,.37,4.26,17,17,0,0,1-2.75,6.45,28.92,28.92,0,0,1-8.1,8Q273,372.28,283.16,433.06H221.77ZM221.77,433.06H99V422.52a122.78,122.78,0,0,1,36-86.82l56.13-56.12Q206.43,356.32,221.77,433.06Z"/></svg>