<svg id="Camada_1" xmlns="http://www.w3.org/2000/svg" viewBox="0 0 689.4 202.9"><style>.st0{font-family:&amp;apos;ArialMT&amp;apos;;} .st1{font-size:18.487px;} .st2{fill:#232020;} .st3{fill-rule:evenodd;clip-rule:evenodd;fill:#FFFFFF;} .st4{fill:#378C42;} .st5{fill:#066836;} .st6{fill:#F15D25;} .st7{fill:#FEDE01;} .st8{fill:#40823D;} .st9{fill:#FFD209;} .st10{fill:#A4CE39;} .st11{fill:#168DCD;} .st12{fill:#09894B;} .st13{fill:#304B3E;} .st14{fill:#0878BE;} .st15{fill:#EE3226;} .st16{fill:#A7C03A;} .st17{fill:#69BD47;}</style><text transform="translate(486.12 87.04)" class="st0 st1">S</text><text transform="translate(499.1 87.04)" class="st0 st1">E</text><text transform="translate(512.08 87.04)" class="st0 st1">C</text><text transform="translate(526.08 87.04)" class="st0 st1">R</text><text transform="translate(540.082 87.04)" class="st0 st1">E</text><text transform="translate(553.063 87.04)" class="st0 st1">T</text><text transform="translate(563.634 87.04)" class="st0 st1">A</text><text transform="translate(576.615 87.04)" class="st0 st1">R</text><text transform="translate(590.616 87.04)" class="st0 st1">I</text><text transform="translate(596.402 87.04)" class="st0 st1">A</text><text transform="translate(608.04 87.04)" class="st0 st1"></text><text transform="translate(613.5 87.04)" class="st0 st1">D</text><text transform="translate(627.5 87.04)" class="st0 st1">E</text><text transform="translate(486.12 107.692)" class="st0 st1">D</text><text transform="translate(500.12 107.692)" class="st0 st1">E</text><text transform="translate(513.1 107.692)" class="st0 st1">S</text><text transform="translate(526.08 107.692)" class="st0 st1">E</text><text transform="translate(539.062 107.692)" class="st0 st1">N</text><text transform="translate(553.062 107.692)" class="st0 st1">V</text><text transform="translate(566.043 107.692)" class="st0 st1">O</text><text transform="translate(581.073 107.692)" class="st0 st1">L</text><text transform="translate(590.633 107.692)" class="st0 st1">V</text><text transform="translate(603.614 107.692)" class="st0 st1">I</text><text transform="translate(609.4 107.692)" class="st0 st1">M</text><text transform="translate(625.45 107.692)" class="st0 st1">E</text><text transform="translate(638.43 107.692)" class="st0 st1">N</text><text transform="translate(652.43 107.692)" class="st0 st1">T</text><text transform="translate(664.04 107.692)" class="st0 st1">O</text><text transform="translate(486.118 128.344)" class="st0 st1">E</text><text transform="translate(499.098 128.344)" class="st0 st1">C</text><text transform="translate(513.1 128.344)" class="st0 st1">O</text><text transform="translate(528.128 128.344)" class="st0 st1">N</text><text transform="translate(542.13 128.344)" class="st0 st1">Ô</text><text transform="translate(557.16 128.344)" class="st0 st1">M</text><text transform="translate(573.207 128.344)" class="st0 st1">I</text><text transform="translate(578.994 128.344)" class="st0 st1">C</text><text transform="translate(592.995 128.344)" class="st0 st1">O</text><text transform="translate(607.7 128.344)" class="st0 st1">,</text><text transform="translate(618.295 128.344)" class="st0 st1">S</text><text transform="translate(631.276 128.344)" class="st0 st1">O</text><text transform="translate(646.305 128.344)" class="st0 st1">C</text><text transform="translate(660.306 128.344)" class="st0 st1">I</text><text transform="translate(666.092 128.344)" class="st0 st1">A</text><text transform="translate(679.073 128.344)" class="st0 st1">L</text><text transform="translate(485.792 148.996)" class="st0 st1">E</text><text transform="translate(503.582 148.996)" class="st0 st1">D</text><text transform="translate(517.583 148.996)" class="st0 st1">E</text><text transform="translate(530.24 148.996)" class="st0 st1">T</text><text transform="translate(547.31 148.996)" class="st0 st1">U</text><text transform="translate(561.31 148.996)" class="st0 st1">R</text><text transform="translate(575.31 148.996)" class="st0 st1">I</text><text transform="translate(581.096 148.996)" class="st0 st1">S</text><text transform="translate(594.078 148.996)" class="st0 st1">M</text><text transform="translate(610.126 148.996)" class="st0 st1">O</text><path class="st2" d="M475.7 0l-.1 202.7-1.5.2.2-202.7z"/><path class="st3" d="M61.2 56.7l56-4.7-.1.2-.3.6v.2l-.5.6h-.9l-.2.5-.2.6-.2.3-.3.5-.2.3-.2.5-.2.3v.2l-.3.5-.2.5-.2.3-.3.5-.3.8-.2.3-.2.5v.3l-.3.2v.3l-.2.3v.6l-.2.3v.3l-.2.3-.3.2v.3l-.2.3-.2.2.4.2-.3.5v.3l-.3.6-.2.5-.2.3v.3l-.3.3v.3l-.2.2v.5l-.2.2-.2.2v.2l-.2.2v.4h.1v.5l-.2.2V75.5h2.7l-.3.3-.2.3v.2l-.2.2v.5l-.2.2v.2l-.2.2V83.4h5.3l.2-.2v-.3l.3-.3v-.8l.2-.3.3-.3v-.8l.2-.2.2-.3V79l.2-.3.3-.2v-.2l.2-.3h.2v-.3h.2v-.2h.2v-.2l.2-.2v-.5l.2-.2.3-.5v-.3l.5-.5.2-.3.5-.5.3-.3.3-.3.3-.6.3-.3.2-.2.5-.5.3-.2.2-.3.5-.3v-.2l.5-.6.2-.2.2-.5.3-.3.3-.3.5-.6.3-.5.5-.6.5-.5.3-.6.5-.6v-5.3h-1l.4-.6.3-.6.5-.5.3-.5.2-.5.5-.5v-.2l.3-.5.2-.2.3-.3.6-.5.3-.5.6-.8.8-.9.6-.8.3-.6.8-1.1v-.7l3.3-.3V55.9l.2.6.5.8.6.6.5.5.6.5h.2l-.4.3-.8.8-.5.5-.3.3-.6.5-.3.3-.6.5-.3.3-.5.5-.5.2-.3.5-.5.3-.3.2-.2.3-.5.2-.2.2h-.2l-.3.2-.2.2h-.2v.2h-.2l-.3.2-.2.2h-.3l-.3.3-.2.2-.3.3-.5.2-.6.6-.8.6-.5.5-.8.8-.5.5-.5.6-.5.6-.3.2-.3.3-.2.2-.6.5-.3.2V72l-.3.3-.2.3-.2.2-.2.3-.3.3-.2.2v.2l-.3.3v.2h.4v.2l-.2.2v.2l-.2.2v.2l-.2.2v.2h-.2l-.2.2v.2l-.2.2v.2l-.3.3-.2.2-.2.2-.2.2-.3.2h-.5v5.9H124.7l.2-.3.2-.2.3-.2.2-.2.2-.2.2-.2.3-.3v-.2l.2-.2v-.2l.2-.2h.2v-.2l.2-.2v-.2l.2-.2v-.2l.2-.2v-.2h.2v-.2l.3-.3V79l.2-.2.3-.3.2-.3.2-.2.2-.3.3-.3v-.2l.3-.2.6-.5.2-.2.3-.3.3-.2.5-.6.5-.6.5-.5.8-.8.5-.5.8-.6.6-.6.5-.2.3-.3.2-.2.3-.3h.3l.2-.2.3-.2h.2V70h.2l.2-.2.3-.2h.2l.2-.2.5-.2.2-.3.3-.2.5-.3.3-.5.5-.2.5-.5.3-.3.6-.5.3-.3.6-.5.3-.3.5-.5.2-.3.5-.3.2-.3.3-.3.2-.3.5-.5.2-.3.5-.6.5-.6.3-.5.5-.6.5-.8v2.7H149.4l-.1.1-.2.2-.2.2-.2.2-.2.2-.2.2h-.2l-.2.2-.2.2V64.2l-.3.3-.5.5-.3.3-.3.3-.2.2-.2.3h-.9l-.2.2-.2.3h-.2v.3l-.2.2-.2.3-.2.2h-.4l-.2.2v.2h-.3l-.5.3-.2.2h-.2v.2h-.2v.2h-.2v5.3h5.8l.2-.2v-.3l.5-.3h.3V73l.2-.2h.4l.2-.2.2-.3.2-.2v-.3h.2l.2-.3.2-.2h.2l.2-.3.2-.2.3-.3.3-.3.5-.5.3-.3V68.8l.2-.2.2-.2h.2l.2-.2.2-.2.2-.2.2-.2.2-.2.3-.3.2-.2.3-.2.2-.2.3-.3h.3l.3-.2.3-.2.5-.2.5-.2.5-.2.3-.2h.2l.5-.3.3-.2h.2l.3-.3.5-.3v-1.2h1.6v-.2l.3-.3.2-.2.2-.2.2-.5.3-.5.5-.6v-6l-.3-.2h-.6l-.9-.3-1.1-.3-1.4-.6-1.4-.2H147.9l-.2.2-.5.2-.8.5-.9.2-.5.3-.7.3h-.1l-.9-.2-.6-.5-.5-.5-.6-.6-.5-.8V50l21.1-1.8c0 25.1 2.7 47.5 2.6 59.1h.2-1.2l-.2-.2h-.8.2-5.2.2-1.9v5.3h2.7l.2.2H165.5c-.4 2.3-1.1 3.4-2.4 3.1-1.6-.5 9.9 6 0 0-4.3-2.6-38.8-6.4-45.7-1.4-1.9 1.4 3.7 6 9.1 9.9v.1c-13.1-3.5-24.1 1.6-17.1 23.7l-9.1 6.6-57.2 4.4c1.3-30 15.4-70.1 18.1-102.3"/><path class="st4" d="M132.7 25.3l-22.8 54-7.5 23.8 4.1-4.3L139.1 28z"/><path class="st4" d="M144 17.5L139.1 28l25.6 10.5-58.2 60.3-2.7 5.9 39.3-31.3 29.8-26.1 1.3 1.4 5.9-4.7z"/><path class="st5" d="M139.1 28l-32.6 70.8 58.2-60.3z"/><path class="st4" d="M192.7 78l-63.6 20.6-22.8 10.5 51.7.9 27-1.1-.3 1.6 33.8.6z"/><path class="st4" d="M158 110l-51.4 2.1 10.1 2.3 12.5.5-.8 2.3 53.4 12.5 2.9-19.2z"/><path class="st5" d="M185 108.9l-27 1.1 26.7.5z"/><path class="st6" d="M82.2 138.8l-25.5 50.5-7.8-2.9-3.5 4.9 54.6 2.8-4-75zM102.1 118l3.4 11.9 5.6 12 4.3-8.9-.5.3-4.1-6.8z"/><path class="st7" d="M135.8 18l-37.3 2.8-.7 30.6 2.5 50.7 9.6-22.8 17.9-56 4.9 2z"/><path class="st8" d="M127.8 23.3l-17.9 56 22.8-54z"/><path class="st7" d="M59.1 36.7l7.6 13.2 13.2-11.6L90 90.7l6.7 11.5 1.1-50.8L96.3 21l2.2-.2.3-12z"/><path class="st9" d="M98.5 20.8l-2.2.2 1.5 30.4z"/><path class="st7" d="M45.4 54.5l6.7 8.1-6.5 5.7-.2-13.8zm.2 13.8l.6 42.3 5 .2 38.9-2.5-13.7-16.5-30.8-23.5z"/><path class="st7" d="M45.6 68.3l21.1-18.4-14.6 12.7 24.3 29.2 16.3 12.6L90 90.7 66.7 49.9z"/><path class="st9" d="M79.9 38.3L66.7 49.9 90 90.7zM52.1 62.6l-6.5 5.7 30.8 23.5z"/><path class="st10" d="M90 114.2l-18.6 4.3-50.9 17.9-3.8-5.1-5.6 1.2L22 151l47.2-23.9z"/><path class="st11" d="M91.1 116l-21.9 11.1-44.9 27.8L22 151l-15.9 8.1 15.5 16.2 59.5-48.1 10-11.2zm-67.5 61.3l6.8 7.1 3.1-3.5-9.9-3.6z"/><path class="st12" d="M69.2 127.1L22 151l2.3 3.8z"/><path class="st11" d="M92.8 117.7l-11.7 9.4-47.6 53.8 15.4 5.5 33.3-47.6z"/><path class="st13" d="M82.2 138.8l-33.3 47.6 7.8 2.9z"/><path class="st11" d="M21.7 175.2l-1.2 1 3.1 1.1z"/><path class="st14" d="M81.1 127.1l-59.4 48.1 1.9 2.1 9.9 3.6z"/><path class="st6" d="M104.4 116l6.4 10.5 5.3 5.2-.7 1.3 9.5-6.2z"/><path class="st15" d="M110.8 126.5l4.1 6.8.5-.3.7-1.3z"/><path class="st6" d="M100.6 119.2l-2.5 39.2 17.1-7.6-4.1-8.9-1.3 2.7-4.3-14.7z"/><path class="st15" d="M105.5 129.9l4.3 14.7 1.3-2.7z"/><path class="st10" d="M16.7 131.3l54.7-12.8 18.2-6.4-38.5-1.4-4.9.4v-.5L0 108.9z"/><path class="st16" d="M46.2 111.1l4.9-.4-4.9-.1z"/><path class="st17" d="M71.4 118.5l-54.7 12.8 3.8 5.1z"/><path class="st4" d="M105.6 114l19.3 12.8 3.5-9.6-11.7-2.8z"/><path class="st5" d="M116.7 114.4l11.7 2.8.9-2.3z"/><path class="st4" d="M174.2 48.7l-31.1 24.7-37.3 32.8 23.3-7.6 58.6-26.9 5 6.3 6.5-2.1z"/><path class="st5" d="M172.9 47.3l-29.8 26.1 31.1-24.7zM187.7 71.7l-58.6 26.9L192.7 78z"/><path class="st2" d="M240.2 110.9h202.9v1.5H240.2zM248.1 32.3h-5.5v8.5h5.5c2.7 0 4.5-1.4 4.5-4.3 0-2.7-1.9-4.2-4.5-4.2m.1 10.6h-5.7v8.8h-2.3V30.3h8c3.9 0 6.6 2.5 6.6 6.3.1 3.8-2.7 6.3-6.6 6.3zM266.1 32.3h-5.7v7.9h5.7c2.5 0 4.3-1.3 4.3-3.9-.1-2.6-1.8-4-4.3-4m4.3 19.5l-4.9-9.5h-5.2v9.5H258V30.3h8.2c3.7 0 6.4 2.3 6.4 6 0 3.1-1.9 5.2-4.7 5.8l5.1 9.7h-2.6zM276.6 51.8V30.3h13.3v2h-11v7.6h9.4V42h-9.4v7.7h11v2.1zM295.8 32.3v7.9h9.4v2.1h-9.4v9.5h-2.3V30.3h13.3v2zM309.8 51.8V30.3h13.3v2h-11v7.6h9.4V42h-9.4v7.7h11v2.1zM326.7 30.3h2.3v21.5h-2.3zM340.3 32.3v19.5H338V32.3h-6.3v-2h14.8v2zM356.4 51.9c-4.3 0-7.5-3-7.5-7.3V30.3h2.3v14.2c0 3.3 2 5.4 5.2 5.4 3.1 0 5.2-2.1 5.2-5.4V30.3h2.3v14.4c.1 4.3-3.1 7.2-7.5 7.2M376.7 32.3H371v7.9h5.7c2.5 0 4.3-1.3 4.3-3.9 0-2.6-1.8-4-4.3-4m4.3 19.5l-4.9-9.5h-5.2v9.5h-2.3V30.3h8.2c3.7 0 6.4 2.3 6.4 6 0 3.1-1.9 5.2-4.7 5.8l5.1 9.7H381zM393.4 33.6l-4 11.3h8l-4-11.3zm6.3 18.2l-1.7-4.9h-9.4l-1.7 4.9h-2.4l7.9-21.5h1.9l7.9 21.5h-2.5zM421.9 33.9c-1.1-1.2-2.6-1.6-4.2-1.6H413v17.4h4.7c1.6 0 3.1-.4 4.2-1.6 1.4-1.5 1.4-4.1 1.4-7.1s0-5.6-1.4-7.1m1.8 15.6c-1.4 1.6-3.2 2.3-5.6 2.3h-7.4V30.3h7.4c2.4 0 4.2.7 5.6 2.3 1.9 2.1 1.9 5.2 1.9 8.5 0 3.2 0 6.3-1.9 8.4zM429.8 51.8V30.3h13.4v2h-11.1v7.6h9.4V42h-9.4v7.7h11.1v2.1zM252 93.3c-3.7 0-6.3-1.2-8.5-3.3-3.2-3.2-3.2-6.7-3.2-12.8 0-6.1 0-9.6 3.2-12.8 2.2-2.1 4.9-3.4 8.5-3.4 5.9 0 10.5 3.4 11.7 10h-6.3c-.6-2.6-2.2-4.5-5.3-4.5-1.7 0-3.1.6-4 1.7-1.2 1.3-1.6 2.9-1.6 9s.4 7.6 1.6 9c.9 1 2.3 1.7 4 1.7 3.1 0 4.7-1.9 5.4-4.5h6.3c-1.3 6.5-5.9 9.9-11.8 9.9M277.4 70.6l-4 11.6h7.9l-3.9-11.6zm7.4 22.4l-1.9-5.6h-11.3l-1.9 5.6h-6.5l11.6-31.8h4.9L291.3 93h-6.5zM316.1 93V74.5L310 86.6h-4.2l-6.1-12.1V93h-6.2V61.2h6.1l8.3 17.2 8.2-17.2h6.2V93zM339.9 66.8h-5.8v8.7h5.8c2.8 0 4.6-1.7 4.6-4.3 0-2.6-1.8-4.4-4.6-4.4m.3 14.3h-6.1v12h-6.2V61.2h12.3c6.6 0 10.5 4.5 10.5 9.9 0 5.5-3.9 10-10.5 10zM354.1 61.2h6.2V93h-6.2zM384.8 93l-12.6-19.5V93H366V61.2h5.5l12.6 19.5V61.2h6.2V93zM406.6 70.6l-4 11.6h7.9l-3.9-11.6zM414 93l-1.9-5.6h-11.3l-1.9 5.6h-6.5L404 61.2h4.9L420.5 93H414zM431.4 93.3c-4.8 0-8.5-1-11.6-4.2l4-4c2 2 4.7 2.7 7.6 2.7 3.7 0 5.7-1.4 5.7-4 0-1.1-.3-2-1-2.6-.6-.6-1.3-.8-2.9-1.1l-3.8-.6c-2.8-.4-4.7-1.2-6.2-2.6-1.5-1.5-2.3-3.6-2.3-6.2 0-5.7 4.2-9.6 11.1-9.6 4.4 0 7.5 1.1 10.3 3.7l-3.9 3.9c-2-1.9-4.4-2.2-6.5-2.2-3.3 0-4.9 1.8-4.9 4 0 .8.2 1.7.9 2.3.6.6 1.6 1 2.9 1.2l3.8.6c2.9.4 4.7 1.2 6.1 2.5 1.7 1.6 2.5 3.8 2.5 6.7 0 6-5.1 9.5-11.8 9.5M254.6 126.6h2.5v10.8c0 1.9-.2 3.4-.6 4.5-.4 1.1-1.2 2-2.3 2.7-1.1.7-2.6 1-4.4 1-1.8 0-3.2-.3-4.3-.9-1.1-.6-1.9-1.5-2.4-2.6s-.7-2.7-.7-4.7v-10.8h2.5v10.8c0 1.6.2 2.8.5 3.6.3.8.8 1.4 1.6 1.8.7.4 1.6.6 2.7.6 1.8 0 3.1-.4 3.9-1.2.8-.8 1.2-2.4 1.2-4.8v-10.8zM260.1 145.3v-13.6h2.1v1.9c.4-.7 1-1.2 1.7-1.6.7-.4 1.5-.6 2.4-.6 1 0 1.8.2 2.5.6.6.4 1.1 1 1.4 1.8 1.1-1.6 2.5-2.4 4.2-2.4 1.3 0 2.4.4 3.1 1.1.7.7 1.1 1.9 1.1 3.4v9.3h-2.3v-8.6c0-.9-.1-1.6-.2-2-.2-.4-.4-.7-.8-1-.4-.2-.9-.4-1.4-.4-1 0-1.7.3-2.4 1-.6.6-.9 1.6-.9 3v7.9h-2.3v-8.8c0-1-.2-1.8-.6-2.3-.4-.5-1-.8-1.8-.8-.6 0-1.2.2-1.8.5-.6.3-1 .8-1.2 1.5-.2.7-.4 1.6-.4 2.8v7h-2.4zM287.1 145.3v-13.6h2.1v1.9c1-1.5 2.4-2.2 4.3-2.2.8 0 1.6.1 2.3.4.7.3 1.2.7 1.5 1.2.3.5.6 1 .7 1.7.1.4.1 1.2.1 2.2v8.4h-2.3V137c0-.9-.1-1.6-.3-2.1-.2-.5-.5-.8-1-1.1-.5-.3-1-.4-1.6-.4-1 0-1.8.3-2.5.9-.7.6-1.1 1.8-1.1 3.5v7.4h-2.2zM302.6 138.5c0 1.7.4 3 1.1 3.9.8.9 1.7 1.3 2.9 1.3 1.1 0 2.1-.4 2.9-1.3.8-.9 1.1-2.2 1.1-4 0-1.7-.4-3-1.1-3.8-.8-.9-1.7-1.3-2.8-1.3-1.1 0-2.1.4-2.9 1.3-.8.9-1.2 2.2-1.2 3.9m-2.4 0c0-2.5.7-4.4 2.1-5.6 1.2-1 2.6-1.5 4.3-1.5 1.9 0 3.4.6 4.6 1.8 1.2 1.2 1.8 2.9 1.8 5.1 0 1.8-.3 3.1-.8 4.1-.5 1-1.3 1.8-2.3 2.3-1 .6-2.1.8-3.3.8-1.9 0-3.4-.6-4.6-1.8-1.2-1.1-1.8-2.9-1.8-5.2zM318.4 145.3l-5.2-13.6h2.4l2.9 8.1.9 2.7c.2-.7.5-1.6.9-2.6l3-8.3h2.4l-5.1 13.6h-2.2zM328.2 138.5c0 1.7.4 3 1.1 3.9.8.9 1.7 1.3 2.9 1.3 1.1 0 2.1-.4 2.9-1.3.8-.9 1.1-2.2 1.1-4 0-1.7-.4-3-1.1-3.8-.8-.9-1.7-1.3-2.8-1.3-1.1 0-2.1.4-2.9 1.3-.8.9-1.2 2.2-1.2 3.9m-2.4 0c0-2.5.7-4.4 2.1-5.6 1.2-1 2.6-1.5 4.3-1.5 1.9 0 3.4.6 4.6 1.8 1.2 1.2 1.8 2.9 1.8 5.1 0 1.8-.3 3.1-.8 4.1-.5 1-1.3 1.8-2.3 2.3-1 .6-2.1.8-3.3.8-1.9 0-3.4-.6-4.6-1.8-1.2-1.1-1.8-2.9-1.8-5.2zM350 143.3l.3 2c-.6.1-1.2.2-1.7.2-.8 0-1.5-.1-1.9-.4-.5-.3-.8-.6-1-1-.2-.4-.3-1.3-.3-2.7v-7.8h-1.7v-1.8h1.7v-3.4l2.3-1.4v4.7h2.3v1.8h-2.3v7.9c0 .7 0 1.1.1 1.3.1.2.2.3.4.5.2.1.4.2.8.2.3 0 .6-.1 1-.1M353 137.2h7.6c-.1-1.1-.4-2-.9-2.6-.7-.9-1.7-1.3-2.9-1.3-1.1 0-1.9.4-2.7 1.1-.6.7-1 1.6-1.1 2.8m7.6 3.7l2.4.3c-.4 1.4-1.1 2.5-2.1 3.2-1 .8-2.3 1.1-3.9 1.1-2 0-3.6-.6-4.7-1.8-1.2-1.2-1.7-2.9-1.7-5.1 0-2.3.6-4.1 1.8-5.3 1.2-1.3 2.7-1.9 4.6-1.9 1.8 0 3.3.6 4.4 1.9 1.2 1.2 1.7 3 1.7 5.2v.6H353c.1 1.5.5 2.6 1.3 3.4.8.8 1.7 1.2 2.8 1.2.8 0 1.6-.2 2.2-.7.5-.4.9-1.1 1.3-2.1zM365.1 145.3v-13.6h2.1v1.9c.4-.7 1-1.2 1.7-1.6.7-.4 1.5-.6 2.4-.6 1 0 1.8.2 2.5.6.6.4 1.1 1 1.4 1.8 1.1-1.6 2.5-2.4 4.2-2.4 1.3 0 2.4.4 3.1 1.1.7.7 1.1 1.9 1.1 3.4v9.3h-2.3v-8.6c0-.9-.1-1.6-.2-2-.2-.4-.4-.7-.8-1-.4-.2-.9-.4-1.4-.4-1 0-1.7.3-2.4 1-.6.6-.9 1.6-.9 3v7.9h-2.3v-8.8c0-1-.2-1.8-.6-2.3-.4-.5-1-.8-1.8-.8-.6 0-1.2.2-1.8.5-.5.3-1 .8-1.2 1.5-.2.7-.4 1.6-.4 2.8v7h-2.4zM388.3 138.6c0 1.7.4 3 1.1 3.9.7.8 1.6 1.3 2.6 1.3s1.9-.4 2.6-1.3c.7-.9 1.1-2.2 1.1-4 0-1.7-.4-3-1.1-3.9-.7-.9-1.6-1.3-2.5-1.3-1 0-1.9.5-2.6 1.4-.9.8-1.2 2.2-1.2 3.9m-2.1 11.9v-18.8h2.1v1.8c.5-.7 1.1-1.2 1.7-1.6.6-.3 1.4-.5 2.3-.5 1.2 0 2.2.3 3.1.9.9.6 1.6 1.4 2 2.5.5 1.1.7 2.3.7 3.6 0 1.4-.2 2.6-.8 3.8-.5 1.1-1.2 2-2.2 2.6-1 .6-2 .9-3 .9-.8 0-1.5-.2-2.1-.5-.6-.3-1.1-.7-1.5-1.2v6.6h-2.3zM401.5 138.5c0 1.7.4 3 1.1 3.9.8.9 1.7 1.3 2.9 1.3 1.1 0 2.1-.4 2.9-1.3.8-.9 1.1-2.2 1.1-4 0-1.7-.4-3-1.1-3.8-.8-.9-1.7-1.3-2.8-1.3-1.1 0-2.1.4-2.9 1.3-.8.9-1.2 2.2-1.2 3.9m-2.4 0c0-2.5.7-4.4 2.1-5.6 1.2-1 2.6-1.5 4.3-1.5 1.9 0 3.4.6 4.6 1.8 1.2 1.2 1.8 2.9 1.8 5.1 0 1.8-.3 3.1-.8 4.1-.5 1-1.3 1.8-2.3 2.3-1 .6-2.1.8-3.3.8-1.9 0-3.4-.6-4.6-1.8-1.2-1.1-1.8-2.9-1.8-5.2z"/><path d="M244.2 164.3c0 1.7.4 3 1.1 3.9.7.8 1.6 1.3 2.6 1.3s1.9-.4 2.6-1.3c.7-.9 1.1-2.2 1.1-4 0-1.7-.4-3-1.1-3.9-.7-.9-1.6-1.3-2.5-1.3-1 0-1.9.5-2.6 1.4-.9.8-1.2 2.1-1.2 3.9m-2.1 11.9v-18.8h2.1v1.8c.5-.7 1.1-1.2 1.7-1.6.6-.3 1.4-.5 2.3-.5 1.2 0 2.2.3 3.1.9.9.6 1.6 1.4 2 2.5.5 1.1.7 2.3.7 3.6 0 1.4-.2 2.6-.8 3.8-.5 1.1-1.2 2-2.2 2.6-1 .6-2 .9-3 .9-.8 0-1.5-.2-2.1-.5-.6-.3-1.1-.7-1.5-1.2v6.6h-2.3zM265.3 164.1c-.8.3-2.1.6-3.8.9-.9.1-1.6.3-2 .5-.4.2-.7.4-.9.8-.2.3-.3.7-.3 1.1 0 .6.2 1.1.7 1.5.5.4 1.1.6 2 .6.9 0 1.7-.2 2.4-.6.7-.4 1.2-.9 1.5-1.6.2-.5.4-1.3.4-2.3v-.9zm.2 5.2c-.9.7-1.7 1.2-2.5 1.5-.8.3-1.6.4-2.5.4-1.5 0-2.6-.4-3.4-1.1-.8-.7-1.2-1.7-1.2-2.8 0-.7.1-1.3.5-1.8.3-.6.7-1 1.2-1.3.5-.3 1-.6 1.7-.8.5-.1 1.1-.2 2-.3 1.9-.2 3.2-.5 4.1-.8v-.6c0-.9-.2-1.6-.7-2-.6-.5-1.5-.8-2.6-.8s-1.9.2-2.4.6c-.5.4-.9 1.1-1.1 2l-2.2-.3c.2-1 .5-1.7 1-2.3.5-.6 1.1-1.1 2-1.4.9-.3 1.9-.5 3.1-.5 1.2 0 2.1.1 2.8.4.7.3 1.3.6 1.6 1 .3.4.6.9.7 1.6.1.4.1 1.1.1 2.1v3.1c0 2.1 0 3.5.1 4.1.1.6.3 1.1.6 1.6H266c-.3-.4-.4-1-.5-1.6zM271.2 171v-13.6h2.1v2.1c.5-1 1-1.6 1.5-1.9.4-.3.9-.5 1.5-.5.8 0 1.6.2 2.4.7l-.8 2.1c-.6-.3-1.1-.5-1.7-.5-.5 0-1 .2-1.4.5-.4.3-.7.7-.9 1.3-.3.8-.4 1.7-.4 2.7v7.1h-2.3zM288.6 164.1c-.8.3-2.1.6-3.8.9-.9.1-1.6.3-2 .5-.4.2-.7.4-.9.8-.2.3-.3.7-.3 1.1 0 .6.2 1.1.7 1.5.5.4 1.1.6 2 .6.9 0 1.7-.2 2.4-.6.7-.4 1.2-.9 1.5-1.6.2-.5.4-1.3.4-2.3v-.9zm.2 5.2c-.9.7-1.7 1.2-2.5 1.5-.8.3-1.6.4-2.5.4-1.5 0-2.6-.4-3.4-1.1-.8-.7-1.2-1.7-1.2-2.8 0-.7.1-1.3.5-1.8.3-.6.7-1 1.2-1.3.5-.3 1-.6 1.7-.8.4-.1 1.1-.2 2-.3 1.9-.2 3.2-.5 4.1-.8v-.6c0-.9-.2-1.6-.7-2-.6-.5-1.5-.8-2.6-.8s-1.9.2-2.4.6c-.5.4-.9 1.1-1.1 2l-2.2-.3c.2-1 .5-1.7 1-2.3.5-.6 1.1-1.1 2-1.4.9-.3 1.9-.5 3.1-.5 1.2 0 2.1.1 2.8.4.7.3 1.3.6 1.6 1 .3.4.6.9.7 1.6.1.4.1 1.1.1 2.1v3.1c0 2.1 0 3.5.1 4.1.1.6.3 1.1.6 1.6h-2.4c-.3-.4-.4-1-.5-1.6zM300.7 171v-13.6h2.1v1.9c1-1.5 2.4-2.2 4.3-2.2.8 0 1.6.1 2.3.4.7.3 1.2.7 1.5 1.2.3.5.6 1 .7 1.7.1.4.1 1.2.1 2.2v8.4h-2.3v-8.3c0-.9-.1-1.6-.3-2.1-.2-.5-.5-.8-1-1.1-.5-.3-1-.4-1.6-.4-1 0-1.8.3-2.5.9-.7.6-1.1 1.8-1.1 3.5v7.4h-2.2zM316.8 164.2c0 1.7.4 3 1.1 3.9.8.9 1.7 1.3 2.9 1.3 1.1 0 2.1-.4 2.9-1.3.8-.9 1.1-2.2 1.1-4 0-1.7-.4-3-1.1-3.8-.8-.9-1.7-1.3-2.8-1.3-1.1 0-2.1.4-2.9 1.3-.8.8-1.2 2.1-1.2 3.9m-2.4 0c0-2.5.7-4.4 2.1-5.6 1.2-1 2.6-1.5 4.3-1.5 1.9 0 3.4.6 4.6 1.8 1.2 1.2 1.8 2.9 1.8 5.1 0 1.8-.3 3.1-.8 4.1-.5 1-1.3 1.8-2.3 2.3-1 .6-2.1.8-3.3.8-1.9 0-3.4-.6-4.6-1.8-1.2-1.2-1.8-2.9-1.8-5.2zM328.7 166.7l2.3-.4c.1.9.5 1.6 1.1 2.1.6.5 1.4.7 2.5.7s1.8-.2 2.4-.6c.5-.4.8-.9.8-1.5 0-.5-.2-.9-.7-1.2-.3-.2-1.1-.5-2.4-.8-1.7-.4-2.9-.8-3.5-1.1-.7-.3-1.1-.7-1.5-1.3-.3-.6-.5-1.2-.5-1.8 0-.6.1-1.2.4-1.7.3-.5.7-.9 1.1-1.3.4-.3.8-.5 1.5-.7.6-.2 1.3-.3 2-.3 1.1 0 2 .2 2.8.5.8.3 1.4.7 1.8 1.2.4.5.6 1.2.8 2.1l-2.2.3c-.1-.7-.4-1.2-.9-1.6-.5-.4-1.2-.6-2.1-.6-1.1 0-1.8.2-2.3.5-.5.3-.7.8-.7 1.2 0 .3.1.6.3.8.2.2.5.5.9.6.2.1.9.3 2 .6 1.6.4 2.8.8 3.4 1.1.6.3 1.2.7 1.5 1.2.4.5.5 1.2.5 2s-.2 1.5-.7 2.2c-.4.7-1.1 1.2-1.9 1.6-.8.4-1.8.6-2.9.6-1.8 0-3.1-.4-4-1.1-1-.8-1.6-1.9-1.8-3.3M342.1 166.7l2.3-.4c.1.9.5 1.6 1.1 2.1.6.5 1.4.7 2.4.7 1.1 0 1.8-.2 2.4-.6.5-.4.8-.9.8-1.5 0-.5-.2-.9-.7-1.2-.3-.2-1.1-.5-2.4-.8-1.7-.4-2.9-.8-3.5-1.1-.7-.3-1.1-.7-1.5-1.3-.3-.6-.5-1.2-.5-1.8 0-.6.1-1.2.4-1.7.3-.5.7-.9 1.1-1.3.4-.3.8-.5 1.5-.7.6-.2 1.3-.3 2-.3 1.1 0 2 .2 2.8.5.8.3 1.4.7 1.8 1.2.4.5.6 1.2.8 2.1l-2.2.3c-.1-.7-.4-1.2-.9-1.6-.5-.4-1.2-.6-2.1-.6-1.1 0-1.8.2-2.3.5-.5.3-.7.8-.7 1.2 0 .3.1.6.3.8.2.2.5.5.9.6.2.1.9.3 2 .6 1.6.4 2.8.8 3.4 1.1.6.3 1.2.7 1.5 1.2.4.5.5 1.2.5 2s-.2 1.5-.7 2.2c-.5.7-1.1 1.2-1.9 1.6-.8.4-1.8.6-2.9.6-1.8 0-3.1-.4-4-1.1-.9-.8-1.5-1.9-1.7-3.3M364.5 164.1c-.8.3-2.1.6-3.8.9-.9.1-1.6.3-2 .5-.4.2-.7.4-.9.8-.2.3-.3.7-.3 1.1 0 .6.2 1.1.7 1.5.5.4 1.1.6 2 .6.9 0 1.7-.2 2.4-.6.7-.4 1.2-.9 1.5-1.6.2-.5.4-1.3.4-2.3v-.9zm.2 5.2c-.9.7-1.7 1.2-2.5 1.5-.8.3-1.6.4-2.5.4-1.5 0-2.6-.4-3.4-1.1-.8-.7-1.2-1.7-1.2-2.8 0-.7.1-1.3.5-1.8.3-.6.7-1 1.2-1.3.5-.3 1-.6 1.7-.8.5-.1 1.1-.2 2-.3 1.9-.2 3.2-.5 4.1-.8v-.6c0-.9-.2-1.6-.7-2-.6-.5-1.5-.8-2.6-.8s-1.9.2-2.4.6c-.5.4-.9 1.1-1.1 2l-2.2-.3c.2-1 .5-1.7 1-2.3.5-.6 1.1-1.1 2-1.4.9-.3 1.9-.5 3.1-.5 1.2 0 2.1.1 2.8.4.7.3 1.3.6 1.6 1 .3.4.6.9.7 1.6.1.4.1 1.1.1 2.1v3.1c0 2.1 0 3.5.1 4.1.1.6.3 1.1.6 1.6h-2.4c-.3-.4-.5-1-.5-1.6zM383.9 166l2.3.3c-.2 1.6-.9 2.8-1.9 3.7-1 .9-2.3 1.3-3.8 1.3-1.9 0-3.4-.6-4.5-1.8-1.1-1.2-1.7-3-1.7-5.2 0-1.5.2-2.8.7-3.9.5-1.1 1.2-1.9 2.2-2.5 1-.6 2.1-.8 3.2-.8 1.5 0 2.7.4 3.6 1.1.9.7 1.5 1.8 1.8 3.2l-2.2.3c-.2-.9-.6-1.6-1.1-2.1-.5-.5-1.2-.7-2-.7-1.2 0-2.1.4-2.8 1.2-.7.8-1.1 2.1-1.1 3.9 0 1.8.3 3.2 1.1 4 .7.8 1.6 1.2 2.7 1.2.9 0 1.7-.3 2.3-.8.7-.4 1-1.3 1.2-2.4M388.4 171v-13.6h2.3V171h-2.3zm0-16.1v-2.7h2.3v2.7h-2.3zM395.5 164.2c0 1.7.4 3 1.1 3.9.7.9 1.6 1.3 2.6 1.3s1.9-.4 2.6-1.2c.7-.8 1.1-2.1 1.1-3.8 0-1.9-.4-3.2-1.1-4.1-.7-.9-1.6-1.3-2.7-1.3-1 0-1.9.4-2.6 1.3-.7.8-1 2.1-1 3.9m7.3 6.8v-1.7c-.9 1.3-2.1 2-3.8 2-1.1 0-2.1-.3-3-.9-.9-.6-1.6-1.4-2.1-2.5s-.7-2.3-.7-3.7c0-1.4.2-2.6.7-3.7.5-1.1 1.1-2 2-2.5.9-.6 1.9-.9 3-.9.8 0 1.5.2 2.2.5.6.3 1.2.8 1.6 1.3v-6.7h2.3V171h-2.2zM416.7 164.1c-.8.3-2.1.6-3.8.9-.9.1-1.6.3-2 .5-.4.2-.7.4-.9.8-.2.3-.3.7-.3 1.1 0 .6.2 1.1.7 1.5.5.4 1.1.6 2 .6.9 0 1.7-.2 2.4-.6.7-.4 1.2-.9 1.5-1.6.2-.5.4-1.3.4-2.3v-.9zm.2 5.2c-.9.7-1.7 1.2-2.5 1.5-.8.3-1.6.4-2.5.4-1.5 0-2.6-.4-3.4-1.1-.8-.7-1.2-1.7-1.2-2.8 0-.7.1-1.3.5-1.8.3-.6.7-1 1.2-1.3.5-.3 1-.6 1.7-.8.5-.1 1.1-.2 2-.3 1.9-.2 3.2-.5 4.1-.8v-.6c0-.9-.2-1.6-.7-2-.6-.5-1.5-.8-2.6-.8s-1.9.2-2.4.6c-.5.4-.9 1.1-1.1 2l-2.2-.3c.2-1 .5-1.7 1-2.3.5-.6 1.1-1.1 2-1.4.9-.3 1.9-.5 3.1-.5 1.2 0 2.1.1 2.8.4.7.3 1.3.6 1.6 1 .3.4.6.9.7 1.6.1.4.1 1.1.1 2.1v3.1c0 2.1 0 3.5.1 4.1.1.6.3 1.1.6 1.6h-2.4c-.3-.4-.5-1-.5-1.6zM423.6 164.2c0 1.7.4 3 1.1 3.9.7.9 1.6 1.3 2.6 1.3s1.9-.4 2.6-1.2c.7-.8 1.1-2.1 1.1-3.8 0-1.9-.4-3.2-1.1-4.1-.7-.9-1.6-1.3-2.7-1.3-1 0-1.9.4-2.6 1.3-.7.8-1 2.1-1 3.9m7.3 6.8v-1.7c-.9 1.3-2.1 2-3.8 2-1.1 0-2.1-.3-3-.9-.9-.6-1.6-1.4-2.1-2.5s-.7-2.3-.7-3.7c0-1.4.2-2.6.7-3.7.5-1.1 1.1-2 2-2.5.9-.6 1.9-.9 3-.9.8 0 1.5.2 2.2.5.6.3 1.2.8 1.6 1.3v-6.7h2.3V171h-2.2zM438.1 162.9h7.6c-.1-1.1-.4-2-.9-2.6-.7-.9-1.7-1.3-2.9-1.3-1.1 0-1.9.4-2.7 1.1-.6.6-1 1.6-1.1 2.8m7.6 3.7l2.4.3c-.4 1.4-1.1 2.5-2.1 3.2-1 .8-2.3 1.1-3.9 1.1-2 0-3.6-.6-4.7-1.8-1.2-1.2-1.7-2.9-1.7-5.1 0-2.3.6-4.1 1.8-5.3 1.2-1.3 2.7-1.9 4.6-1.9 1.8 0 3.3.6 4.4 1.9 1.2 1.2 1.7 3 1.7 5.2v.6H438c.1 1.5.5 2.6 1.3 3.4.8.8 1.7 1.2 2.8 1.2.8 0 1.6-.2 2.2-.7.5-.4 1-1.1 1.4-2.1z"/></svg>