<svg id="pin-trip" xmlns="http://www.w3.org/2000/svg" viewBox="0 0 500 500"><defs><style>.cls-1{fill:#555;}.cls-2{fill:#fff;}</style></defs><title>i</title><g id="pin-trip-1"><g id="pin"><path class="cls-1" d="M250,0A181.78,181.78,0,0,0,68.17,181.83C68.17,329.57,250,500,250,500S431.83,329.57,431.83,181.83C431.7,81.37,350.33,0,250,0"/></g><circle class="cls-2" cx="250" cy="181.55" r="137.56"/><path class="cls-1" d="M309.88,223.39h-22v35.67H262.25V223.39H187.56V203.15l74.69-108h25.61V201.58h22v21.8Zm-47.63-21.8c0-25.57-.92-51.43,1.12-76.93h-0.89c-6.37,15-17.09,28.44-26.28,41.81L212,201.58h50.21Z"/></g></svg>