<svg id="pin-trip" xmlns="http://www.w3.org/2000/svg" viewBox="0 0 500 500"><defs><style>.cls-1{fill:#555;}.cls-2{fill:#fff;}</style></defs><title>i</title><g id="pin-trip-1"><g id="pin"><path class="cls-1" d="M250,0A181.78,181.78,0,0,0,68.17,181.83C68.17,329.57,250,500,250,500S431.83,329.57,431.83,181.83C431.7,81.37,350.33,0,250,0"/></g><circle class="cls-2" cx="250" cy="181.55" r="137.56"/><path class="cls-1" d="M252.84,93.46c21.17,0,45.61,8.58,49.71,32.12,3.82,22-11.08,38-29.58,47.16,21.86,10.93,41,28.88,34,55.64-6.23,24-31.34,32.85-53.72,32.92-21.62.07-47.06-6.83-54-30-7.86-26.09,8.48-46.74,30.89-57.67-18.14-10.83-32.35-28.66-26.52-51C209.21,101.22,233,93.46,252.84,93.46Zm-30.3,123.22c0,25.56,37.47,32.13,53.66,17,8.75-8.2,9.15-21.89,1.93-31.2-6.88-8.87-17.95-13.39-27.86-17.86C236.6,190.59,222.54,200.1,222.54,216.68Zm30.08-103c-13.7,0-26.47,8.32-24.67,23.4,1.6,13.38,14.46,19.79,25.34,24.9,11.45-5.06,23.66-12.43,24.41-26.31C278.49,121,265.87,113.7,252.62,113.7Z"/></g></svg>