<svg id="pin-trip" xmlns="http://www.w3.org/2000/svg" viewBox="0 0 500 500"><defs><style>.cls-1{fill:#555;}.cls-2{fill:#fff;}</style></defs><title>i</title><g id="pin-trip-1"><g id="pin"><path class="cls-1" d="M250,0A181.78,181.78,0,0,0,68.17,181.83C68.17,329.57,250,500,250,500S431.83,329.57,431.83,181.83C431.7,81.37,350.33,0,250,0"/></g><circle class="cls-2" cx="250" cy="181.55" r="137.56"/><path class="cls-1" d="M312.85,165.35c0,26.56-3.91,57.17-23.73,76.81-18.21,18.05-51.28,24.06-75.67,17.33v-22c17.64,5,40.33,4.45,55.28-7.41,14.48-11.48,18-31.65,18.74-49.06h-1.34c-14.22,21.67-48.38,25.74-68.16,9.07-19.45-16.39-20.78-50.23-9.09-71.43,13.08-23.72,44.47-31.13,68.73-21C304.29,108.74,312.85,138.83,312.85,165.35Zm-57-50.09c-35.27,0-39.32,61.1-3.86,63.75,16.15,1.21,33.84-8.82,34.39-26.4S275.1,115.26,255.82,115.26Z"/></g></svg>