<svg id="pin-trip" xmlns="http://www.w3.org/2000/svg" viewBox="0 0 500 500"><defs><style>.cls-1{fill:#555;}.cls-2{fill:#fff;}</style></defs><title>i</title><g id="pin-trip-1"><g id="pin"><path class="cls-1" d="M250,0A181.78,181.78,0,0,0,68.17,181.83C68.17,329.57,250,500,250,500S431.83,329.57,431.83,181.83C431.7,81.37,350.33,0,250,0"/></g><circle class="cls-2" cx="250" cy="181.55" r="137.56"/><path class="cls-1" d="M304.92,133.15c0,21-14.64,35.47-34.55,39.81v0.89c15.26,1.91,31,8.25,36.9,23.64,5.78,15.14,2,34.69-9.13,46.42-22.8,24.06-70.64,21.65-98.33,8.55V229.09c22,10.89,79,23.34,82.07-14.93,2.47-31.17-35.89-28.57-57.13-28.57V164.24h14.42c19.21,0,42.88-7.32,38.79-31.32-5.16-30.29-48.67-15.27-64.84-4.8l-12.86-18.34C229.09,88.56,304.92,80.6,304.92,133.15Z"/></g></svg>