<svg id="pin-trip" xmlns="http://www.w3.org/2000/svg" viewBox="0 0 500 500"><defs><style>.cls-1{fill:#555;}.cls-2{fill:#fff;}</style></defs><title>i</title><g id="pin-trip-1"><g id="pin"><path class="cls-1" d="M250,0A181.78,181.78,0,0,0,68.17,181.83C68.17,329.57,250,500,250,500S431.83,329.57,431.83,181.83C431.7,81.37,350.33,0,250,0"/></g><circle class="cls-2" cx="250" cy="181.55" r="137.56"/><path class="cls-1" d="M223.85,259.06H197.58c0-44.88-2.73-90.75.89-135.52-9.4,9.81-20.91,18-31.42,26.5l-13.2-16.66,48.08-37.79h21.92V259.06Z"/><path class="cls-1" d="M320.22,259.06H293.94c0-44.88-2.73-90.75.89-135.52-9.4,9.81-20.91,18-31.42,26.5l-13.2-16.66L298.3,95.58h21.92V259.06Z"/></g></svg>