<svg id="pin-about" xmlns="http://www.w3.org/2000/svg" viewBox="0 0 500 500"><defs><style>.cls-1{fill:#f15922;}.cls-2{fill:#fff;}</style></defs><title>i</title><path class="cls-1" d="M250,0A145.42,145.42,0,0,0,104.54,145.46C104.54,263.66,250,400,250,400S395.46,263.66,395.46,145.46C395.36,65.09,330.27,0,250,0"/><path class="cls-2" d="M191.3,118.5h12.51v79.7h18.71V129.91h18.35V198.2h18.71V129.91h18.35V198.2h18.71V118.5h12.14a6.49,6.49,0,0,0,4.47-1.55,5,5,0,0,0,1.73-4,5.19,5.19,0,0,0-2.46-4.47v-0.37h-0.27l-59-30.49v-9c3.47,1.64,8.76,1.83,15.79.73s13.15-.82,18.17,1V50.58c-4.84-1.83-11-2.19-18.17-1s-12.51.91-15.79-.73V47.47c0-1.83-1-2.74-3.1-2.74s-3.1.91-3.1,2.74V77.6l-59,30.49h-0.37v0.37a5.19,5.19,0,0,0-2.74,4.47,5,5,0,0,0,1.92,4,6.46,6.46,0,0,0,4.38,1.55h0Z"/><path class="cls-2" d="M197.51,205.86L185,217.27H315l-12.05-11.41H197.51Z"/></svg>