<svg id="pin-trips" xmlns="http://www.w3.org/2000/svg" viewBox="0 0 500 500"><defs><style>.cls-1{fill:#e9c500;}.cls-2{fill:#fff;}</style></defs><title>i</title><path class="cls-1" d="M351.33,488.63a7.5,7.5,0,0,1-.31-15l2.56-.13c3.74-.21,7.63-0.62,11.56-1.22a7.5,7.5,0,0,1,2.26,14.83c-4.4.67-8.77,1.13-13,1.37l-2.77.14h-0.32Zm-29.88-1.94a7.52,7.52,0,0,1-1.33-.12,122,122,0,0,1-15.52-3.82,7.5,7.5,0,0,1,4.56-14.29,107,107,0,0,0,13.61,3.34A7.5,7.5,0,0,1,321.45,486.69Zm73.85-6.95a7.5,7.5,0,0,1-2.55-14.55c4.51-1.63,8.94-3.48,13.18-5.5a7.5,7.5,0,1,1,6.45,13.54c-4.67,2.22-9.55,4.26-14.52,6.06A7.47,7.47,0,0,1,395.3,479.75ZM280.25,469.61a7.46,7.46,0,0,1-4.52-1.52,83.2,83.2,0,0,1-12.08-11.17A7.5,7.5,0,0,1,274.87,447a68.2,68.2,0,0,0,9.9,9.15A7.5,7.5,0,0,1,280.25,469.61Zm154.33-11.45a7.5,7.5,0,0,1-4.75-13.31,77.77,77.77,0,0,0,9.83-9.49A7.5,7.5,0,1,1,451,445.12a92.87,92.87,0,0,1-11.72,11.34A7.47,7.47,0,0,1,434.57,458.15ZM254.24,433.7a7.5,7.5,0,0,1-7.07-5A96.61,96.61,0,0,1,243.11,413a7.5,7.5,0,1,1,14.78-2.54,81.61,81.61,0,0,0,3.43,13.29A7.51,7.51,0,0,1,254.24,433.7ZM458,421a7.58,7.58,0,0,1-.81,0,7.5,7.5,0,0,1-6.66-8.26l0-.47c0.09-.93.13-1.87,0.13-2.8a27.8,27.8,0,0,0-1.31-8.47,7.5,7.5,0,1,1,14.31-4.5,43.18,43.18,0,0,1,2,13c0,1.4-.07,2.82-0.2,4.23l-0.07.64A7.5,7.5,0,0,1,458,421Zm-18-39.44a7.48,7.48,0,0,1-5.38-2.27c-3.28-3.38-6.8-6.71-10.53-10.24l10.31-10.9c3.68,3.49,7.48,7.08,11,10.69A7.5,7.5,0,0,1,439.93,381.61Zm-31.48-32.13a7.48,7.48,0,0,1-5.91-2.87,86.06,86.06,0,0,1-8.93-13.74A7.5,7.5,0,0,1,406.95,326a71.31,71.31,0,0,0,7.4,11.35A7.5,7.5,0,0,1,408.45,349.48ZM393.66,308h-0.24a7.5,7.5,0,0,1-7.26-7.73,72.69,72.69,0,0,1,2.49-16.49,7.5,7.5,0,1,1,14.49,3.88,57.67,57.67,0,0,0-2,13.08A7.5,7.5,0,0,1,393.66,308ZM408.5,266.2a7.5,7.5,0,0,1-6.26-11.61,154.23,154.23,0,0,1,9.34-12.7,7.5,7.5,0,0,1,11.63,9.47,139.5,139.5,0,0,0-8.43,11.46A7.49,7.49,0,0,1,408.5,266.2ZM438,232.35a7.5,7.5,0,0,1-5.1-13c3.61-3.35,7.49-6.77,11.53-10.16a7.5,7.5,0,0,1,9.65,11.49c-3.85,3.23-7.54,6.49-11,9.67A7.47,7.47,0,0,1,438,232.35Zm35-28.29a7.5,7.5,0,0,1-4.39-13.59q2.54-1.83,5.09-3.62a7.5,7.5,0,0,1,8.62,12.28q-2.48,1.74-4.94,3.51A7.46,7.46,0,0,1,473,204.07Z"/><path class="cls-1" d="M250,0A145.42,145.42,0,0,0,104.54,145.46C104.54,263.66,250,400,250,400S395.46,263.66,395.46,145.46C395.36,65.09,330.27,0,250,0"/><circle class="cls-2" cx="250" cy="137" r="68.14"/></svg>