<svg id="pin-info" xmlns="http://www.w3.org/2000/svg" viewBox="0 0 500 500"><defs><style>.cls-1{fill:#a6ce39;}.cls-2{fill:#fff;}</style></defs><title>i</title><g id="Info"><path class="cls-1" d="M250,5A175,175,0,1,0,425,180,175,175,0,0,0,250,5"/><path class="cls-2" d="M250,323.19A143.19,143.19,0,1,1,393.19,180,143.19,143.19,0,0,1,250,323.19"/><path class="cls-1" d="M273.39,251.78c-26.49,0-4.08-45.92-.87-59.9,3.84-17,3.22-34.28-16.71-39.23-12.38-3.09-45.92.12-45.54,17.95,43.32-15.84,19.31,35.64,14.48,56.44s-0.62,38.12,23.14,40.22c12.5,1.11,39.85-2.35,39.48-18.69a45.14,45.14,0,0,1-14,3.22"/><path class="cls-1" d="M267.45,92.5a22.7,22.7,0,0,0-15.84,5.94,18.66,18.66,0,0,0-6.68,14.48,18.41,18.41,0,0,0,6.68,14.36,24.09,24.09,0,0,0,31.68,0,18.88,18.88,0,0,0,6.56-14.36c0-5.69-2.23-10.4-6.56-14.48a22.91,22.91,0,0,0-15.84-5.94"/></g></svg>