<svg id="pin-trip" xmlns="http://www.w3.org/2000/svg" viewBox="0 0 500 500"><defs><style>.cls-1{fill:#555;}.cls-2{fill:#fff;}</style></defs><title>i</title><g id="pin-trip-1"><g id="pin"><path class="cls-1" d="M250,0A181.78,181.78,0,0,0,68.17,181.83C68.17,329.57,250,500,250,500S431.83,329.57,431.83,181.83C431.7,81.37,350.33,0,250,0"/></g><circle class="cls-2" cx="250" cy="181.55" r="137.56"/><path class="cls-1" d="M193.71,189.39c0-26.67,4.1-57.26,24.05-76.91,18.83-18.54,49.95-22.71,74.9-17.13v21.92c-17.52-5.07-41.11-3.77-55.65,8.33-13.93,11.59-17.2,31.36-17.82,48.48h1.34c13.08-22.54,49-25.11,68-9,19.25,16.27,20.82,49.72,9.37,70.89-13,23.95-44.83,31.2-69.1,21.17C202.05,246.09,193.71,215.93,193.71,189.39Zm57,50.21c34.73,0,39.47-59.69,5-63.6-18.93-2.15-36.9,10.85-35.24,30.86C221.89,223.2,232.94,239.6,250.73,239.6Z"/></g></svg>