<svg id="pin-trip" xmlns="http://www.w3.org/2000/svg" viewBox="0 0 500 500"><defs><style>.cls-1{fill:#555;}.cls-2{fill:#fff;}</style></defs><title>i</title><g id="pin-trip-1"><g id="pin"><path class="cls-1" d="M250,0A181.78,181.78,0,0,0,68.17,181.83C68.17,329.57,250,500,250,500S431.83,329.57,431.83,181.83C431.7,81.37,350.33,0,250,0"/></g><circle class="cls-2" cx="250" cy="181.55" r="137.56"/><path class="cls-1" d="M255.72,157c18.23,0,37,6.22,46.9,22.49,9.53,15.64,8.85,38.58.26,54.5-17.38,32.2-70.6,34.88-99.6,18.51V228.64c23.88,13.56,77.58,20.74,78.9-19,1.16-34.92-39.6-32.91-63.8-27.32l-11.74-6.93,6.26-79.84h85V119H236l-3.69,40.48A137.24,137.24,0,0,1,255.72,157Z"/></g></svg>