<svg id="pin-trip" xmlns="http://www.w3.org/2000/svg" viewBox="0 0 500 500"><defs><style>.cls-1{fill:#555;}.cls-2{fill:#fff;}</style></defs><title>i</title><g id="pin-trip-1"><g id="pin"><path class="cls-1" d="M250,0A181.78,181.78,0,0,0,68.17,181.83C68.17,329.57,250,500,250,500S431.83,329.57,431.83,181.83C431.7,81.37,350.33,0,250,0"/></g><circle class="cls-2" cx="250" cy="181.55" r="137.56"/><path class="cls-1" d="M309.42,259.06H198.61v-19.9c16.94-17,34.15-33.81,50.69-51.23,13.94-14.68,34-34.55,26.7-57-9.24-28.5-47.07-11.17-62.29.8l-14.2-17.33c20.88-17.63,50.33-27.59,77-17.25,25.64,9.94,32.86,38.4,22.63,62.51-8.46,19.93-25.64,34.88-40.9,49.57Q245,222,231.82,234.79v1.12h77.6v23.15Z"/></g></svg>