<svg id="pin-trip" xmlns="http://www.w3.org/2000/svg" viewBox="0 0 500 500"><defs><style>.cls-1{fill:#555;}.cls-2{fill:#fff;}</style></defs><title>i</title><g id="pin-trip-1"><g id="pin"><path class="cls-1" d="M250,0A181.78,181.78,0,0,0,68.17,181.83C68.17,329.57,250,500,250,500S431.83,329.57,431.83,181.83C431.7,81.37,350.33,0,250,0"/></g><circle class="cls-2" cx="250" cy="181.55" r="137.56"/><path class="cls-1" d="M221.41,259.06H195.14c0-44.88-2.73-90.75.89-135.52-9.4,9.81-20.91,18-31.42,26.5l-13.2-16.66L199.5,95.58h21.92V259.06Z"/><path class="cls-1" d="M351.43,177.32c0,27.23-3.14,65-31,78.8-28.15,13.94-60.2.66-71.86-27.55-18.9-45.74-12.89-150.66,60.15-134.21C345.17,102.58,351.43,146.12,351.43,177.32Zm-84.42,0c0,20.21-.48,62.08,28.85,62.06s29.07-41.73,29.07-62.06,0.18-62.26-29.07-62.28S267,157.17,267,177.32Z"/></g></svg>