<?xml version="1.0" encoding="utf-8"?>
<!-- Generator: Adobe Illustrator 19.0.0, SVG Export Plug-In . SVG Version: 6.00 Build 0)  -->
<svg version="1.1" id="Camada_1" xmlns="http://www.w3.org/2000/svg" xmlns:xlink="http://www.w3.org/1999/xlink" x="0px" y="0px"
	 viewBox="0 0 45 45" style="enable-background:new 0 0 45 45;" xml:space="preserve">
<style type="text/css">
	.st0{fill:#FFFFFF;stroke:#FFFFFF;stroke-miterlimit:10;}
	.st1{fill:#FFFFFF;}
</style>
<path class="st0" d="M30.5,18.5c-1.1,0-2,0.9-2,2c0,1.1,0.9,2,2,2c1.1,0,2-0.9,2-2C32.5,19.4,31.6,18.5,30.5,18.5 M36.5,18.5
	c-1.1,0-2,0.9-2,2c0,1.1,0.9,2,2,2c1.1,0,2-0.9,2-2C38.5,19.4,37.6,18.5,36.5,18.5 M38.5,12.5h-2v-10c0-1.1-0.9-2-2-2h-24
	c-1.1,0-2,0.9-2,2v10h-2c-3.3,0-6,2.7-6,6v16c0,3.3,2.7,6,6,6h2v2c0,1.1,0.9,2,2,2h24c1.1,0,2-0.9,2-2v-2h2c3.3,0,6-2.7,6-6v-16
	C44.5,15.2,41.8,12.5,38.5,12.5 M10.5,2.5h24v10h-24V2.5z M34.5,42.5h-24v-12h24V42.5z M42.5,34.5c0,2.2-1.8,4-4,4h-2v-8
	c0-1.1-0.9-2-2-2h-24c-1.1,0-2,0.9-2,2v8h-2c-2.2,0-4-1.8-4-4v-16c0-2.2,1.8-4,4-4h32c2.2,0,4,1.8,4,4V34.5z"/>
<path class="st1" d="M15.6,39.5h14c0.6,0,1-0.4,1-1c0-0.6-0.4-1-1-1h-14c-0.6,0-1,0.4-1,1C14.6,39.1,15.1,39.5,15.6,39.5"/>
<path class="st1" d="M15.6,35.5h10c0.6,0,1-0.4,1-1c0-0.6-0.4-1-1-1h-10c-0.6,0-1,0.4-1,1C14.6,35.1,15.1,35.5,15.6,35.5"/>
</svg>
