<?xml version="1.0" encoding="utf-8"?>
<!-- Generator: Adobe Illustrator 19.2.1, SVG Export Plug-In . SVG Version: 6.00 Build 0)  -->
<svg version="1.1" xmlns="http://www.w3.org/2000/svg" xmlns:xlink="http://www.w3.org/1999/xlink" x="0px" y="0px"
	 viewBox="0 0 283.7 390.1" style="enable-background:new 0 0 283.7 390.1;" xml:space="preserve">
<style type="text/css">
	.st0{display:none;}
	.st1{display:inline;fill:#F15922;}
	.st2{display:inline;}
	.st3{fill:#FFFFFF;}
	.st4{display:inline;fill:#A6CE39;}
	.st5{fill:#64BC46;}
</style>
<g id="sobre" class="st0">
	<path class="st1" d="M141.9,0C63.5,0,0,63.5,0,141.9c0,115.3,141.9,248.3,141.9,248.3s141.9-133,141.9-248.3
		C283.7,63.5,220.2,0,141.9,0"/>
	<g class="st2">
		<path class="st3" d="M77.5,132.5h13.7v87.3h20.5v-74.8h20.1v74.8h20.5v-74.8h20.1v74.8h20.5v-87.3h13.3c2,0,3.7-0.6,4.9-1.7
			c1.3-1.1,1.9-2.6,1.9-4.4c0-2-0.9-3.7-2.7-4.9v-0.4H210l-64.6-33.4v-9.9c3.8,1.8,9.6,2,17.3,0.8c7.7-1.3,14.4-0.9,19.9,1.1V58.1
			c-5.3-2-12-2.4-19.9-1.1c-8,1.3-13.7,1-17.3-0.8v-1.5c0-2-1.1-3-3.4-3c-2.3,0-3.4,1-3.4,3v33l-64.6,33.4h-0.4v0.4
			c-2,1.3-3,2.9-3,4.9c0,1.8,0.7,3.2,2.1,4.4C74.1,132,75.7,132.5,77.5,132.5L77.5,132.5z M77.5,132.5"/>
		<path class="st3" d="M84.3,226l-13.7,12.5h142.4L199.8,226H84.3z M84.3,226"/>
	</g>
</g>
<g id="Info" class="st0">
	<path class="st4" d="M160.3,199.4c-21.4,0-3.3-37.1-0.7-48.4c3.1-13.7,2.6-27.7-13.5-31.7c-10-2.5-37.1,0.1-36.8,14.5
		c35-12.8,15.6,28.8,11.7,45.6c-3.8,16.7-0.5,30.8,18.7,32.5c10.1,0.9,32.2-1.9,31.9-15.1C168,198.3,164.2,199.1,160.3,199.4
		 M155.5,70.7c-5,0-9.3,1.6-12.8,4.8c-3.6,3.2-5.4,7.1-5.4,11.7c0,4.6,1.8,8.4,5.4,11.6c3.6,3.2,7.8,4.8,12.8,4.8
		c5,0,9.3-1.6,12.8-4.8c3.5-3.2,5.3-7.1,5.3-11.6c0-4.6-1.8-8.4-5.3-11.7C164.7,72.3,160.5,70.7,155.5,70.7 M141.4,0
		C63.3,0,0,63.3,0,141.4c0,78.1,63.3,141.4,141.4,141.4s141.4-63.3,141.4-141.4C282.8,63.3,219.5,0,141.4,0 M141.4,257.1
		c-63.9,0-115.7-51.8-115.7-115.7c0-63.9,51.8-115.7,115.7-115.7c63.9,0,115.7,51.8,115.7,115.7
		C257.1,205.3,205.3,257.1,141.4,257.1"/>
</g>
<g id="Layer_3">
	<path class="st5" d="M141.9,0C63.5,0,0,63.5,0,141.9c0,115.3,141.9,248.3,141.9,248.3s141.9-133,141.9-248.3
		C283.7,63.5,220.2,0,141.9,0"/>
	<polygon class="st3" points="141.9,68.4 169.3,123.9 230.5,132.9 186.2,176.1 196.7,237.1 141.9,208.3 87.1,237.1 97.5,176.1 
		53.2,132.9 114.5,123.9 	"/>
</g>
</svg>
