<?xml version="1.0" encoding="utf-8"?>
<!-- Generator: Adobe Illustrator 19.0.0, SVG Export Plug-In . SVG Version: 6.00 Build 0)  -->
<svg version="1.1" id="Modo_de_isolamento" xmlns="http://www.w3.org/2000/svg" xmlns:xlink="http://www.w3.org/1999/xlink" x="0px"
	 y="0px" viewBox="0 0 10.7 16" style="enable-background:new 0 0 10.7 16;" xml:space="preserve">
<style type="text/css">
	.st0{fill:#FFFFFF;}
</style>
<path class="st0" d="M6.6,13.1c-0.3-0.2-0.5-0.4-0.6-0.6C6,12.4,6,7,6,7h4V4H6V0L3.5,0c-0.1,0.8-0.3,1.5-0.6,2
	C2.6,2.6,2.2,3,1.7,3.4C1.2,3.8,0.7,4.1,0,4.3L0,7l2,0v5.2c0,0.7,0.1,1.3,0.2,1.7c0.2,0.4,0.5,0.7,0.9,1.1c0.4,0.3,0.9,0.6,1.5,0.8
	c0.6,0.2,1.2,0.3,2,0.3c0.7,0,1.2-0.1,1.8-0.2c0.6-0.1,1.4-0.4,2.2-0.7l0-2.5c-0.9,0.5-1.9,0.7-2.8,0.7C7.4,13.4,7,13.3,6.6,13.1"/>
</svg>
