<svg id="crowd" xmlns="http://www.w3.org/2000/svg" viewBox="0 0 500 500"><defs><style>.cls-1{fill:#f7c21d;}</style></defs><title>yellow</title><path class="cls-1" d="M75.93,64.42A34.84,34.84,0,1,1,41.09,99.27,34.84,34.84,0,0,1,75.93,64.42ZM151,174.92C130,144.6,76.5,147.93,42.3,151.64v0C3.94,157.06.7,174.9,0.7,174.9-0.56,217.48.26,260,.26,302.69c0,19.78,28.11,19.78,28.11,0V191l8.33-.52c0,91.65,1,162.45,1,254.11a17.19,17.19,0,0,0,17.17,17.3l1,0c9.55,0,18.28-7.71,18.28-17.26V317.8c2.08-14.56,4.16,0,4.16,0,0,48.85-.19,76.91.16,125.75a17.36,17.36,0,0,0,17.37,17.3l0.8,0c9.56,0,18.11-7.71,18.11-17.26,0-91.6.61-162.36,0.15-253.95,3,0.51,6.17,1,9.22,1.38V302.69c0,18.74,27.07,18.74,27.07,0C151.23,260,151.62,217.56,151,174.92Zm64.36-96.48A34.84,34.84,0,1,0,250.19,43.6,34.84,34.84,0,0,0,215.35,78.44ZM325.56,154.1c-21.11-30.31-74.68-27-109-23.27v0c-38.36,5.39-41.79,23.23-41.79,23.23-1.83,42.48-.63,86.15-0.63,127.79,0,19.78,28.11,19.78,28.11,0V170.15l9.37-.52V444.57A17.36,17.36,0,0,0,229,461.87l0.89,0c9.55,0,18.18-7.71,18.18-17.26V297c3.12-14.56,5.21,0,5.21,0,0,48.85.19,97.73-.16,146.57a17.23,17.23,0,0,0,17.21,17.3l1,0c9.56,0,18.35-7.71,18.35-17.26-0.23-91.6,0-183.18-.45-274.77l8.78,1.38V281.87c0,19.78,28.11,19.78,28.11,0C326.13,239.19,327.07,196.63,325.56,154.1Zm63.92-54.83a34.84,34.84,0,1,0,34.84-34.84A34.84,34.84,0,0,0,389.48,99.27ZM500,174.92c-21.86-30.32-74.82-27-109.09-23.27l-0.1,0c-38.36,5.39-41.46,23.23-41.46,23.23-0.72,42.63-.3,85.1-0.3,127.79,0,18.74,27.07,18.74,27.07,0V191l9.37-.52V444.57a17.47,17.47,0,0,0,17.5,17.3l1.34,0c9.55,0,18.64-7.71,18.64-17.26V317.8c2.08-14.56,4.16,0,4.16,0,0,48.86,0,76.89,0,125.75a17.28,17.28,0,0,0,17.27,17.3l0.94,0c9.56,0,18.25-7.71,18.25-17.26-0.15-91.6.27-162.36-.21-253.95l8.76,1.38a0.78,0.78,0,0,0-.22,0V302.69c0,19.78,28.11,19.78,28.11,0V174.92Z"/></svg>