<svg id="wheelchair" xmlns="http://www.w3.org/2000/svg" viewBox="0 0 500 500"><defs><style>.cls-1{fill:#f7c21d;}</style></defs><title>yellow</title><path class="cls-1" d="M446.62,417.95l-30.46,19.45-18.85,12.19-0.07-.12-0.18.12L302,300.67H149.28V112.92a55.31,55.31,0,1,1,58.81,0V165.8H349.24v58.8H208.07v17.26H334.23L414.86,368.2l32.36-20.94,30.85,50.06-31.57,20.43Zm-261,22.24a112.25,112.25,0,0,1-55.9-209.64V176.47a161.35,161.35,0,1,0,205.83,211l-37.62-59A112.45,112.45,0,0,1,185.6,440.18Z"/></svg>