<svg id="walking" xmlns="http://www.w3.org/2000/svg" viewBox="0 0 500 500"><defs><style>.cls-1{fill:#f7c21d;}</style></defs><title>yellow</title><path class="cls-1" d="M238.21,66a47.24,47.24,0,1,1,47.24,47.24A47.24,47.24,0,0,1,238.21,66Zm52.12,141.29,8.43,18.17c9.09,24.23,27.24,41.6,54.81,51.92l42.51,14.16L411,246.73l-41.7-13.89c-13.77-5.16-22.12-12.78-27-25.57L328.91,178.4c-13.59-37.33-54.11-57.93-94.82-47.7l-49.59,14.17c-21.34,6.08-38,18.5-50.94,37.93l-33.09,49.62,39.3,26.2L172.84,209c6.74-10.13,14.09-15.72,24.61-18.72l24.83-7.1-17.14,78.87c-4.72,16.53,2.36,33.07,11.81,44.88l67.46,73.41,3.4,4.18L323.24,481h49.6c-9.45-23-33.07-82.31-42.52-110.65l-55.06-79.56-1.63-7.56Zm-115.89,179L103.58,481H157.9l54.33-64.7,18.9-59.88L195.7,313.77Z"/></svg>