<svg id="car" xmlns="http://www.w3.org/2000/svg" viewBox="0 0 500 500"><defs><style>.cls-1{fill:#f7c21d;}</style></defs><title>yellow</title><path class="cls-1" d="M454.63,182.48l-41-105.83C406,56.38,389.23,39.14,357.53,39H142.14c-31.55.14-48.3,17.38-56.11,37.64L45,182.48C28.76,184.58,0,203.7,0,239.93V374.69H40v43c-0.1,53,74.94,52.4,74.92,0v-43H384.74v43c0.16,52.4,75.21,53,75.26,0v-43h40V239.93C499.87,203.7,471,184.58,454.63,182.48Zm-376,110.89c-19.17.06-34.69-15.93-34.61-35.6C43.95,238,59.47,222,78.64,222.13c19.11-.17,34.63,15.84,34.6,35.64S97.74,293.42,78.64,293.37ZM250,181.48H87.71l30.91-83.34c3.73-11.83,9.52-20.29,23.19-20.5H358.2c13.47,0.2,19.27,8.67,23.18,20.5l30.91,83.34H250ZM421.37,293.37c-19.3.06-34.84-15.93-34.94-35.6,0.11-19.8,15.63-35.8,34.94-35.64,19-.17,34.49,15.84,34.61,35.64C455.86,277.43,440.35,293.42,421.37,293.37Z"/></svg>