<svg id="heart" xmlns="http://www.w3.org/2000/svg" viewBox="0 0 500 500"><defs><style>.cls-1{fill:#f7c21d;}</style></defs><title>yellow</title><path class="cls-1" d="M28.26,228.88C19.32,209.1,12.38,187.67,12.38,166A127.86,127.86,0,0,1,140.24,38.13c46.22,0,86.34,24.76,109.76,61.32,23.41-36.56,63.54-61.32,109.76-61.32A127.86,127.86,0,0,1,487.62,166c0,21.69-6.93,43.11-15.88,62.89H324.27l-46.15,94.36L219.72,132.08l-43.49,96.8h-148Zm305.88,15.84L274.68,366.17l-57.76-189-30.43,67.58H35.81C63.12,295.79,108,339.24,149.73,378A1251,1251,0,0,0,250,461.87,1253.2,1253.2,0,0,0,350.27,378c41.75-38.72,86.61-82.17,113.92-133.24H334.14Z"/></svg>