<svg id="bathroom" xmlns="http://www.w3.org/2000/svg" viewBox="0 0 500 500"><defs><style>.cls-1{fill:#f7c21d;}</style></defs><title>yellow</title><path class="cls-1" d="M102.54,24.37A34.32,34.32,0,1,1,68.23,58.68,34.32,34.32,0,0,1,102.54,24.37Zm46.34,82.86H56.45C38.23,107.22,20,120.41,20,137.72v128.5a15,15,0,0,0,30,0h0v-107h0a3.24,3.24,0,0,1,6.49,0V453.12s0,0,0,.05a21.53,21.53,0,0,0,43.07,0h0V283.61h0c0-.05,0-0.1,0-0.16a3.26,3.26,0,0,1,6.52,0c0,0.07,0,.11,0,0.16h0V453.08s0,0.08,0,.1a21.53,21.53,0,0,0,43.06,0h0v-294h0a3.25,3.25,0,0,1,6.51.09c0,0.05,0,.09,0,0.14v106.8h0a15,15,0,0,0,30,0h0V139.84C185.67,121.51,167.86,107.22,148.88,107.22ZM397.49,93.43A34.53,34.53,0,1,0,363,58.9,34.54,34.54,0,0,0,397.49,93.43ZM500,267.73L476.43,140.56c0-17.79-17.92-32.82-37-32.82h-83.6c-18.33,0-33.26,15-36.67,35.4L295.59,267.73c-1.48,8.31,6.75,15.08,15.08,15.08s13.28-5.1,15.11-15.09L344.62,160h0a3.27,3.27,0,0,1,6.54,0v0.09l-0.07.4-28.2,180.72h33.81V455.86a18.84,18.84,0,1,0,37.68,0V341.25H401V455.76s0,0.07,0,.1a18.85,18.85,0,1,0,37.69,0h0V341.25h34l-28.25-181V160h0a3.28,3.28,0,0,1,6.55.08s0,0,0,0l18.57,106.19a11.62,11.62,0,0,0,.07,1.38c1.83,10,6.77,15.09,15.11,15.09s16.55-6.76,15.08-15.07H500ZM232.58,480.08h28.14V19H232.58V480.08Z"/></svg>