<svg id="wifi" xmlns="http://www.w3.org/2000/svg" viewBox="0 0 500 500"><defs><style>.cls-1{fill:#f7c21d;}</style></defs><title>yellow</title><path class="cls-1" d="M247.5,319.67a63.15,63.15,0,1,1-63.15,63.15A63.15,63.15,0,0,1,247.5,319.67Zm251.94-119.3c-0.54-.75-1.12-1.48-1.67-2.22C441.62,122.27,351.63,73,250,73h0C148.37,73,58.38,122.27,2.24,198.15c-0.54.75-1.12,1.48-1.67,2.22a6.09,6.09,0,0,0,.48,6l1.7,1.85,37.3,40.7a6.42,6.42,0,0,0,2.88,3.14,6.33,6.33,0,0,0,3.19.95,6.58,6.58,0,0,0,4.47-1.8l1.31-1.81C95.68,190.07,168,151.13,250,151.13s154.32,38.93,198.08,98.26c0.44,0.6.88,1.2,1.31,1.81a6.58,6.58,0,0,0,4.47,1.8,6.31,6.31,0,0,0,3.19-.95,6.46,6.46,0,0,0,2.88-3.14l37.31-40.7,1.7-1.85A6.13,6.13,0,0,0,499.44,200.37ZM412.1,280.46C377,236.82,317.72,208,250.24,208S123.48,236.81,88.37,280.46c-0.86,1.07-1.72,2.14-2.56,3.24a6.27,6.27,0,0,0-.43,2.12,6.41,6.41,0,0,0,3.53,5.73L124.73,330l1,1.07a6.44,6.44,0,0,0,4.15,1.58,6.37,6.37,0,0,0,2.79-.69,4.42,4.42,0,0,0,.73-0.49,6.55,6.55,0,0,0,1.43-1.21c0.09-.11.24-0.17,0.33-0.27,19-23.84,62-51.28,115.09-51.28s96.12,27.44,115.08,51.28c0.08,0.11.24,0.17,0.33,0.27a6.76,6.76,0,0,0,1.43,1.21,4.83,4.83,0,0,0,.73.49,6.15,6.15,0,0,0,6.94-.9l1-1.07,35.81-38.41a6.41,6.41,0,0,0,3.53-5.73,6.32,6.32,0,0,0-.43-2.12C413.82,282.59,413,281.53,412.1,280.46Z"/></svg>