<svg id="clock" xmlns="http://www.w3.org/2000/svg" viewBox="0 0 500 500"><defs><style>.cls-1{fill:#f7c21d;}</style></defs><title>yellow</title><path class="cls-1" d="M250,24.64C125.54,24.64,24.64,125.56,24.64,250S125.54,475.36,250,475.36,475.36,374.46,475.36,250,374.46,24.64,250,24.64Zm0,398.85A173.49,173.49,0,1,1,423.49,250,173.49,173.49,0,0,1,250,423.49ZM351.24,237H301.12A52,52,0,0,0,263,198.88V109.55a13,13,0,1,0-26,0v89.33A52.81,52.81,0,1,0,301.12,263h50.12A13,13,0,1,0,351.24,237ZM250,263.15A13.15,13.15,0,1,1,263.15,250,13.16,13.16,0,0,1,250,263.15Z"/></svg>