<?xml version="1.0" encoding="UTF-8"?>
<svg width="500px" height="500px" viewBox="0 0 500 500" version="1.1" xmlns="http://www.w3.org/2000/svg" xmlns:xlink="http://www.w3.org/1999/xlink">
    <!-- Generator: Sketch 3.8.3 (29802) - http://www.bohemiancoding.com/sketch -->
    <title>altitude</title>
    <desc>Created with Sketch.</desc>
    <defs></defs>
    <g id="Icons" stroke="none" stroke-width="1" fill="none" fill-rule="evenodd">
        <g id="altitude" fill="#F15922">
            <path d="M361.402,176.29 C321.804,147.29 293.36,175.18 300.611,156.77 C300.611,156.77 318.458,117.18 333.516,117.18 C348.575,117.18 356.383,132.23 363.633,146.18 C374.787,168.49 384.826,193.58 361.402,176.29 L361.402,176.29 Z M155.046,262.74 C141.103,259.95 87.562,278.36 97.601,261.07 C97.601,261.07 124.929,213.1 139.988,213.1 C155.046,213.1 165.643,229.84 177.912,249.91 C186.278,262.74 168.989,265.53 155.046,262.74 L155.046,262.74 Z M495.812,391.57 C495.812,391.02 472.388,342.49 435.021,266.64 C423.309,242.66 412.712,219.8 403.789,200.28 C375.345,138.37 357.498,101 335.747,101 C308.419,101 286.11,154.54 263.801,205.85 C248.743,240.99 230.338,284.49 218.068,285.05 C214.722,285.61 211.376,280.59 208.587,276.68 C177.355,222.03 160.065,202.51 143.334,201.39 C131.064,200.28 119.91,210.31 108.198,225.37 C79.196,261.07 7.25,386 4.462,391.02 L0,398.82 L499.159,398.82 L495.812,391.57 L495.812,391.57 Z" id="Fill-70"></path>
        </g>
    </g>
</svg>