<?xml version="1.0" encoding="UTF-8"?>
<svg width="500px" height="500px" viewBox="0 0 500 500" version="1.1" xmlns="http://www.w3.org/2000/svg" xmlns:xlink="http://www.w3.org/1999/xlink">
    <!-- Generator: Sketch 3.8.3 (29802) - http://www.bohemiancoding.com/sketch -->
    <title>area-white</title>
    <desc>Created with Sketch.</desc>
    <defs></defs>
    <g id="Icons" stroke="none" stroke-width="1" fill="none" fill-rule="evenodd">
        <g id="area-white" fill="#FFFFFF">
            <path d="M374.978129,129.73 L374.978129,171.06 C374.978129,174.86 371.781129,177.95 367.978129,177.95 C364.175129,177.95 360.978129,174.86 360.978129,171.06 L360.978129,146.36 L150.628129,356.98 L175.331129,356.98 C179.134129,356.98 182.220129,360.17 182.220129,363.98 C182.220129,367.78 179.134129,370.98 175.331129,370.98 L133.998129,370.98 C133.771129,370.98 133.544129,370.9 133.318129,370.87 C133.215129,370.86 133.115129,370.78 133.014129,370.76 C132.893129,370.751 132.771129,370.73 132.651129,370.71 C132.539129,370.68 132.431129,370.65 132.321129,370.63 C132.212129,370.6 132.101129,370.58 131.993129,370.54 C131.896129,370.51 131.802129,370.48 131.707129,370.44 C131.587129,370.4 131.464129,370.36 131.346129,370.31 C131.279129,370.28 131.210129,370.25 131.144129,370.22 C131.000129,370.15 130.849129,370.09 130.710129,370.01 C130.685129,370.001 130.645129,369.99 130.620129,369.97 C130.072129,369.67 129.521129,369.29 129.055129,368.83 C127.693129,367.47 126.978129,365.67 126.978129,363.89 L126.978129,322.62 C126.978129,318.82 130.175129,315.73 133.978129,315.73 C137.781129,315.73 140.978129,318.82 140.978129,322.62 L140.978129,347.32 L351.592129,136.98 L326.888129,136.98 C323.086129,136.98 319.999129,133.78 319.999129,129.98 C319.999129,126.17 323.086129,122.98 326.888129,122.98 L368.222129,122.98 C372.025129,122.98 374.978129,125.92 374.978129,129.73 L374.978129,129.73 Z M303.283129,426.67 C297.996129,426.67 293.705129,430.97 293.705129,436.3 C293.705129,441.62 297.996129,445.93 303.283129,445.93 L335.210129,445.93 C340.503129,445.93 344.788129,441.62 344.788129,436.3 C344.788129,430.97 340.503129,426.67 335.210129,426.67 L303.283129,426.67 L303.283129,426.67 Z M239.429129,426.67 C234.136129,426.67 229.851129,430.97 229.851129,436.3 C229.851129,441.62 234.136129,445.93 239.429129,445.93 L271.356129,445.93 C276.643129,445.93 280.934129,441.62 280.934129,436.3 C280.934129,430.97 276.643129,426.67 271.356129,426.67 L239.429129,426.67 L239.429129,426.67 Z M175.575129,426.67 C170.288129,426.67 165.997129,430.97 165.997129,436.3 C165.997129,441.62 170.288129,445.93 175.575129,445.93 L207.502129,445.93 C212.796129,445.93 217.080129,441.62 217.080129,436.3 C217.080129,430.97 212.796129,426.67 207.502129,426.67 L175.575129,426.67 L175.575129,426.67 Z M110.125129,426.67 C105.686129,427.33 102.384129,431.041 102.143129,435.7 C101.869129,441.01 105.842129,445.65 111.123129,445.93 C112.202129,445.98 113.230129,445.93 114.316129,445.93 L143.648129,445.93 C148.936129,445.93 153.227129,441.62 153.227129,436.3 C153.227129,430.97 148.936129,426.67 143.648129,426.67 L114.316129,426.67 C113.569129,426.67 112.861129,426.71 112.121129,426.67 C111.452129,426.63 110.759129,426.57 110.125129,426.67 L110.125129,426.67 Z M397.667129,424.06 C397.036129,424.13 396.298129,424.25 395.672129,424.46 C391.464129,425.86 386.997129,426.67 382.502129,426.67 L367.137129,426.67 C361.843129,426.67 357.559129,430.97 357.559129,436.3 C357.559129,441.62 361.843129,445.93 367.137129,445.93 L382.502129,445.93 C389.059129,445.93 395.496129,444.98 401.658129,442.92 C406.678129,441.24 409.518129,435.73 407.848129,430.68 C406.388129,426.26 402.087129,423.52 397.667129,424.06 L397.667129,424.06 Z M64.4301291,388.94 C63.7951291,388.98 63.2711291,388.96 62.6341291,389.14 C57.5321291,390.541 54.4451291,395.85 55.8491291,400.98 C59.2271291,413.4 66.4161291,424.37 76.4021291,432.49 C78.1781291,433.92 80.2751291,434.49 82.3891291,434.49 C85.1791291,434.49 87.8821291,433.24 89.7721291,430.88 C93.0921291,426.74 92.4941291,420.77 88.3751291,417.43 C81.5301291,411.87 76.7181291,404.45 74.4071291,395.96 C73.1831291,391.47 68.8721291,388.64 64.4301291,388.94 L64.4301291,388.94 Z M433.588129,375.29 C428.298129,375.29 424.008129,379.6 424.008129,384.92 C424.008129,393.76 421.348129,402.27 416.228129,409.411 C413.118129,413.72 414.128129,419.73 418.418129,422.85 C420.108129,424.08 422.058129,424.66 424.008129,424.66 C426.968129,424.66 429.918129,423.251 431.788129,420.65 C439.288129,410.19 443.158129,397.84 443.158129,384.92 C443.158129,379.6 438.868129,375.29 433.588129,375.29 L433.588129,375.29 Z M66.0261291,324.72 C60.7391291,324.72 56.4481291,329.02 56.4481291,334.35 L56.4481291,366.46 C56.4481291,371.78 60.7391291,376.09 66.0261291,376.09 C71.3131291,376.09 75.6041291,371.78 75.6041291,366.46 L75.6041291,334.35 C75.6041291,329.02 71.3131291,324.72 66.0261291,324.72 L66.0261291,324.72 Z M436.378129,321.91 C431.088129,321.91 426.798129,326.22 426.798129,331.54 L426.798129,363.85 C426.798129,369.18 431.088129,373.48 436.378129,373.48 C441.668129,373.48 445.958129,369.18 445.958129,363.85 L445.958129,331.54 C445.958129,326.22 441.668129,321.91 436.378129,321.91 L436.378129,321.91 Z M66.0261291,260.5 C60.7391291,260.5 56.4481291,264.81 56.4481291,270.13 L56.4481291,302.24 C56.4481291,307.57 60.7391291,311.87 66.0261291,311.87 C71.3131291,311.87 75.6041291,307.57 75.6041291,302.24 L75.6041291,270.13 C75.6041291,264.81 71.3131291,260.5 66.0261291,260.5 L66.0261291,260.5 Z M436.378129,257.69 C431.088129,257.69 426.798129,262.01 426.798129,267.32 L426.798129,299.43 C426.798129,304.76 431.088129,309.07 436.378129,309.07 C441.668129,309.07 445.958129,304.76 445.958129,299.43 L445.958129,267.32 C445.958129,262.01 441.668129,257.69 436.378129,257.69 L436.378129,257.69 Z M66.0261291,196.28 C60.7391291,196.28 56.4481291,200.59 56.4481291,205.91 L56.4481291,238.02 C56.4481291,243.35 60.7391291,247.66 66.0261291,247.66 C71.3131291,247.66 75.6041291,243.35 75.6041291,238.02 L75.6041291,205.91 C75.6041291,200.59 71.3131291,196.28 66.0261291,196.28 L66.0261291,196.28 Z M436.378129,193.47 C431.088129,193.47 426.798129,197.791 426.798129,203.1 L426.798129,235.21 C426.798129,240.541 431.088129,244.85 436.378129,244.85 C441.668129,244.85 445.958129,240.541 445.958129,235.21 L445.958129,203.1 C445.958129,197.791 441.668129,193.47 436.378129,193.47 L436.378129,193.47 Z M66.0261291,131.86 C60.7391291,131.86 56.4481291,136.17 56.4481291,141.49 L56.4481291,173.8 C56.4481291,179.13 60.7391291,183.44 66.0261291,183.44 C71.3131291,183.44 75.6041291,179.13 75.6041291,173.8 L75.6041291,141.49 C75.6041291,136.17 71.3131291,131.86 66.0261291,131.86 L66.0261291,131.86 Z M436.378129,129.25 C431.088129,129.25 426.798129,133.56 426.798129,138.89 L426.798129,171 C426.798129,176.32 431.088129,180.63 436.378129,180.63 C441.668129,180.63 445.958129,176.32 445.958129,171 L445.958129,138.89 C445.958129,133.56 441.668129,129.25 436.378129,129.25 L436.378129,129.25 Z M75.8041291,71.05 C73.3571291,71.19 70.9881291,72.28 69.2191291,74.27 C60.6371291,83.88 55.4071291,95.57 54.0541291,108.38 C53.4921291,113.67 57.3721291,118.45 62.6341291,119.02 C62.9791291,119.06 63.2931291,119.02 63.6321291,119.02 C68.4651291,119.02 72.4931291,115.54 73.0101291,110.59 C73.9421291,101.84 77.7111291,93.69 83.5861291,87.11 C87.1231291,83.15 86.7281291,77.02 82.7881291,73.46 C80.8211291,71.68 78.2511291,70.92 75.8041291,71.05 L75.8041291,71.05 Z M418.618129,69.05 C416.168129,69.05 413.708129,69.98 411.838129,71.86 C408.088129,75.62 408.088129,81.74 411.838129,85.5 C418.058129,91.77 422.218129,99.5 423.608129,108.18 C424.368129,112.93 428.368129,116.41 432.988129,116.41 C433.488129,116.41 434.068129,116.29 434.578129,116.21 C439.798129,115.37 443.198129,110.42 442.368129,105.17 C440.338129,92.45 434.488129,81 425.408129,71.86 C423.528129,69.97 421.068129,69.05 418.618129,69.05 L418.618129,69.05 Z M358.956129,54 C353.669129,54 349.378129,58.3 349.378129,63.63 C349.378129,68.95 353.669129,73.26 358.956129,73.26 L382.502129,73.26 C384.737129,73.26 387.102129,73.3 389.286129,73.66 C389.803129,73.74 390.179129,73.86 390.683129,73.86 C395.306129,73.86 399.501129,70.57 400.261129,65.84 C401.098129,60.58 397.496129,55.64 392.279129,54.8 C389.087129,54.28 385.746129,54 382.502129,54 L358.956129,54 L358.956129,54 Z M295.102129,54 C289.815129,54 285.524129,58.3 285.524129,63.63 C285.524129,68.95 289.815129,73.26 295.102129,73.26 L327.029129,73.26 C332.316129,73.26 336.607129,68.95 336.607129,63.63 C336.607129,58.3 332.316129,54 327.029129,54 L295.102129,54 L295.102129,54 Z M231.248129,54 C225.961129,54 221.670129,58.3 221.670129,63.63 C221.670129,68.95 225.961129,73.26 231.248129,73.26 L263.175129,73.26 C268.462129,73.26 272.753129,68.95 272.753129,63.63 C272.753129,58.3 268.462129,54 263.175129,54 L231.248129,54 L231.248129,54 Z M167.394129,54 C162.107129,54 157.816129,58.3 157.816129,63.63 C157.816129,68.95 162.107129,73.26 167.394129,73.26 L199.321129,73.26 C204.608129,73.26 208.899129,68.95 208.899129,63.63 C208.899129,58.3 204.608129,54 199.321129,54 L167.394129,54 L167.394129,54 Z M114.316129,54 C109.980129,54 105.753129,54.48 101.545129,55.4 C96.3731291,56.53 93.0381291,61.64 94.1621291,66.84 C95.1321291,71.36 99.1281291,74.47 103.540129,74.47 C104.211129,74.47 104.852129,74.21 105.536129,74.07 C108.416129,73.44 111.334129,73.26 114.316129,73.26 L135.467129,73.26 C140.754129,73.26 145.045129,68.95 145.045129,63.63 C145.045129,58.3 140.754129,54 135.467129,54 L114.316129,54 L114.316129,54 Z" id="Fill-71"></path>
        </g>
    </g>
</svg>