<?xml version="1.0" encoding="UTF-8"?>
<svg width="500px" height="500px" viewBox="0 0 500 500" version="1.1" xmlns="http://www.w3.org/2000/svg" xmlns:xlink="http://www.w3.org/1999/xlink">
    <!-- Generator: Sketch 3.8.3 (29802) - http://www.bohemiancoding.com/sketch -->
    <title>car</title>
    <desc>Created with Sketch.</desc>
    <defs></defs>
    <g id="Icons" stroke="none" stroke-width="1" fill="none" fill-rule="evenodd">
        <g id="car" fill="#F0BD2E">
            <path d="M421.370065,295.37 C402.065065,295.425 386.535065,279.435 386.430065,259.77 C386.535065,239.97 402.065065,223.965 421.370065,224.13 C440.340065,223.965 455.860065,239.97 455.980065,259.77 C455.860065,279.435 440.340065,295.42 421.370065,295.37 L421.370065,295.37 Z M250.000065,183.485 L87.705065,183.485 L118.615065,100.145 C122.345065,88.315 128.135065,79.85 141.810065,79.645 L358.200065,79.645 C371.665065,79.85 377.470065,88.31 381.380065,100.145 L412.290065,183.485 L250.000065,183.485 L250.000065,183.485 Z M78.635065,295.37 C59.465065,295.425 43.945065,279.435 44.025065,259.77 C43.945065,239.97 59.465065,223.965 78.635065,224.13 C97.745065,223.965 113.265065,239.97 113.240065,259.77 C113.265065,279.435 97.740065,295.42 78.635065,295.37 L78.635065,295.37 Z M454.630065,184.48 L413.640065,78.645 C405.970065,58.385 389.225065,41.145 357.525065,41 L142.135065,41 C110.580065,41.145 93.830065,58.385 86.025065,78.645 L45.030065,184.48 C28.755065,186.58 -0.049934993,205.705 6.50070132e-05,241.935 L6.50070132e-05,376.69 L39.995065,376.69 L39.995065,419.705 C39.895065,472.735 114.940065,472.105 114.920065,419.705 L114.920065,376.69 L384.740065,376.69 L384.740065,419.705 C384.905065,472.105 459.950065,472.735 460.000065,419.705 L460.000065,376.69 L500.000065,376.69 L500.000065,241.935 C499.880065,205.705 471.050065,186.58 454.630065,184.48 L454.630065,184.48 Z" id="Fill-78"></path>
        </g>
    </g>
</svg>