<?xml version="1.0" encoding="UTF-8"?>
<svg width="500px" height="500px" viewBox="0 0 500 500" version="1.1" xmlns="http://www.w3.org/2000/svg" xmlns:xlink="http://www.w3.org/1999/xlink">
    <!-- Generator: Sketch 3.8.3 (29802) - http://www.bohemiancoding.com/sketch -->
    <title>clock-gray</title>
    <desc>Created with Sketch.</desc>
    <defs></defs>
    <g id="Icons" stroke="none" stroke-width="1" fill="none" fill-rule="evenodd">
        <g id="clock-gray" fill="#888989">
            <path d="M250.36,263.503 C243.11,263.503 237.21,257.61 237.21,250.355 C237.21,243.101 243.11,237.207 250.36,237.207 C257.61,237.207 263.51,243.101 263.51,250.355 C263.51,257.61 257.61,263.503 250.36,263.503 L250.36,263.503 Z M351.6,237.355 L301.48,237.355 C296.69,218.355 282.36,204.032 263.36,199.231 L263.36,109.9 C263.36,102.595 257.67,96.649 250.36,96.649 C243.05,96.649 237.36,102.595 237.36,109.9 L237.36,199.231 C214.36,205.145 197.48,225.696 197.48,250.355 C197.48,279.647 221.15,303.237 250.42,303.237 C275.09,303.237 295.59,286.355 301.48,263.355 L351.6,263.355 C358.91,263.355 364.85,257.686 364.85,250.355 C364.85,243.05 358.91,237.355 351.6,237.355 L351.6,237.355 Z M250.36,423.85 C154.54,423.85 76.87,346.18 76.87,250.355 C76.87,154.535 154.54,76.861 250.36,76.861 C346.18,76.861 423.85,154.535 423.85,250.355 C423.85,346.18 346.18,423.85 250.36,423.85 L250.36,423.85 Z M250.36,25 C125.9,25 25,125.914 25,250.355 C25,374.817 125.9,475.71 250.36,475.71 C374.82,475.71 475.72,374.817 475.72,250.355 C475.72,125.914 374.82,25 250.36,25 L250.36,25 Z" id="Fill-76"></path>
        </g>
    </g>
</svg>