<?xml version="1.0" encoding="UTF-8"?>
<svg width="500px" height="500px" viewBox="0 0 500 500" version="1.1" xmlns="http://www.w3.org/2000/svg" xmlns:xlink="http://www.w3.org/1999/xlink">
    <!-- Generator: Sketch 3.8.3 (29802) - http://www.bohemiancoding.com/sketch -->
    <title>coins</title>
    <desc>Created with Sketch.</desc>
    <defs></defs>
    <g id="Icons" stroke="none" stroke-width="1" fill="none" fill-rule="evenodd">
        <g id="coins" fill="#F15922">
            <path d="M356.277,352.44 C353.618,349.7 350.347,347.26 346.468,345.14 C342.585,343.01 337.243,340.71 330.441,338.2 C323.634,335.7 318.82,333.06 315.975,330.27 C313.135,327.48 311.71,323.78 311.71,319.15 C311.71,314 313.145,310.04 316.014,307.27 C318.884,304.51 322.87,303.12 327.973,303.12 C333.134,303.12 337.213,305.05 340.21,308.91 C343.212,312.76 344.715,318.03 344.715,324.73 L364.014,324.73 C364.014,314.31 361.487,305.85 356.438,299.33 C351.39,292.81 344.24,288.89 334.985,287.57 L334.985,270.03 L322.234,270.03 L322.234,287.411 C313.032,288.48 305.75,291.85 300.379,297.54 C295.012,303.23 292.323,310.48 292.323,319.3 C292.323,332.32 298.523,342.17 310.907,348.8 C314.619,350.82 319.834,353.01 326.533,355.38 C333.222,357.74 338.016,360.4 340.881,363.36 C343.755,366.31 345.185,370.05 345.185,374.56 C345.185,379.39 343.609,383.28 340.445,386.2 C337.277,389.13 332.669,390.59 326.611,390.59 C320.441,390.59 315.677,388.75 312.298,385.08 C308.919,381.42 307.229,376.24 307.229,369.54 L287.857,369.54 C287.857,380.05 290.688,388.51 296.348,394.89 C302.009,401.27 310.104,405.05 320.632,406.22 L320.632,421.68 L333.305,421.68 L333.305,406.13 C343.138,405.13 350.812,401.83 356.311,396.24 C361.81,390.66 364.572,383.38 364.572,374.39 C364.572,369.61 363.852,365.44 362.413,361.87 C360.983,358.33 358.941,355.18 356.277,352.44 L356.277,352.44 Z M326.224,446.34 C270.821,446.34 225.74,401.27 225.74,345.86 C225.74,290.45 270.816,245.37 326.224,245.37 C381.633,245.37 426.709,290.45 426.709,345.86 C426.704,401.27 381.628,446.34 326.224,446.34 L326.224,446.34 Z M172.824,407.98 C118.717,407.98 73.005,382.03 73.005,351.31 L73.005,344.19 C92.475,365.79 129.461,380.1 172.824,380.1 C187.754,380.1 201.892,378.37 214.854,375.26 C217.092,383.76 220.284,391.88 224.305,399.5 C209.149,404.82 191.525,407.98 172.824,407.98 L172.824,407.98 Z M73.005,301.62 C92.475,323.22 129.461,337.53 172.824,337.53 C186.559,337.53 199.629,336.07 211.73,333.42 C211.289,337.51 211.049,341.65 211.049,345.86 C211.049,350.86 211.401,355.79 212.023,360.63 C199.908,363.67 186.657,365.411 172.819,365.411 C118.713,365.411 73,339.46 73,308.75 L73,301.62 L73.005,301.62 L73.005,301.62 Z M73.005,259.05 C92.475,280.65 129.461,294.96 172.824,294.96 C192.778,294.96 211.338,291.89 227.507,286.51 C221.798,295.99 217.415,306.35 214.614,317.35 C201.808,320.82 187.666,322.84 172.824,322.84 C118.717,322.84 73.005,296.89 73.005,266.17 L73.005,259.05 L73.005,259.05 Z M73.005,216.48 C92.475,238.08 129.461,252.39 172.824,252.39 C216.186,252.39 253.172,238.08 272.642,216.48 L272.642,223.6 C272.642,254.32 226.93,280.27 172.824,280.27 C118.717,280.27 73.005,254.32 73.005,223.6 L73.005,216.48 L73.005,216.48 Z M172.824,124.36 C226.93,124.36 272.642,150.31 272.642,181.03 C272.642,211.75 226.93,237.7 172.824,237.7 C118.717,237.7 73.005,211.75 73.005,181.03 C73.005,150.31 118.717,124.36 172.824,124.36 L172.824,124.36 Z M287.328,208.91 L287.328,181.03 C330.686,181.03 367.677,166.73 387.147,145.12 L387.147,152.25 C387.147,182.96 341.434,208.91 287.328,208.91 L287.328,208.91 Z M387.147,230.26 L387.147,237.38 C387.147,240.69 386.52,243.93 385.497,247.1 C382.005,244.99 378.391,243.09 374.67,241.37 C379.366,237.94 383.572,234.24 387.147,230.26 L387.147,230.26 Z M357.031,234.89 C347.222,232.16 336.9,230.68 326.224,230.68 C312.572,230.68 299.482,233.07 287.333,237.43 L287.333,223.6 C330.69,223.6 367.682,209.29 387.152,187.69 L387.152,194.81 C387.147,210.3 375.483,224.54 357.031,234.89 L357.031,234.89 Z M287.328,53 C341.434,53 387.147,78.95 387.147,109.67 C387.147,140.39 341.434,166.34 287.328,166.34 C286.54,166.34 285.761,166.3 284.978,166.28 C275.301,136.5 236.723,114.03 187.549,110.25 C187.544,110.06 187.509,109.86 187.509,109.67 C187.514,78.95 233.227,53 287.328,53 L287.328,53 Z" id="Fill-73"></path>
        </g>
    </g>
</svg>