<?xml version="1.0" encoding="UTF-8"?>
<svg width="500px" height="500px" viewBox="0 0 500 500" version="1.1" xmlns="http://www.w3.org/2000/svg" xmlns:xlink="http://www.w3.org/1999/xlink">
    <!-- Generator: Sketch 3.8.3 (29802) - http://www.bohemiancoding.com/sketch -->
    <title>crowd</title>
    <desc>Created with Sketch.</desc>
    <defs></defs>
    <g id="Icons" stroke="none" stroke-width="1" fill="none" fill-rule="evenodd">
        <g id="crowd" fill="#F0BD2E">
            <path d="M500.000003,172.317 C478.137003,142.001 425.183003,145.333 390.908003,149.044 L390.803003,149.07 C352.444003,154.459 349.343003,172.303 349.343003,172.303 C348.621003,214.936 349.038003,257.407 349.038003,300.092 C349.038003,318.833 376.107003,318.833 376.107003,300.092 L376.107003,188.372 L385.477003,187.855 L385.477003,441.966 C385.477003,451.525 393.428003,459.269 402.977003,459.269 L404.318003,459.225 C413.872003,459.225 422.957003,451.52 422.957003,441.961 L422.957003,315.196 C425.040003,300.632 427.122003,315.196 427.122003,315.196 C427.122003,364.053 427.155003,392.088 427.093003,440.943 C427.093003,450.502 434.820003,458.246 444.368003,458.246 L445.313003,458.202 C454.872003,458.202 463.561003,450.497 463.561003,440.938 C463.406003,349.341 463.832003,278.582 463.354003,186.992 L472.112003,188.367 C472.038003,188.356 471.964003,188.356 471.890003,188.367 L471.890003,300.092 C471.890003,319.874 500.000003,319.874 500.000003,300.092 L500.000003,172.317 L500.000003,172.317 Z M389.478003,96.665 C389.478003,115.907 405.077003,131.507 424.320003,131.507 C443.563003,131.507 459.163003,115.907 459.163003,96.665 C459.163003,77.422 443.563003,61.822 424.320003,61.822 C405.077003,61.822 389.478003,77.422 389.478003,96.665 L389.478003,96.665 Z M325.559003,151.495 C304.448003,121.181 250.879003,124.51 216.552003,128.221 L216.558003,128.248 C178.203003,133.637 174.763003,151.48 174.763003,151.48 C172.933003,193.958 174.131003,237.626 174.131003,279.27 C174.131003,299.051 202.241003,299.051 202.241003,279.27 L202.241003,167.55 L211.611003,167.033 L211.611003,441.966 C211.611003,451.525 219.430003,459.269 228.978003,459.269 L229.866003,459.225 C239.419003,459.225 248.050003,451.52 248.050003,441.961 L248.050003,294.374 C251.174003,279.81 253.256003,294.374 253.256003,294.374 C253.256003,343.227 253.441003,392.108 253.095003,440.943 C253.095003,450.502 260.756003,458.246 270.304003,458.246 L271.348003,458.202 C280.907003,458.202 289.695003,450.497 289.695003,440.938 C289.462003,349.339 289.735003,257.76 289.240003,166.169 C292.082003,166.618 295.184003,167.103 298.024003,167.544 L298.024003,279.27 C298.024003,299.051 326.134003,299.051 326.134003,279.27 C326.134003,236.584 327.067003,194.034 325.559003,151.495 L325.559003,151.495 Z M215.348003,75.842 C215.348003,95.085 230.947003,110.684 250.190003,110.684 C269.433003,110.684 285.033003,95.085 285.033003,75.842 C285.033003,56.599 269.433003,41 250.190003,41 C230.947003,41 215.348003,56.599 215.348003,75.842 L215.348003,75.842 Z M150.983003,172.317 C130.043003,141.998 76.5010028,145.334 42.2960028,149.044 L42.3000028,149.07 C3.94100277,154.458 0.699002766,172.303 0.699002766,172.303 C-0.558997234,214.877 0.265002766,257.407 0.265002766,300.092 C0.265002766,319.874 28.3750028,319.874 28.3750028,300.092 L28.3750028,188.372 L36.7040028,187.855 C36.7040028,279.509 37.7450028,350.302 37.7450028,441.966 C37.7450028,451.525 45.3640028,459.269 54.9170028,459.269 L55.8990028,459.225 C65.4530028,459.225 74.1840028,451.52 74.1840028,441.961 L74.1840028,315.196 C76.2660028,300.632 78.3490028,315.196 78.3490028,315.196 C78.3490028,364.049 78.1610028,392.108 78.5110028,440.943 C78.5110028,450.502 86.3270028,458.246 95.8810028,458.246 L96.6800028,458.202 C106.239003,458.202 114.787003,450.497 114.787003,440.938 C114.744003,349.339 115.394003,278.582 114.938003,186.992 C117.978003,187.507 121.109003,187.974 124.158003,188.367 L124.158003,300.092 C124.158003,318.833 151.227003,318.833 151.227003,300.092 C151.227003,257.407 151.623003,214.96 150.983003,172.317 L150.983003,172.317 Z M75.9280028,61.822 C95.1710028,61.822 110.771003,77.422 110.771003,96.665 C110.771003,115.907 95.1710028,131.507 75.9280028,131.507 C56.6850028,131.507 41.0860028,115.907 41.0860028,96.665 C41.0860028,77.422 56.6850028,61.822 75.9280028,61.822 L75.9280028,61.822 Z" id="Fill-83"></path>
        </g>
    </g>
</svg>