<?xml version="1.0" encoding="UTF-8"?>
<svg width="500px" height="500px" viewBox="0 0 500 500" version="1.1" xmlns="http://www.w3.org/2000/svg" xmlns:xlink="http://www.w3.org/1999/xlink">
    <!-- Generator: Sketch 3.8.3 (29802) - http://www.bohemiancoding.com/sketch -->
    <title>customer-service</title>
    <desc>Created with Sketch.</desc>
    <defs></defs>
    <g id="Icons" stroke="none" stroke-width="1" fill="none" fill-rule="evenodd">
        <g id="customer-service" fill="#9EC843">
            <path d="M289.471283,84.2156049 C282.341283,81.5056049 274.991283,79.5856049 267.511283,78.3856049 C262.041283,77.4956049 256.471283,77.0456049 250.951283,77.0056049 C205.881283,76.5556049 158.901283,103.185605 152.581283,163.035605 C147.861283,164.335605 144.341283,168.515605 144.341283,173.415605 L144.341283,200.405605 C144.341283,206.365605 149.421283,211.175605 155.651283,211.175605 L168.791283,211.175605 L168.791283,162.635605 L161.571283,162.635605 C167.901283,109.605605 209.891283,85.9056049 250.191283,85.9056049 L250.901283,85.9056049 C256.291283,85.9556049 261.411283,86.3156049 266.271283,86.9756049 C273.611283,88.0056049 280.431283,89.7856049 286.661283,92.0956049 C289.821283,93.2556049 292.851283,94.5956049 295.701283,96.0656049 L299.351283,88.6256049 C296.151283,86.9756049 292.851283,85.5056049 289.471283,84.2156049 L289.471283,84.2156049 Z M305.681283,252.905605 C305.811283,252.815605 305.991283,252.815605 306.121283,252.815605 C306.261283,252.455605 306.351283,252.105605 306.391283,251.795605 C306.171283,252.195605 305.941283,252.545605 305.681283,252.905605 L305.681283,252.905605 Z M349.011283,162.635605 C346.471283,126.925605 325.891283,102.035605 299.351283,88.6256049 L295.701283,96.0656049 C323.451283,110.135605 337.961283,136.855605 340.101283,162.635605 L335.871283,162.635605 L335.871283,211.175605 L340.631283,211.175605 C338.321283,222.625605 330.441283,232.375605 319.571283,238.475605 C318.011283,239.365605 316.411283,240.165605 314.721283,240.885605 C314.671283,240.885605 314.631283,240.925605 314.581283,240.925605 C313.691283,241.285605 312.801283,241.595605 311.911283,241.995605 C311.471283,242.085605 311.021283,242.265605 310.581283,242.435605 C309.201283,242.885605 307.771283,243.285605 306.301283,243.645605 C305.141283,239.365605 302.291283,236.335605 299.091283,236.335605 L274.591283,236.335605 C270.361283,236.335605 266.801283,241.595605 266.801283,247.915605 C266.801283,254.235605 270.361283,259.495605 274.591283,259.495605 L299.091283,259.495605 C300.071283,259.495605 301.051283,259.225605 301.891283,258.695605 C303.761283,257.575605 305.281283,255.445605 306.121283,252.815605 C305.991283,252.815605 305.811283,252.815605 305.681283,252.905605 C305.941283,252.545605 306.171283,252.195605 306.391283,251.795605 C306.351283,252.105605 306.261283,252.455605 306.121283,252.815605 C307.771283,252.455605 309.371283,252.105605 310.981283,251.615605 C312.581283,251.165605 314.141283,250.675605 315.701283,250.055605 C333.601283,243.285605 346.821283,228.725605 349.671283,211.175605 C355.601283,210.825605 360.321283,206.145605 360.321283,200.405605 L360.321283,173.415605 C360.321283,167.495605 355.241283,162.635605 349.011283,162.635605 L349.011283,162.635605 Z M362.521283,322.325605 C426.471283,339.875605 441.831283,394.585605 441.701283,423.615605 L59.0012825,423.615605 C58.9112825,407.765605 63.5412825,377.055605 78.1912825,358.795605 C90.3512825,343.745605 109.321283,330.215605 138.171283,322.325605 C140.581283,321.665605 143.031283,321.035605 145.251283,320.455605 C181.771283,310.345605 195.331283,304.155605 208.061283,295.115605 C213.141283,291.515605 216.481283,287.325605 218.221283,282.335605 C218.081283,282.245605 218.041283,282.165605 218.041283,281.985605 C218.041283,281.405605 219.461283,280.865605 218.841283,280.205605 C195.111283,258.785605 177.031283,217.105605 177.031283,183.435605 C177.031283,135.745605 216.031283,97.1756049 252.911283,97.1756049 C289.821283,97.1756049 326.871283,138.365605 326.871283,186.015605 C326.871283,202.855605 321.891283,221.285605 313.781283,238.165605 C313.431283,237.365605 313.021283,236.605605 312.581283,235.845605 C309.551283,230.775605 304.611283,227.435605 299.091283,227.435605 L274.591283,227.435605 C265.381283,227.435605 257.891283,236.605605 257.891283,247.915605 C257.891283,259.225605 265.381283,268.405605 274.591283,268.405605 L294.371283,268.405605 C290.451283,273.075605 286.311283,277.215605 282.031283,280.785605 C286.751283,299.035605 301.731283,305.715605 352.371283,319.525605 C355.661283,320.455605 359.001283,321.395605 362.521283,322.325605 L362.521283,322.325605 Z" id="Fill-65"></path>
        </g>
    </g>
</svg>