<?xml version="1.0" encoding="UTF-8"?>
<svg width="500px" height="500px" viewBox="0 0 500 500" version="1.1" xmlns="http://www.w3.org/2000/svg" xmlns:xlink="http://www.w3.org/1999/xlink">
    <!-- Generator: Sketch 3.8.3 (29802) - http://www.bohemiancoding.com/sketch -->
    <title>drive</title>
    <desc>Created with Sketch.</desc>
    <defs></defs>
    <g id="Icons" stroke="none" stroke-width="1" fill="none" fill-rule="evenodd">
        <g id="drive" fill="#9EC843">
            <path d="M217.43,254.29 C217.43,236.31 232.27,221.48 250.24,221.48 C268.22,221.48 283.05,236.31 283.05,254.29 C283.05,272.27 268.22,287.1 250.24,287.1 C232.27,287.1 217.43,272.72 217.43,254.29 L217.43,254.29 Z M48,250.25 C48,138.33 138.33,48 250.24,48 C362.15,48 452.49,138.33 452.49,250.25 C452.49,362.16 362.15,452.49 250.24,452.49 C138.33,452.49 48,362.16 48,250.25 L48,250.25 Z M87.1,288.9 C84.85,357.21 221.93,452.04 221.93,402.16 C221.93,360.36 206.2,333.84 188.67,316.31 C164.85,292.94 141.93,278.11 124.4,274.52 C101.03,269.12 87.55,280.36 87.1,288.9 L87.1,288.9 Z M85.75,216.99 C84.85,225.08 101.48,224.18 111.82,222.83 C144.18,216.99 198.56,189.12 252.94,189.12 C291.14,189.12 332.04,207.1 359.46,215.19 C368.9,217.89 382.38,222.83 401.71,223.73 C408.9,224.18 416.09,222.38 415.64,216.09 C412.94,171.59 355.41,83.05 250.24,83.05 C170.24,83.05 92.04,150.02 85.75,216.99 L85.75,216.99 Z M414.29,288.9 C413.84,280.36 400.36,268.67 376.99,274.07 C359.91,278.11 336.54,292.49 312.72,316.31 C295.19,333.84 279.46,360.36 279.46,402.16 C279.91,452.04 416.54,357.21 414.29,288.9 L414.29,288.9 Z M203.05,254.29 C203.05,280.36 224.18,301.48 250.24,301.48 C276.31,301.48 297.44,280.36 297.44,254.29 C297.44,228.22 276.31,207.1 250.24,207.1 C224.18,207.1 203.05,228.22 203.05,254.29 L203.05,254.29 Z" id="Fill-56"></path>
        </g>
    </g>
</svg>