<?xml version="1.0" encoding="UTF-8"?>
<svg width="500px" height="500px" viewBox="0 0 500 500" version="1.1" xmlns="http://www.w3.org/2000/svg" xmlns:xlink="http://www.w3.org/1999/xlink">
    <!-- Generator: Sketch 3.8.3 (29802) - http://www.bohemiancoding.com/sketch -->
    <title>elders</title>
    <desc>Created with Sketch.</desc>
    <defs></defs>
    <g id="Icons" stroke="none" stroke-width="1" fill="none" fill-rule="evenodd">
        <g id="elders" fill="#F15922">
            <path d="M119.662006,123.150244 C127.535006,119.550244 133.036006,111.660244 133.036006,102.440244 C133.036006,89.8402443 122.828006,79.6302443 110.230006,79.6302443 C100.441006,79.6302443 92.1650063,85.8202443 88.9280063,94.4902443 C103.574006,97.8702443 115.312006,108.900244 119.662006,123.150244 L119.662006,123.150244 Z M39.7180063,136.410244 C39.7180063,157.800244 57.0620063,175.150244 78.4580063,175.150244 C99.8530063,175.150244 117.197006,157.800244 117.197006,136.410244 C117.197006,115.010244 99.8530063,97.6702443 78.4580063,97.6702443 C57.0620063,97.6702443 39.7180063,115.010244 39.7180063,136.410244 L39.7180063,136.410244 Z M329.059006,161.580244 C328.707006,163.330244 328.272006,165.530244 326.334006,166.610244 C325.403006,167.130244 324.368006,167.410244 323.350006,167.410244 C321.439006,167.410244 319.677006,166.450244 318.504006,164.770244 C318.356006,164.570244 318.141006,164.350244 317.893006,164.130244 L317.695006,164.130244 L316.803006,164.080244 C313.411006,163.630244 310.592006,161.950244 308.219006,158.960244 C307.377006,160.020244 306.457006,160.860244 305.499006,161.590244 C312.475006,169.850244 322.887006,175.100244 334.543006,175.100244 C355.537006,175.100244 372.561006,158.080244 372.561006,137.080244 C372.561006,135.750244 372.490006,134.430244 372.358006,133.140244 L301.535006,118.260244 C298.364006,123.810244 296.525006,130.230244 296.525006,137.080244 C296.525006,137.680244 296.585006,138.270244 296.613006,138.870244 C298.903006,137.830244 301.403006,137.330244 303.881006,137.700244 C304.938006,137.850244 306.914006,138.590244 308.219006,139.110244 C309.524006,138.600244 311.501006,137.860244 312.558006,137.700244 C319.804006,136.610244 327.369006,142.530244 328.674006,149.930244 C329.043006,151.980244 329.048006,154.000244 329.059006,155.940244 C329.065006,156.730244 329.065006,157.530244 329.098006,158.320244 L329.125006,159.060244 C329.169006,159.580244 329.197006,160.040244 329.180006,160.480244 L329.197006,160.950244 L329.147006,160.960244 C329.136006,161.150244 329.103006,161.360244 329.059006,161.580244 L329.059006,161.580244 Z M296.528006,112.690244 L378.522006,129.910244 C379.921006,130.200244 383.786006,128.040244 384.524006,124.520244 C385.267006,120.990244 382.150006,117.360244 380.741006,117.060244 L370.478006,114.910244 C370.985006,113.750244 371.392006,112.520244 371.662006,111.220244 L372.917006,105.230244 C374.767006,96.4202443 370.120006,87.9702443 362.533006,86.3802443 L328.666006,79.2602443 C321.079006,77.6702443 313.426006,83.5302443 311.576006,92.3502443 L310.320006,98.3402443 C310.051006,99.6402443 309.924006,100.930244 309.924006,102.190244 L299.666006,100.040244 C298.251006,99.7402443 293.946006,101.810244 293.203006,105.340244 C292.459006,108.870244 295.124006,112.400244 296.528006,112.690244 L296.528006,112.690244 Z M290.545006,160.930244 C290.754006,161.950244 290.975006,163.400244 291.680006,163.790244 C292.814006,164.420244 294.262006,164.360244 295.280006,162.920244 C295.886006,162.060244 296.772006,161.360244 297.648006,160.730244 C298.121006,160.870244 298.633006,160.940244 299.223006,160.860244 C302.526006,160.430244 304.751006,158.430244 306.501006,155.820244 C307.173006,154.810244 307.680006,153.690244 308.219006,152.590244 C308.759006,153.690244 309.265006,154.810244 309.937006,155.820244 C311.682006,158.430244 313.907006,160.430244 317.216006,160.860244 C317.805006,160.940244 318.323006,160.870244 318.791006,160.730244 C319.666006,161.360244 320.552006,162.060244 321.158006,162.920244 C322.171006,164.360244 323.625006,164.420244 324.759006,163.790244 C325.464006,163.390244 325.684006,161.950244 325.893006,160.930244 C326.058006,160.140244 325.866006,159.270244 325.833006,158.440244 L325.871006,158.440244 C325.767006,155.790244 325.954006,153.080244 325.497006,150.490244 C324.451006,144.580244 318.405006,140.110244 313.031006,140.900244 C312.172006,141.030244 309.497006,142.060244 308.225006,142.610244 C306.953006,142.060244 304.277006,141.030244 303.418006,140.900244 C298.050006,140.110244 291.999006,144.580244 290.953006,150.490244 C290.496006,153.080244 290.683006,155.790244 290.578006,158.440244 L290.617006,158.440244 C290.573006,159.270244 290.380006,160.140244 290.545006,160.930244 L290.545006,160.930244 Z M283.883006,421.040244 C287.528006,421.040244 290.479006,418.090244 290.479006,414.450244 L290.479006,253.090244 C290.479006,244.790244 297.229006,238.050244 305.521006,238.050244 C313.813006,238.050244 320.563006,244.800244 320.563006,253.090244 L320.563006,254.530244 C320.563006,258.180244 323.515006,261.130244 327.160006,261.130244 C330.804006,261.130244 333.756006,258.180244 333.756006,254.530244 L333.756006,253.090244 C333.756006,237.520244 321.092006,224.860244 305.527006,224.860244 C289.956006,224.860244 277.293006,237.520244 277.293006,253.090244 L277.293006,414.450244 C277.293006,418.090244 280.244006,421.040244 283.883006,421.040244 L283.883006,421.040244 Z M340.352006,218.370244 C340.352006,241.650244 351.936006,262.180244 369.616006,274.640244 L369.616006,404.530244 C369.616006,413.630244 376.994006,421.010244 386.100006,421.010244 C395.207006,421.010244 402.586006,413.630244 402.586006,404.530244 L402.586006,286.870244 C404.756006,287.070244 406.956006,287.200244 409.186006,287.200244 C411.416006,287.200244 413.606006,287.070244 415.776006,286.870244 L415.776006,404.520244 C415.776006,413.630244 423.156006,421.010244 432.266006,421.010244 C441.366006,421.010244 448.746006,413.630244 448.746006,404.520244 L448.746006,274.640244 C466.426006,262.180244 478.006006,241.650244 478.006006,218.370244 C478.006006,180.360244 447.196006,149.540244 409.186006,149.540244 C371.168006,149.540244 340.352006,180.360244 340.352006,218.370244 L340.352006,218.370244 Z M85.0540063,218.420244 L85.0540063,344.130244 L114.318006,344.130244 L114.318006,404.580244 C114.318006,413.680244 121.696006,421.060244 130.802006,421.060244 C139.909006,421.060244 147.287006,413.680244 147.287006,404.580244 L147.287006,344.130244 L160.474006,344.130244 L160.474006,404.580244 C160.474006,413.680244 167.852006,421.060244 176.958006,421.060244 C186.065006,421.060244 193.443006,413.680244 193.443006,404.580244 L193.443006,344.130244 L222.707006,344.130244 L222.707006,218.420244 C222.707006,180.410244 191.890006,149.590244 153.878006,149.590244 C115.865006,149.590244 85.0540063,180.410244 85.0540063,218.420244 L85.0540063,218.420244 Z M22.0000063,414.500244 L22.0000063,253.150244 C22.0000063,237.580244 34.6640063,224.920244 50.2340063,224.920244 C65.8000063,224.920244 78.4630063,237.580244 78.4630063,253.150244 L78.4630063,254.590244 C78.4630063,258.230244 75.5120063,261.190244 71.8670063,261.190244 C68.2220063,261.190244 65.2710063,258.230244 65.2710063,254.590244 L65.2710063,253.150244 C65.2710063,244.860244 58.5210063,238.110244 50.2290063,238.110244 C41.9370063,238.110244 35.1870063,244.860244 35.1870063,253.150244 L35.1870063,414.500244 C35.1870063,418.140244 32.2360063,421.090244 28.5910063,421.090244 C24.9460063,421.090244 21.9950063,418.140244 22.0000063,414.500244 L22.0000063,414.500244 Z" id="Fill-74"></path>
        </g>
    </g>
</svg>