<?xml version="1.0" encoding="UTF-8"?>
<svg width="500px" height="500px" viewBox="0 0 500 500" version="1.1" xmlns="http://www.w3.org/2000/svg" xmlns:xlink="http://www.w3.org/1999/xlink">
    <!-- Generator: Sketch 3.8.3 (29802) - http://www.bohemiancoding.com/sketch -->
    <title>eletricity-co</title>
    <desc>Created with Sketch.</desc>
    <defs></defs>
    <g id="Icons" stroke="none" stroke-width="1" fill="none" fill-rule="evenodd">
        <g id="eletricity-co" fill="#9EC843">
            <path d="M354.971,178.26 C354.971,120.52 307.992,73.54 250.244,73.54 C192.519,73.54 145.541,120.52 145.541,178.26 C145.541,200.55 152.439,221.82 165.506,239.78 L166.859,241.59 C167.915,242.97 169.07,244.4 170.37,245.94 L170.812,246.48 C174.092,250.82 180.35,259.78 185.431,271.05 L186.04,272.69 C186.55,274.45 188.228,280.54 188.228,284.45 L188.228,301.93 C188.228,308.96 193.566,314.67 200.112,314.67 L246.111,314.67 L246.121,252.17 L226.015,262.23 C224.987,262.75 223.836,263.01 222.672,263.01 C221.887,263.01 221.115,262.89 220.375,262.65 C218.62,262.06 217.231,260.87 216.455,259.28 C214.785,255.91 216.297,251.7 219.834,249.9 L275.813,221.91 C279.157,220.24 283.745,221.64 285.352,224.82 C286.209,226.55 286.286,228.5 285.568,230.32 C284.905,232.01 283.619,233.39 281.963,234.23 L259.814,245.31 C259.823,245.46 259.891,245.6 259.891,245.76 L259.891,314.66 L300.394,314.66 C306.932,314.66 312.27,308.96 312.27,301.92 L312.27,284.46 C312.274,280.54 313.957,274.45 314.467,272.68 L315.058,271.04 C320.148,259.77 326.406,250.82 329.686,246.48 L330.137,245.93 C331.427,244.4 332.582,242.97 333.652,241.58 L335.032,239.73 C348.072,221.81 354.966,200.54 354.971,178.26 L354.971,178.26 Z M379.493,178.25 C379.493,205.76 370.965,232.03 354.84,254.21 L353.161,256.47 C351.894,258.1 350.544,259.76 349.056,261.53 C346.443,265.03 341.737,271.84 337.776,280.33 C337.207,282.51 336.891,284.22 336.797,284.85 L336.797,301.93 C336.797,322.47 320.454,339.21 300.399,339.21 L200.112,339.21 C180.039,339.21 163.719,322.47 163.719,301.93 L163.719,284.85 C163.624,284.22 163.304,282.51 162.709,280.33 C158.77,271.84 154.059,265.03 151.438,261.53 C149.962,259.76 148.6,258.1 147.382,256.49 L145.712,254.25 C129.541,232.03 121,205.76 121,178.25 C121,106.99 178.97,49 250.24,49 C321.515,49 379.493,106.99 379.493,178.25 L379.493,178.25 Z M221.422,235.05 C222.054,235.25 222.708,235.35 223.371,235.35 C224.364,235.35 225.348,235.12 226.214,234.69 L267.25,214.15 C268.649,213.43 269.718,212.27 270.291,210.82 C270.882,209.25 270.81,207.6 270.092,206.11 C268.712,203.37 264.813,202.17 261.935,203.59 L220.917,224.11 C219.414,224.86 218.264,226.19 217.745,227.74 C217.262,229.23 217.371,230.8 218.034,232.12 C218.711,233.5 219.897,234.54 221.422,235.05 L221.422,235.05 Z M220.236,434.941 L280.24,434.941 L280.24,426.17 L220.236,426.17 L220.236,434.941 Z M296.067,439.42 L296.067,410.33 L204.394,410.33 L204.394,439.42 C204.394,445.69 209.466,450.78 215.719,450.78 L284.752,450.78 C291.001,450.78 296.067,445.69 296.067,439.42 L296.067,439.42 Z M318.42,400.03 L182.069,400.03 L182.069,374.13 C182.069,365.54 189.243,358.55 198.037,358.55 L302.447,358.55 C311.237,358.55 318.42,365.54 318.42,374.13 L318.42,400.03 L318.42,400.03 Z" id="Fill-69"></path>
        </g>
    </g>
</svg>