<?xml version="1.0" encoding="UTF-8"?>
<svg width="500px" height="500px" viewBox="0 0 500 500" version="1.1" xmlns="http://www.w3.org/2000/svg" xmlns:xlink="http://www.w3.org/1999/xlink">
    <!-- Generator: Sketch 3.8.3 (29802) - http://www.bohemiancoding.com/sketch -->
    <title>emergency-management</title>
    <desc>Created with Sketch.</desc>
    <defs></defs>
    <g id="Icons" stroke="none" stroke-width="1" fill="none" fill-rule="evenodd">
        <g id="emergency-management" fill="#9EC843">
            <path d="M425.186,124.96 C415.196,124.96 407.076,133.06 407.076,143.05 L396.047,234.65 C411.276,235.58 423.336,248.22 423.336,263.67 C423.336,273.22 418.726,281.69 411.626,287 L352.275,340.81 C349.941,342.93 346.301,342.77 344.183,340.42 C342.065,338.07 342.218,334.44 344.568,332.32 L361.861,316.65 L388.784,292.21 L405.896,276.69 C412.966,269.63 412.966,258.18 405.896,251.12 C402.786,247.98 398.798,246.32 394.715,245.97 C389.57,245.51 384.276,247.18 380.33,251.12 L365.23,264.84 L365.23,264.82 L298.95,325.1 C289.922,333.32 284.219,345.13 284.129,358.27 L284.129,425.45 C284.129,432.64 289.941,438.46 297.126,438.46 L347.076,438.46 C354.284,438.46 360.093,432.65 360.093,425.45 L360.093,404.89 C360.093,395.92 363.893,387.82 369.934,382.1 L435.876,322.9 C440.356,319.61 443.266,314.3 443.266,308.32 L443.266,143.05 C443.266,133.06 435.156,124.96 425.186,124.96 L425.186,124.96 Z M134.032,264.83 L134.032,264.84 L118.931,251.12 C114.985,247.18 109.688,245.52 104.547,245.98 C100.463,246.33 96.478,247.99 93.361,251.12 C86.291,258.18 86.291,269.64 93.361,276.69 L110.458,292.21 L154.673,332.32 C157.024,334.45 157.201,338.08 155.082,340.42 C152.94,342.77 149.324,342.93 146.978,340.81 L87.643,286.99 C80.533,281.69 75.915,273.21 75.915,263.66 C75.915,248.21 87.988,235.58 103.203,234.64 L92.166,143.05 C92.166,133.06 84.074,124.96 74.079,124.96 C64.085,124.96 56,133.06 56,143.05 L56,308.32 C56,314.3 58.908,319.61 63.377,322.9 L129.331,382.1 C135.38,387.82 139.149,395.92 139.149,404.89 L139.149,425.39 L139.172,425.39 L139.172,425.45 C139.172,432.64 144.985,438.46 152.17,438.46 L202.127,438.46 C209.328,438.46 215.141,432.65 215.141,425.45 L215.141,358.27 C215.05,345.13 209.343,333.32 200.32,325.11 L134.032,264.83 L134.032,264.83 Z M340.799,207.75 C296.069,240.06 285.559,245.78 249.613,281.72 C213.675,245.79 203.157,240.07 158.435,207.75 C136.916,192.21 119.309,167.6 119.309,140.27 C119.309,96.44 145.457,63 189.287,63 C215.274,63 244.236,84.97 249.617,111.23 C255.001,84.98 283.963,63 309.954,63 C353.789,63 379.925,96.44 379.925,140.27 C379.925,167.6 362.317,192.21 340.799,207.75 L340.799,207.75 Z" id="Fill-63"></path>
        </g>
    </g>
</svg>