<?xml version="1.0" encoding="UTF-8"?>
<svg width="500px" height="500px" viewBox="0 0 500 500" version="1.1" xmlns="http://www.w3.org/2000/svg" xmlns:xlink="http://www.w3.org/1999/xlink">
    <!-- Generator: Sketch 3.8.3 (29802) - http://www.bohemiancoding.com/sketch -->
    <title>fed</title>
    <desc>Created with Sketch.</desc>
    <defs></defs>
    <g id="Icons" stroke="none" stroke-width="1" fill="none" fill-rule="evenodd">
        <g id="fed" fill="#9EC843">
            <path d="M219.78,437.6925 L97,437.6925 L97,427.1625 C97,394.6025 109.94,363.3725 132.96,340.3425 C151.67,321.6425 170.38,302.9325 189.09,284.2225 C199.32,335.3825 209.55,386.5425 219.78,437.6925 L219.78,437.6925 Z M240.04,316.1425 C236.81,313.9425 234.12,311.4625 231.93,308.1725 C230.6,306.1625 229.63,304.1325 229.19,301.7225 C228.92,300.2225 228.76,298.9125 229.56,297.4625 C232.82,291.5425 245.35,290.3725 250.48,290.3725 C255.6,290.3725 268.13,291.5425 271.39,297.4625 C272.19,298.9125 272.04,300.2225 271.76,301.7225 C271.32,304.1325 270.35,306.1625 269.01,308.1725 C266.83,311.4625 264.14,313.9425 260.91,316.1425 C267.66,356.6625 274.42,397.1825 281.17,437.6925 L219.78,437.6925 C226.53,397.1825 233.29,356.6625 240.04,316.1425 L240.04,316.1425 Z M319.55,75.6425 C329.27,86.4825 340.62,92.9125 353.79,98.2425 C356.98,99.5325 360.2,100.6925 363.46,101.7625 C365.17,102.3225 366.89,102.8625 368.61,103.3625 C369.06,103.4925 369.5,103.6225 369.94,103.7525 C370.76,103.9825 369.35,104.3625 369.03,104.6525 C368.35,105.2725 367.67,105.9025 367,106.5325 C362.08,111.1725 357.55,116.0625 353.53,121.5225 C351.41,124.4025 349.49,127.3825 347.79,130.5325 C346.99,132.0025 346.26,133.4925 345.58,135.0325 C345.31,135.6325 344.88,135.0825 344.52,134.9625 C344.12,134.8325 343.72,134.6925 343.31,134.5625 C342.5,134.3025 341.69,134.0425 340.88,133.7825 C334.34,131.7125 327.74,129.8725 321.07,128.2625 C307.59,125.0025 294.06,122.7125 280.26,121.3625 C252.36,118.6325 225.39,119.7625 197.82,124.8225 C184.2,127.3225 170.91,130.7325 157.77,135.1025 C157.09,135.3325 156.48,135.5925 156.11,134.7325 C155.81,134.0325 155.5,133.3425 155.18,132.6625 C154.52,131.2625 153.82,129.8925 153.06,128.5325 C151.46,125.6625 149.68,122.9325 147.74,120.2825 C143.28,114.2125 138.23,108.8525 132.71,103.7725 C152.19,98.2025 168.96,91.5125 183.17,75.6425 C185.8,72.7125 188.38,71.7025 192.3,72.1025 C211.71,74.0825 228.64,72.4425 246.46,63.3425 C249.97,61.5525 252.75,61.5525 256.27,63.3425 C274.08,72.4425 291.01,74.0825 310.43,72.1025 C314.34,71.7025 316.93,72.7025 319.55,75.6425 L319.55,75.6425 Z M284.96,237.7525 L284.96,243.3825 C275.28,240.4725 265.68,239.5925 255.67,239.5925 C253.24,237.1625 251.46,234.9325 251.36,231.1925 C251.25,234.9325 249.48,237.1625 247.04,239.5925 C237.03,239.5925 227.43,240.4725 217.75,243.3825 L217.75,237.7525 C217.75,233.8925 220.38,230.5325 224.12,229.6025 C229.8,228.1825 235.49,226.7625 241.17,225.3325 C248.14,223.5925 254.57,223.5925 261.54,225.3325 C267.23,226.7625 272.91,228.1825 278.6,229.6025 C282.34,230.5325 284.96,233.8925 284.96,237.7525 L284.96,237.7525 Z M353.95,384.4525 C348.6,386.4325 343.3,387.1425 337.65,387.1425 C332.01,387.1425 326.71,386.4325 321.36,384.4525 C316.99,382.8425 310.26,379.4225 310.26,373.4425 C310.26,367.4625 316.98,364.0425 321.36,362.4325 C326.7,360.4525 332,359.7425 337.65,359.7425 C343.3,359.7425 348.6,360.4425 353.94,362.4225 C358.31,364.0425 365.05,367.4525 365.05,373.4425 C365.05,379.4225 358.32,382.8325 353.95,384.4525 L353.95,384.4525 Z M367.98,340.3425 C349.28,321.6425 330.57,302.9325 311.86,284.2225 C301.63,335.3825 291.4,386.5425 281.17,437.6925 L403.94,437.6925 L403.94,427.1625 C403.94,394.5925 391.01,363.3725 367.98,340.3425 L367.98,340.3425 Z M334.25,204.4525 C332.9,210.3825 330.99,215.0925 328.22,219.2925 C325.53,223.3525 322.8,225.2625 321.62,225.2625 L321.6,225.2625 C319.39,224.6025 317.19,223.9425 314.98,223.2825 C314.12,225.4125 313.25,227.5525 312.38,229.6825 C303.14,252.3725 282.03,276.6125 250.47,276.6125 C218.92,276.6125 197.81,252.3725 188.57,229.6825 C187.65,227.5625 186.73,225.4425 185.81,223.3125 C183.6,223.9725 181.4,224.6325 179.19,225.2825 C178.18,225.2825 175.44,223.3825 172.74,219.2925 C169.96,215.0925 168.05,210.3725 166.71,204.4625 C165.15,197.5825 165.01,190.7025 166.32,185.5925 C167.26,181.9425 168.75,180.3225 169.13,180.1625 C169.13,180.1625 169.72,180.1725 170.96,180.9825 C174.23,183.1425 177.5,185.2925 180.78,187.4525 C181.41,183.5825 182.03,179.7125 182.65,175.8425 C182.77,175.1025 182.9,174.3725 183.03,173.6525 C225.33,195.5425 275.62,195.5425 317.91,173.6425 C318.05,174.3725 318.17,175.1025 318.29,175.8425 C318.92,179.7125 319.55,183.5825 320.17,187.4525 C323.44,185.2925 326.72,183.1425 329.99,180.9825 C331.18,180.1925 331.77,180.1625 331.76,180.1525 C332.2,180.3325 333.69,181.9525 334.63,185.5925 C335.94,190.7025 335.8,197.5725 334.25,204.4525 L334.25,204.4525 Z M349.38,181.8125 C346.78,171.6925 340.35,165.3525 332.49,165.0025 C334.65,160.0525 336.81,155.1125 338.97,150.1625 C281.65,131.3125 219.79,131.4525 162.57,150.5525 C164.53,155.3725 166.49,160.1825 168.45,165.0025 C160.6,165.3525 154.16,171.6925 151.57,181.8125 C148.99,191.9025 150.64,202.4325 151.86,207.8125 C153.61,215.5725 156.21,221.8825 160.03,227.6825 C162.89,232.0125 168.65,239.0025 176.6,240.2925 C191.31,271.7725 219.81,291.8325 250.47,291.8325 C281.14,291.8325 309.64,271.7725 324.35,240.2925 C332.3,239.0025 338.06,232.0025 340.92,227.6725 C344.73,221.9025 347.33,215.5825 349.09,207.8125 C350.3,202.4325 351.96,191.9025 349.38,181.8125 L349.38,181.8125 Z" id="Fill-61"></path>
        </g>
    </g>
</svg>