<?xml version="1.0" encoding="UTF-8"?>
<svg width="500px" height="500px" viewBox="0 0 500 500" version="1.1" xmlns="http://www.w3.org/2000/svg" xmlns:xlink="http://www.w3.org/1999/xlink">
    <!-- Generator: Sketch 3.8.3 (29802) - http://www.bohemiancoding.com/sketch -->
    <title>firetruck</title>
    <desc>Created with Sketch.</desc>
    <defs></defs>
    <g id="Icons" stroke="none" stroke-width="1" fill="none" fill-rule="evenodd">
        <g id="firetruck" fill="#9EC843">
            <path d="M329.029,409.29 L392.537,409.29 L392.537,377.53 L329.029,377.53 L329.029,409.29 Z M106.753,409.29 L170.261,409.29 L170.261,377.53 L106.753,377.53 L106.753,409.29 Z M360.783,377.53 C378.32,377.53 392.537,391.75 392.537,409.29 C392.537,426.82 378.32,441.04 360.783,441.04 C343.246,441.04 329.029,426.82 329.029,409.29 C329.029,391.75 343.246,377.53 360.783,377.53 L360.783,377.53 Z M138.507,377.53 C156.044,377.53 170.261,391.75 170.261,409.29 C170.261,426.82 156.044,441.04 138.507,441.04 C120.97,441.04 106.753,426.82 106.753,409.29 C106.753,391.75 120.97,377.53 138.507,377.53 L138.507,377.53 Z M265.522,250.52 L360.783,250.52 L360.783,171.13 L265.522,171.13 L265.522,250.52 Z M186.138,361.66 L313.152,361.66 L313.152,282.27 L186.138,282.27 L186.138,361.66 Z M122.63,361.66 L170.261,361.66 L170.261,345.78 L122.63,345.78 L122.63,361.66 Z M138.507,250.52 L233.768,250.52 L233.768,171.13 L138.507,171.13 L138.507,250.52 Z M202.014,139.38 L297.275,139.38 L297.275,123.5 L202.014,123.5 L202.014,139.38 Z M202.014,107.63 L297.275,107.63 L297.275,91.75 L202.014,91.75 L202.014,107.63 Z M329.029,361.66 L376.66,361.66 L376.66,345.78 L329.029,345.78 L329.029,361.66 Z M408.413,202.89 L392.537,202.89 L392.537,171.13 C392.537,153.67 378.248,139.38 360.783,139.38 L360.783,123.5 L329.029,123.5 L329.029,139.38 L313.152,139.38 L313.152,60 L297.275,60 L297.275,75.871 L202.014,75.871 L202.014,60 L186.138,60 L186.138,139.38 L170.261,139.38 L170.261,123.5 L138.507,123.5 L138.507,139.38 C121.042,139.38 106.753,153.67 106.753,171.13 L106.753,202.89 L90.876,202.89 C81.35,202.89 75,209.24 75,218.76 L75,266.39 C75,275.92 81.35,282.27 90.876,282.27 L106.753,282.27 L106.753,361.66 L90.876,361.66 C81.35,361.66 75,368.01 75,377.53 C75,387.06 81.35,393.41 90.876,393.41 L408.413,393.41 C417.943,393.41 424.293,387.06 424.293,377.53 C424.293,368.01 417.943,361.66 408.413,361.66 L392.537,361.66 L392.537,282.27 L408.413,282.27 C417.943,282.27 424.293,275.92 424.293,266.39 L424.293,218.76 C424.293,209.24 417.943,202.89 408.413,202.89 L408.413,202.89 Z" id="Fill-66"></path>
        </g>
    </g>
</svg>