<?xml version="1.0" encoding="UTF-8"?>
<svg width="500px" height="500px" viewBox="0 0 500 500" version="1.1" xmlns="http://www.w3.org/2000/svg" xmlns:xlink="http://www.w3.org/1999/xlink">
    <!-- Generator: Sketch 3.8.3 (29802) - http://www.bohemiancoding.com/sketch -->
    <title>gps</title>
    <desc>Created with Sketch.</desc>
    <defs></defs>
    <g id="Icons" stroke="none" stroke-width="1" fill="none" fill-rule="evenodd">
        <g id="gps">
            <path d="M436.25,229.166667 C426.666667,142.291667 357.708333,73.3333333 270.833333,63.75 L270.833333,20.8333333 L229.166667,20.8333333 L229.166667,63.75 C142.291667,73.3333333 73.3333333,142.291667 63.75,229.166667 L20.8333333,229.166667 L20.8333333,270.833333 L63.75,270.833333 C73.3333333,357.708333 142.291667,426.666667 229.166667,436.25 L229.166667,479.166667 L270.833333,479.166667 L270.833333,436.25 C357.708333,426.666667 426.666667,357.708333 436.25,270.833333 L479.166667,270.833333 L479.166667,229.166667 L436.25,229.166667 L436.25,229.166667 Z" id="Path" fill="#D3D3D3"></path>
            <path d="M250,395.833333 C169.375,395.833333 104.166667,330.625 104.166667,250 C104.166667,169.375 169.375,104.166667 250,104.166667 C330.625,104.166667 395.833333,169.375 395.833333,250 C395.833333,330.625 330.625,395.833333 250,395.833333 L250,395.833333 Z" id="Path" fill="#FFFFFF"></path>
            <path d="M250,166.666667 C203.958333,166.666667 166.666667,203.958333 166.666667,250 C166.666667,296.041667 203.958333,333.333333 250,333.333333 C296.041667,333.333333 333.333333,296.041667 333.333333,250 C333.333333,203.958333 296.041667,166.666667 250,166.666667 L250,166.666667 Z" id="Path" fill="#333333"></path>
        </g>
    </g>
</svg>