<?xml version="1.0" encoding="UTF-8"?>
<svg width="500px" height="500px" viewBox="0 0 500 500" version="1.1" xmlns="http://www.w3.org/2000/svg" xmlns:xlink="http://www.w3.org/1999/xlink">
    <!-- Generator: Sketch 3.8.3 (29802) - http://www.bohemiancoding.com/sketch -->
    <title>guard</title>
    <desc>Created with Sketch.</desc>
    <defs></defs>
    <g id="Icons" stroke="none" stroke-width="1" fill="none" fill-rule="evenodd">
        <g id="guard" fill="#9EC843">
            <path d="M205.065089,406.8525 C202.436089,409.4525 198.279089,409.4525 195.673089,406.8525 C193.040089,404.2725 193.040089,400.0325 195.673089,397.4725 L201.909089,391.2125 L201.882089,389.4125 C201.772089,387.3425 202.550089,385.2925 204.047089,383.7825 L219.120089,368.7125 C220.643089,367.2125 222.667089,366.4425 224.773089,366.5225 L226.547089,366.5825 L296.945089,296.2225 C299.551089,293.6325 303.708089,293.6325 306.342089,296.2225 C308.912089,298.7725 308.912089,303.0125 306.342089,305.5925 L235.916089,375.9625 L236.021089,377.7625 C236.107089,379.8425 235.330089,381.9125 233.779089,383.3525 L230.590089,386.6225 L251.299089,407.3325 C253.764089,409.8525 253.764089,413.8725 251.299089,416.3425 C248.833089,418.8325 244.726089,418.8325 242.316089,416.3425 L221.557089,395.6325 L218.733089,398.4625 C217.177089,399.9525 215.158089,400.7925 213.079089,400.6725 L211.278089,400.5925 L205.065089,406.8525 L205.065089,406.8525 Z M193.872089,257.9825 C136.914089,285.0025 107.287089,348.7325 123.333089,409.7025 C203.960089,445.5525 295.954089,445.5525 376.631089,409.7025 C392.677089,348.7325 363.045089,285.0025 306.037089,257.9825 C273.226089,284.0125 226.742089,284.0125 193.872089,257.9825 L193.872089,257.9825 Z M259.003089,75.7625 C260.168089,77.2525 261.082089,78.9125 261.773089,80.6625 C266.067089,91.4825 260.804089,103.7525 249.993089,108.0725 C248.219089,107.3225 246.587089,106.4125 245.090089,105.3025 C235.780089,98.3225 233.920089,85.0725 240.906089,75.7625 C243.785089,77.0325 247.055089,77.0625 249.993089,75.8725 C252.877089,77.0625 256.152089,77.0325 259.003089,75.7625 L259.003089,75.7625 Z M327.937089,107.1325 C327.596089,106.9025 327.241089,106.7425 326.905089,106.6025 C307.643089,98.7825 290.045089,87.3925 274.995089,73.0425 C261.000089,59.6525 238.905089,59.6525 224.937089,73.0425 C209.914089,87.3925 192.317089,98.7825 173.055089,106.6025 C170.144089,107.7625 168.675089,111.1125 169.844089,114.0325 C170.062089,114.4225 170.198089,114.7525 170.448089,115.0625 L185.581089,137.9825 C226.715089,120.4325 273.221089,120.4325 314.406089,137.9825 L329.538089,115.0625 C331.262089,112.4225 330.534089,108.8725 327.937089,107.1325 L327.937089,107.1325 Z M231.150089,246.2125 C263.743089,256.6225 298.664089,238.5825 309.057089,205.9425 C312.941089,193.7125 312.941089,180.5825 309.057089,168.3025 C270.893089,182.1825 229.044089,182.1825 190.907089,168.3025 C180.541089,200.9525 198.529089,235.8225 231.150089,246.2125 L231.150089,246.2125 Z M316.735089,147.0425 L315.652089,156.5225 C273.749089,174.7625 226.215089,174.7625 184.302089,156.5225 L183.256089,147.0425 C225.715089,128.1925 274.217089,128.1925 316.735089,147.0425 L316.735089,147.0425 Z" id="Fill-62"></path>
        </g>
    </g>
</svg>