<?xml version="1.0" encoding="UTF-8"?>
<svg width="500px" height="500px" viewBox="0 0 500 500" version="1.1" xmlns="http://www.w3.org/2000/svg" xmlns:xlink="http://www.w3.org/1999/xlink">
    <!-- Generator: Sketch 3.8.3 (29802) - http://www.bohemiancoding.com/sketch -->
    <title>heart</title>
    <desc>Created with Sketch.</desc>
    <defs></defs>
    <g id="Icons" stroke="none" stroke-width="1" fill="none" fill-rule="evenodd">
        <g id="heart" fill="#F0BD2E">
            <path d="M333.76,244.59 L274.3,366.039 L216.54,177.006 L186.11,244.59 L35.43,244.59 C62.74,295.662 107.6,339.114 149.35,377.83 C181.29,407.448 214.76,435.618 249.62,461.74 C284.48,435.613 317.95,407.442 349.89,377.83 C391.64,339.114 436.5,295.662 463.81,244.59 L333.76,244.59 L333.76,244.59 Z M27.88,228.749 C18.94,208.969 12,187.541 12,165.854 C12,95.245 69.25,38 139.86,38 C186.08,38 226.21,62.76 249.62,99.321 C273.03,62.76 313.16,38 359.38,38 C429.99,38 487.24,95.245 487.24,165.854 C487.24,187.541 480.3,208.969 471.36,228.749 L323.89,228.749 L277.75,323.104 L219.34,131.949 L175.84,228.749 L27.88,228.749 L27.88,228.749 Z" id="Fill-80"></path>
        </g>
    </g>
</svg>