<?xml version="1.0" encoding="UTF-8"?>
<svg width="500px" height="500px" viewBox="0 0 500 500" version="1.1" xmlns="http://www.w3.org/2000/svg" xmlns:xlink="http://www.w3.org/1999/xlink">
    <!-- Generator: Sketch 3.8.3 (29802) - http://www.bohemiancoding.com/sketch -->
    <title>highway-patrol</title>
    <desc>Created with Sketch.</desc>
    <defs></defs>
    <g id="Icons" stroke="none" stroke-width="1" fill="none" fill-rule="evenodd">
        <g id="highway-patrol" fill="#9EC843">
            <path d="M300.91,95.52 L313.8,95.52 L313.8,71 L300.91,71 L300.91,95.52 Z M359.07,153.68 L383.59,153.68 L383.59,140.79 L359.07,140.79 L359.07,153.68 Z M365.81,97.88 L356.7,88.77 L339.37,106.11 L348.48,115.23 L365.81,97.88 L365.81,97.88 Z M116.21,153.68 L140.73,153.68 L140.73,140.79 L116.21,140.79 L116.21,153.68 Z M160.44,106.11 L143.1,88.77 L133.99,97.88 L151.32,115.22 L160.44,106.11 L160.44,106.11 Z M186.01,95.52 L198.89,95.52 L198.89,71 L186.01,71 L186.01,95.52 Z M243.46,95.52 L256.34,95.52 L256.34,71 L243.46,71 L243.46,95.52 Z M370.93,332.62 C359.6,332.62 350.42,323.43 350.42,312.1 C350.42,300.77 359.61,291.58 370.93,291.58 C382.26,291.58 391.45,300.77 391.45,312.1 C391.45,323.43 382.26,332.62 370.93,332.62 L370.93,332.62 Z M173.32,355.68 L326.48,355.68 L326.48,347.09 L173.32,347.09 L173.32,355.68 Z M128.87,332.62 C117.54,332.62 108.36,323.43 108.36,312.1 C108.36,300.77 117.54,291.58 128.87,291.58 C140.2,291.58 149.38,300.77 149.38,312.1 C149.39,323.43 140.2,332.62 128.87,332.62 L128.87,332.62 Z M195.46,321.06 L304.34,321.06 L304.34,312.46 L195.46,312.46 L195.46,321.06 Z M141.63,189.08 C145.28,176.89 159.13,166.59 171.86,166.59 L327.94,166.59 C340.67,166.59 354.52,176.89 358.18,189.08 L374.11,245.25 C374.11,245.25 331.35,255.98 249.9,255.98 C168.49,255.98 125.72,245.25 125.72,245.25 L141.63,189.08 L141.63,189.08 Z M402.53,263.59 C413.16,262.75 421.55,253.96 421.55,243.12 C421.55,231.71 412.31,222.47 400.91,222.48 L381.65,222.48 L370.52,185.38 C365.35,168.16 347.61,154.6 329.64,153.79 C330.25,151.71 330.6,149.52 330.6,147.24 C330.6,134.41 320.19,124 307.36,124 L254.2,124 L254.2,153.71 L245.61,153.71 L245.61,124 L192.45,124 C179.61,124 169.21,134.41 169.21,147.24 C169.21,149.52 169.56,151.71 170.17,153.79 C152.19,154.6 134.45,168.16 129.29,185.38 L118.16,222.48 L98.89,222.48 C87.49,222.47 78.25,231.71 78.25,243.12 C78.25,253.96 86.64,262.75 97.27,263.59 C84.12,269.76 75,283.08 75,298.56 L75,367.77 C75,376.72 82.25,383.97 91.2,383.97 L408.6,383.97 C417.55,383.97 424.8,376.72 424.8,367.77 L424.8,298.56 C424.81,283.08 415.68,269.76 402.53,263.59 L402.53,263.59 Z M90.7,417.9 C90.7,424.72 96.28,430.3 103.1,430.3 L128.6,430.3 C135.41,430.3 140.99,424.72 140.99,417.9 L140.99,392.51 L90.7,392.51 L90.7,417.9 L90.7,417.9 Z M358.8,417.9 C358.8,424.72 364.39,430.3 371.21,430.3 L396.7,430.3 C403.53,430.3 409.1,424.72 409.1,417.9 L409.1,392.51 L358.8,392.51 L358.8,417.9 L358.8,417.9 Z" id="Fill-68"></path>
        </g>
    </g>
</svg>