<?xml version="1.0" encoding="UTF-8"?>
<svg width="500px" height="500px" viewBox="0 0 500 500" version="1.1" xmlns="http://www.w3.org/2000/svg" xmlns:xlink="http://www.w3.org/1999/xlink">
    <!-- Generator: Sketch 3.8.3 (29802) - http://www.bohemiancoding.com/sketch -->
    <title>idh-white</title>
    <desc>Created with Sketch.</desc>
    <defs></defs>
    <g id="Icons" stroke="none" stroke-width="1" fill="none" fill-rule="evenodd">
        <g id="idh-white" fill="#FFFFFF">
            <path d="M446.92,403.93 L384.58,403.93 L393.11,296.63 L394.75,276.93 L412.69,276.93 C422.59,276.93 428.78,268.08 426.45,257.36 L408.68,175.46 C406.35,164.73 395.47,155.93 384.48,155.93 L315.63,155.93 C304.64,155.93 293.75,164.7 291.43,175.42 L273.66,257.36 C271.33,268.09 277.19,276.93 286.67,276.93 L303.8,276.93 L305.48,296.63 L314.01,403.93 L246.52,403.93 C246.53,402.93 246,403.42 246,403.28 L246,178.23 C246,176.71 247.7,175.93 249.22,175.93 L259.14,175.93 C261.05,175.93 262.19,173.07 260.67,171.17 L229.39,139.8 C228.24,138.66 226.72,138.61 225.57,139.75 L194.3,171.19 C192.77,172.72 193.91,175.93 196.2,175.93 L206.12,175.93 C207.65,175.93 209,176.71 209,178.23 L209,403.28 C209,403.42 208.81,402.93 208.83,403.93 L187.16,403.93 C187.18,402.93 187,403.42 187,403.28 L187,231.93 C187,230.41 186.05,228.93 184.53,228.93 L152.1,228.93 C150.58,228.93 150,230.41 150,231.93 L150,403.28 C150,403.42 149.45,402.93 149.47,403.93 L130.89,403.93 C130.94,402.93 131,403.42 131,403.28 L131,311.36 C131,309.83 129.87,308.93 128.35,308.93 L95.93,308.93 C94.4,308.93 93,309.83 93,311.36 L93,403.28 C93,403.42 93.27,402.93 93.29,403.93 L53.07,403.93 C49.56,403.93 47,404.82 47,406.34 L47,438.76 C47,440.29 49.56,440.93 53.07,440.93 L446.92,440.93 C450.43,440.93 453,440.29 453,438.76 L453,406.34 C453,404.82 450.43,403.93 446.92,403.93 L446.92,403.93 Z M310.23,99.82 C310.23,77.82 328.05,60 350.04,60 C372.04,60 389.86,77.82 389.86,99.82 C389.86,121.8 372.04,139.63 350.04,139.63 C328.05,139.63 310.23,121.8 310.23,99.82 L310.23,99.82 Z" id="Fill-72"></path>
        </g>
    </g>
</svg>