<?xml version="1.0" encoding="UTF-8"?>
<svg width="500px" height="500px" viewBox="0 0 500 500" version="1.1" xmlns="http://www.w3.org/2000/svg" xmlns:xlink="http://www.w3.org/1999/xlink">
    <!-- Generator: Sketch 3.8.3 (29802) - http://www.bohemiancoding.com/sketch -->
    <title>no-smoking</title>
    <desc>Created with Sketch.</desc>
    <defs></defs>
    <g id="Icons" stroke="none" stroke-width="1" fill="none" fill-rule="evenodd">
        <g id="no-smoking" fill="#9EC843">
            <path d="M390.17,367.82 L132.034,109.69 C163.932,82.84 205.06,66.62 249.925,66.62 C351.008,66.62 433.245,148.85 433.245,249.94 C433.245,294.8 417.023,335.93 390.17,367.82 L390.17,367.82 Z M249.93,433.25 C148.847,433.25 66.61,351.01 66.61,249.93 C66.61,205.07 82.832,163.93 109.685,132.04 L367.816,390.17 C335.923,417.03 294.794,433.25 249.93,433.25 L249.93,433.25 Z M249.93,35 C131.417,35 35,131.41 35,249.93 C35,368.45 131.412,464.86 249.93,464.86 C368.448,464.86 464.855,368.44 464.855,249.93 C464.855,131.42 368.443,35 249.93,35 L249.93,35 Z M402.363,272.33 L406.129,272.33 L406.129,234.69 L402.363,234.69 L402.363,272.33 Z M394.841,272.33 L398.597,272.33 L398.597,234.69 L394.841,234.69 L394.841,272.33 Z M387.309,272.33 L391.065,272.33 L391.065,234.69 L387.309,234.69 L387.309,272.33 Z M207.295,268.56 L380.434,268.56 L380.434,238.45 L207.295,238.45 L207.295,268.56 Z M380.434,234.69 L94.378,234.69 L94.378,272.33 L384.195,272.33 L384.195,234.69 L380.434,234.69 L380.434,234.69 Z" id="Fill-58"></path>
        </g>
    </g>
</svg>