<?xml version="1.0" encoding="UTF-8"?>
<svg width="500px" height="500px" viewBox="0 0 500 500" version="1.1" xmlns="http://www.w3.org/2000/svg" xmlns:xlink="http://www.w3.org/1999/xlink">
    <!-- Generator: Sketch 3.8.3 (29802) - http://www.bohemiancoding.com/sketch -->
    <title>pin-trip-8</title>
    <desc>Created with Sketch.</desc>
    <defs></defs>
    <g id="Icons" stroke="none" stroke-width="1" fill="none" fill-rule="evenodd">
        <g id="pin-trip-8">
            <g id="Group" transform="translate(68.000000, 0.000000)">
                <path d="M182,0 C81.54,0 0.17,81.36 0.17,181.83 C0.17,329.57 182,500 182,500 C182,500 363.83,329.57 363.83,181.83 C363.7,81.36 282.33,0 182,0" id="Fill-37" fill="#4E4E4B"></path>
                <path d="M319.56,181.54 C319.56,257.51 257.97,319.1 182,319.1 C106.03,319.1 44.44,257.51 44.44,181.54 C44.44,105.57 106.03,43.99 182,43.99 C257.97,43.99 319.56,105.57 319.56,181.54" id="Fill-38" fill="#FFFFFF"></path>
                <path d="M184.62,113.69 C170.92,113.69 158.15,122.01 159.95,137.1 C161.55,150.47 174.41,156.88 185.29,162 C196.74,156.94 208.95,149.57 209.7,135.69 C210.49,121.02 197.88,113.69 184.62,113.69 L184.62,113.69 Z M154.54,216.67 C154.54,242.23 192.01,248.81 208.2,233.64 C216.95,225.44 217.35,211.75 210.13,202.44 C203.25,193.57 192.19,189.05 182.27,184.58 C168.6,190.59 154.54,200.09 154.54,216.67 L154.54,216.67 Z M184.84,93.45 C206.01,93.45 230.45,102.03 234.55,125.57 C238.37,147.52 223.46,163.62 204.97,172.73 C226.83,183.66 245.97,201.61 239.01,228.37 C232.77,252.33 207.67,261.22 185.29,261.29 C163.67,261.36 138.23,254.45 131.25,231.29 C123.39,205.2 139.73,184.55 162.14,173.62 C144.01,162.8 129.79,144.97 135.63,122.62 C141.21,101.21 165.03,93.45 184.84,93.45 L184.84,93.45 Z" id="Fill-39" fill="#4E4E4B"></path>
            </g>
        </g>
    </g>
</svg>