<?xml version="1.0" encoding="UTF-8"?>
<svg width="500px" height="500px" viewBox="0 0 500 500" version="1.1" xmlns="http://www.w3.org/2000/svg" xmlns:xlink="http://www.w3.org/1999/xlink">
    <!-- Generator: Sketch 3.8.3 (29802) - http://www.bohemiancoding.com/sketch -->
    <title>pin-event</title>
    <desc>Created with Sketch.</desc>
    <defs></defs>
    <g id="Icons" stroke="none" stroke-width="1" fill="none" fill-rule="evenodd">
        <g id="pin-event">
            <circle id="Oval-1" fill="#338BD3" cx="250" cy="175.28125" r="175.28125"></circle>
            <path d="M222.146714,160.407637 L203.851733,160.407637 L203.851733,178.702617 L222.146714,178.702617 L222.146714,160.407637 L222.146714,160.407637 Z M258.736675,160.407637 L240.441694,160.407637 L240.441694,178.702617 L258.736675,178.702617 L258.736675,160.407637 L258.736675,160.407637 Z M295.326636,160.407637 L277.031655,160.407637 L277.031655,178.702617 L295.326636,178.702617 L295.326636,160.407637 L295.326636,160.407637 Z M222.146714,193.272871 L203.851733,193.272871 L203.851733,211.567852 L222.146714,211.567852 L222.146714,193.272871 L222.146714,193.272871 Z M258.736675,193.272871 L240.441694,193.272871 L240.441694,211.567852 L258.736675,211.567852 L258.736675,193.272871 L258.736675,193.272871 Z M295.326636,193.272871 L277.031655,193.272871 L277.031655,211.567852 L295.326636,211.567852 L295.326636,193.272871 L295.326636,193.272871 Z M313.621616,96.3752051 L304.474126,96.3752051 L304.474126,78.0802246 L286.179146,78.0802246 L286.179146,96.3752051 L212.999224,96.3752051 L212.999224,78.0802246 L194.704243,78.0802246 L194.704243,96.3752051 L185.556753,96.3752051 C175.403039,96.3752051 167.353247,104.607946 167.353247,114.670186 L167.261772,242.735049 C167.261772,252.797288 175.403039,261.030029 185.556753,261.030029 L313.621616,261.030029 C323.683855,261.030029 331.916597,252.797288 331.916597,242.735049 L331.916597,114.670186 C331.916597,104.607946 323.683855,96.3752051 313.621616,96.3752051 L313.621616,96.3752051 Z M313.621616,242.735049 L185.556753,242.735049 L185.556753,142.112656 L313.621616,142.112656 L313.621616,242.735049 L313.621616,242.735049 Z" id="Shape" fill="#FFFFFF"></path>
        </g>
    </g>
</svg>