<?xml version="1.0" encoding="UTF-8"?>
<svg width="500px" height="500px" viewBox="0 0 500 500" version="1.1" xmlns="http://www.w3.org/2000/svg" xmlns:xlink="http://www.w3.org/1999/xlink">
    <!-- Generator: Sketch 3.8.3 (29802) - http://www.bohemiancoding.com/sketch -->
    <title>pin-trips</title>
    <desc>Created with Sketch.</desc>
    <defs></defs>
    <g id="Icons" stroke="none" stroke-width="1" fill="none" fill-rule="evenodd">
        <g id="pin-trips">
            <g id="Group" transform="translate(102.000000, 0.000000)">
                <path d="M358.9,204.95 C356.48,201.59 357.24,196.9 360.6,194.48 C362.29,193.26 362.99,193.05 364.69,191.86 C368.08,189.48 372.76,190.3 375.14,193.69 C377.52,197.08 376.7,201.75 373.31,204.13 C371.66,205.29 371.01,205.46 369.37,206.65 C368.04,207.6 366.51,208.06 364.99,208.06 C362.66,208.06 360.37,206.98 358.9,204.95 Z M329.52,228.95 C326.7,225.91 326.88,221.17 329.92,218.35 C333.53,215 334.4,214.59 338.44,211.19 C341.62,208.53 346.35,208.94 349.01,212.11 C351.67,215.29 351.26,220.02 348.09,222.68 C344.24,225.91 343.55,226.17 340.12,229.35 C338.68,230.69 336.85,231.350001 335.02,231.350001 C333.01,231.35 331,230.54 329.52,228.95 Z M304.5,266.19 C303.09,266.19 301.66,265.79 300.4,264.96 C296.93,262.69 295.97,258.04 298.24,254.58 C300.98,250.39 304.13,246.12 307.58,241.88 C310.19,238.67 314.92,238.18 318.13,240.79 C321.34,243.41 321.82,248.13 319.21,251.34 C316.08,255.19 313.25,259.04 310.78,262.8 C309.34,265 306.95,266.19 304.5,266.19 L304.5,266.19 Z M289.66,308.04 L289.43,308.04 C285.29,307.91 282.03,304.45 282.16,300.31 C282.33,294.89 283.17,289.35 284.65,283.82 C285.72,279.82 289.83,277.44 293.83,278.51 C297.84,279.59 300.21,283.7 299.14,287.7 C297.96,292.11 297.29,296.51 297.16,300.78 C297.03,304.84 293.7,308.04 289.66,308.04 L289.66,308.04 Z M304.45,349.48 C302.22,349.48 300.02,348.49 298.54,346.6 C294.91,341.97 291.99,337.48 289.61,332.87 C287.72,329.19 289.16,324.66 292.85,322.76 C296.53,320.87 301.05,322.31 302.95,326 C304.89,329.76 307.31,333.47 310.34,337.35 C312.9,340.61 312.33,345.32 309.07,347.88 C307.7,348.95 306.07,349.48 304.45,349.48 L304.45,349.48 Z M330.55,379.33 C327.27,375.95 323.75,372.62 320.02,369.09 C320.02,369.09 312.318359,363.914063 317.701172,357.19 C323.083984,350.465937 330.33,358.19 330.33,358.19 C334.01,361.68 337.81,365.28 341.31,368.88 C344.2,371.85 344.13,376.6 341.16,379.49 C339.7,380.9 337.81,381.61 335.93,381.61 C333.98,381.61 332.02,380.85 330.55,379.33 Z M353.95,421.04 C353.69,421.04 353.42,421.03 353.14,421 C349.02,420.56 346.04,416.86 346.49,412.74 L346.54,412.27 C346.62,411.35 346.67,410.4 346.67,409.48 C346.67,406.58 346.24,403.81 345.36,401 C344.11,397.05 346.31,392.84 350.26,391.6 C354.21,390.35 358.42,392.55 359.67,396.5 C360.99,400.73 361.67,405.09 361.67,409.48 C361.67,410.87 361.6,412.29 361.47,413.7 L361.4,414.34 C360.99,418.19 357.74,421.04 353.95,421.04 L353.95,421.04 Z M150.24,433.69 C147.15,433.69 144.26,431.76 143.17,428.68 C141.41,423.67 140.04,418.38 139.11,412.95 C138.4,408.87 141.15,404.99 145.23,404.29 C149.31,403.58 153.19,406.33 153.89,410.41 C154.68,415.01 155.83,419.48 157.32,423.7 C158.69,427.6 156.64,431.89 152.74,433.26 C151.91,433.55 151.07,433.69 150.24,433.69 L150.24,433.69 Z M330.57,458.15 C328.4,458.15 326.24,457.21 324.76,455.39 C322.14,452.19 322.61,447.46 325.82,444.84 C329.56,441.79 332.86,438.6 335.65,435.35 C338.34,432.21 343.08,431.84 346.22,434.54 C349.37,437.24 349.73,441.98 347.03,445.12 C343.67,449.03 339.73,452.85 335.31,456.46 C333.92,457.59 332.24,458.15 330.57,458.15 L330.57,458.15 Z M176.24,469.6 C174.67,469.6 173.08,469.11 171.73,468.08 C167.32,464.75 163.26,460.99 159.64,456.91 C156.9,453.81 157.19,449.07 160.29,446.32 C163.39,443.58 168.13,443.87 170.87,446.97 C173.83,450.31 177.16,453.39 180.78,456.12 C184.08,458.62 184.73,463.32 182.23,466.63 C180.76,468.57 178.51,469.6 176.24,469.6 L176.24,469.6 Z M291.3,479.74 C288.23,479.74 285.35,477.85 284.24,474.79 C282.83,470.9 284.85,466.6 288.74,465.19 C293.25,463.56 297.68,461.71 301.92,459.69 C305.66,457.91 310.13,459.5 311.92,463.24 C313.69,466.98 312.11,471.46 308.37,473.24 C303.69,475.46 298.81,477.5 293.85,479.29 C293.01,479.6 292.14,479.74 291.3,479.74 L291.3,479.74 Z M217.45,486.69 C217.01,486.69 216.57,486.65 216.12,486.57 C210.75,485.61 205.53,484.33 200.6,482.76 C196.65,481.5 194.47,477.28 195.73,473.33 C196.99,469.39 201.21,467.21 205.15,468.46 C209.46,469.84 214.04,470.96 218.76,471.81 C222.84,472.54 225.55,476.43 224.82,480.51 C224.17,484.14 221.01,486.69 217.45,486.69 L217.45,486.69 Z M247.33,488.63 C243.33,488.63 240.01,485.48 239.84,481.44 C239.67,477.31 242.88,473.81 247.02,473.64 C248.07,473.59 248.93,473.54 249.58,473.51 C253.32,473.3 257.2,472.89 261.14,472.29 C265.22,471.66 269.06,474.48 269.68,478.57 C270.31,482.67 267.49,486.49 263.4,487.12 C259,487.79 254.63,488.25 250.42,488.48 C249.72,488.52 248.79,488.57 247.65,488.62 C247.54,488.63 247.44,488.63 247.33,488.63 L247.33,488.63 Z" id="Fill-4" fill="#E0C02B"></path>
                <path d="M146,0 C65.63,0 0.54,65.09 0.54,145.46 C0.54,263.66 146,400 146,400 C146,400 291.46,263.66 291.46,145.46 C291.36,65.09 226.27,0 146,0" id="Fill-5" fill="#E0C02B"></path>
                <path d="M214.14,137 C214.14,174.63 183.63,205.13 146,205.13 C108.37,205.13 77.86,174.63 77.86,137 C77.86,99.36 108.37,68.86 146,68.86 C183.63,68.86 214.14,99.36 214.14,137" id="Fill-6" fill="#FFFFFF"></path>
            </g>
        </g>
    </g>
</svg>