<?xml version="1.0" encoding="UTF-8"?>
<svg width="500px" height="500px" viewBox="0 0 500 500" version="1.1" xmlns="http://www.w3.org/2000/svg" xmlns:xlink="http://www.w3.org/1999/xlink">
    <!-- Generator: Sketch 3.8.3 (29802) - http://www.bohemiancoding.com/sketch -->
    <title>pin-food</title>
    <desc>Created with Sketch.</desc>
    <defs></defs>
    <g id="Icons" stroke="none" stroke-width="1" fill="none" fill-rule="evenodd">
        <g id="pin-food">
            <g id="category-pin" transform="translate(68.000000, 0.000000)">
                <path d="M181.83,0 C81.369,0 0,81.36 0,181.83 C0,329.57 181.83,500 181.83,500 C181.83,500 363.66,329.57 363.66,181.83 C363.532,81.36 282.163,0 181.83,0" id="pin" fill="#CD2232"></path>
                <path d="M332.144605,180.123992 C332.144605,262.966878 264.983087,330.135 182.138,330.135 C99.292913,330.135 32.1313955,262.966878 32.1313955,180.123992 C32.1313955,97.281107 99.292913,30.135 182.138,30.135 C264.983087,30.135 332.144605,97.281107 332.144605,180.123992" id="hole" fill="#FFFFFF"></path>
            </g>
            <path d="M240.965774,153.33871 L223.897321,153.33871 L223.897321,93.4623656 L206.828869,93.4623656 L206.828869,153.33871 L189.760417,153.33871 L189.760417,93.4623656 L172.691964,93.4623656 L172.691964,153.33871 C172.691964,171.472688 186.85878,186.185161 204.695312,187.297151 L204.695312,264.537634 L226.030878,264.537634 L226.030878,187.297151 C243.867411,186.185161 258.034226,171.472688 258.034226,153.33871 L258.034226,93.4623656 L240.965774,93.4623656 L240.965774,153.33871 L240.965774,153.33871 Z M283.636905,127.677419 L283.636905,196.107527 L304.97247,196.107527 L304.97247,264.537634 L326.308036,264.537634 L326.308036,93.4623656 C302.753571,93.4623656 283.636905,112.622796 283.636905,127.677419 L283.636905,127.677419 Z" id="Shape" fill="#CD2232"></path>
        </g>
    </g>
</svg>