<?xml version="1.0" encoding="UTF-8"?>
<svg width="500px" height="500px" viewBox="0 0 500 500" version="1.1" xmlns="http://www.w3.org/2000/svg" xmlns:xlink="http://www.w3.org/1999/xlink">
    <!-- Generator: Sketch 3.8.3 (29802) - http://www.bohemiancoding.com/sketch -->
    <title>pin-transportation</title>
    <desc>Created with Sketch.</desc>
    <defs></defs>
    <g id="Icons" stroke="none" stroke-width="1" fill="none" fill-rule="evenodd">
        <g id="pin-transportation">
            <g id="category-pin" transform="translate(68.000000, 0.000000)">
                <path d="M181.83,0 C81.369,0 0,81.36 0,181.83 C0,329.57 181.83,500 181.83,500 C181.83,500 363.66,329.57 363.66,181.83 C363.532,81.36 282.163,0 181.83,0" id="pin" fill="#3891CD"></path>
                <path d="M332.144605,180.123992 C332.144605,262.966878 264.983087,330.135 182.138,330.135 C99.292913,330.135 32.1313955,262.966878 32.1313955,180.123992 C32.1313955,97.281107 99.292913,30.135 182.138,30.135 C264.983087,30.135 332.144605,97.281107 332.144605,180.123992" id="hole" fill="#FFFFFF"></path>
            </g>
            <g id="Group" transform="translate(167.000000, 76.000000)" fill="#3891CD">
                <path d="M0.777777778,146.978558 C0.777777778,156.155945 4.83486111,164.394737 11.1805556,170.130604 L11.1805556,188.693957 C11.1805556,194.429825 15.8618056,199.122807 21.5833333,199.122807 L31.9861111,199.122807 C37.7076389,199.122807 42.3888889,194.429825 42.3888889,188.693957 L42.3888889,178.265107 L125.611111,178.265107 L125.611111,188.693957 C125.611111,194.429825 130.292361,199.122807 136.013889,199.122807 L146.416667,199.122807 C152.138194,199.122807 156.819444,194.429825 156.819444,188.693957 L156.819444,170.130604 C163.165139,164.394737 167.222222,156.155945 167.222222,146.978558 L167.222222,42.6900585 C167.222222,6.18908382 129.980278,0.974658869 84,0.974658869 C38.0197222,0.974658869 0.777777778,6.18908382 0.777777778,42.6900585 L0.777777778,146.978558 L0.777777778,146.978558 Z M37.1875,157.407407 C28.5531944,157.407407 21.5833333,150.420078 21.5833333,141.764133 C21.5833333,133.108187 28.5531944,126.120858 37.1875,126.120858 C45.8218056,126.120858 52.7916667,133.108187 52.7916667,141.764133 C52.7916667,150.420078 45.8218056,157.407407 37.1875,157.407407 L37.1875,157.407407 Z M130.8125,157.407407 C122.178194,157.407407 115.208333,150.420078 115.208333,141.764133 C115.208333,133.108187 122.178194,126.120858 130.8125,126.120858 C139.446806,126.120858 146.416667,133.108187 146.416667,141.764133 C146.416667,150.420078 139.446806,157.407407 130.8125,157.407407 L130.8125,157.407407 Z M146.416667,94.834308 L21.5833333,94.834308 L21.5833333,42.6900585 L146.416667,42.6900585 L146.416667,94.834308 L146.416667,94.834308 Z" id="Shape"></path>
            </g>
        </g>
    </g>
</svg>