<?xml version="1.0" encoding="UTF-8"?>
<svg width="500px" height="500px" viewBox="0 0 500 500" version="1.1" xmlns="http://www.w3.org/2000/svg" xmlns:xlink="http://www.w3.org/1999/xlink">
    <!-- Generator: Sketch 3.8.3 (29802) - http://www.bohemiancoding.com/sketch -->
    <title>pin-lodging</title>
    <desc>Created with Sketch.</desc>
    <defs></defs>
    <g id="Icons" stroke="none" stroke-width="1" fill="none" fill-rule="evenodd">
        <g id="pin-lodging">
            <g id="category-pin" transform="translate(68.000000, 0.000000)">
                <path d="M181.83,0 C81.369,0 0,81.36 0,181.83 C0,329.57 181.83,500 181.83,500 C181.83,500 363.66,329.57 363.66,181.83 C363.532,81.36 282.163,0 181.83,0" id="pin" fill="#1E699A"></path>
                <path d="M332.144605,180.123992 C332.144605,262.966878 264.983087,330.135 182.138,330.135 C99.292913,330.135 32.1313955,262.966878 32.1313955,180.123992 C32.1313955,97.281107 99.292913,30.135 182.138,30.135 C264.983087,30.135 332.144605,97.281107 332.144605,180.123992" id="hole" fill="#FFFFFF"></path>
            </g>
            <path d="M204.411319,186.860352 C219.878761,186.860352 232.364528,174.375059 232.364528,158.908203 C232.364528,143.441348 219.878761,130.956055 204.411319,130.956055 C188.943877,130.956055 176.458111,143.441348 176.458111,158.908203 C176.458111,174.375059 188.943877,186.860352 204.411319,186.860352 L204.411319,186.860352 Z M316.224153,130.956055 L241.682264,130.956055 L241.682264,196.177734 L167.140374,196.177734 L167.140374,112.321289 L148.504902,112.321289 L148.504902,252.082031 L167.140374,252.082031 L167.140374,224.129883 L334.859626,224.129883 L334.859626,252.082031 L353.495098,252.082031 L353.495098,168.225586 C353.495098,147.63417 336.81635,130.956055 316.224153,130.956055 L316.224153,130.956055 Z" id="Shape" fill="#1E699A"></path>
        </g>
    </g>
</svg>