<?xml version="1.0" encoding="UTF-8"?>
<svg width="500px" height="500px" viewBox="0 0 500 500" version="1.1" xmlns="http://www.w3.org/2000/svg" xmlns:xlink="http://www.w3.org/1999/xlink">
    <!-- Generator: Sketch 3.8.3 (29802) - http://www.bohemiancoding.com/sketch -->
    <title>pin-entertainment</title>
    <desc>Created with Sketch.</desc>
    <defs></defs>
    <g id="Icons" stroke="none" stroke-width="1" fill="none" fill-rule="evenodd">
        <g id="pin-entertainment">
            <g id="category-pin" transform="translate(68.000000, 0.000000)">
                <path d="M181.83,0 C81.369,0 0,81.36 0,181.83 C0,329.57 181.83,500 181.83,500 C181.83,500 363.66,329.57 363.66,181.83 C363.532,81.36 282.163,0 181.83,0" id="pin" fill="#E6581A"></path>
                <path d="M332.144605,180.123992 C332.144605,262.966878 264.983087,330.135 182.138,330.135 C99.292913,330.135 32.1313955,262.966878 32.1313955,180.123992 C32.1313955,97.281107 99.292913,30.135 182.138,30.135 C264.983087,30.135 332.144605,97.281107 332.144605,180.123992" id="hole" fill="#FFFFFF"></path>
            </g>
            <path d="M328.03012,178.5 C328.03012,167.84375 336.752259,159.125 347.412651,159.125 L347.412651,120.375 C347.412651,109.71875 338.690512,101 328.03012,101 L172.96988,101 C162.309488,101 153.684262,109.71875 153.684262,120.375 L153.684262,159.125 C164.344654,159.125 172.96988,167.84375 172.96988,178.5 C172.96988,189.15625 164.344654,197.875 153.587349,197.875 L153.587349,236.625 C153.587349,247.28125 162.309488,256 172.96988,256 L328.03012,256 C338.690512,256 347.412651,247.28125 347.412651,236.625 L347.412651,197.875 C336.752259,197.875 328.03012,189.15625 328.03012,178.5 L328.03012,178.5 Z M285.194729,225 L250.5,202.71875 L215.805271,225 L226.271837,185.0875 L194.387575,159.028125 L235.478539,156.60625 L250.5,118.4375 L265.424548,156.703125 L306.515512,159.125 L274.63125,185.184375 L285.194729,225 L285.194729,225 Z" id="Shape" fill="#E6581A"></path>
        </g>
    </g>
</svg>