<?xml version="1.0" encoding="UTF-8"?>
<svg width="500px" height="500px" viewBox="0 0 500 500" version="1.1" xmlns="http://www.w3.org/2000/svg" xmlns:xlink="http://www.w3.org/1999/xlink">
    <!-- Generator: Sketch 3.8.3 (29802) - http://www.bohemiancoding.com/sketch -->
    <title>pin-venue</title>
    <desc>Created with Sketch.</desc>
    <defs></defs>
    <g id="Icons" stroke="none" stroke-width="1" fill="none" fill-rule="evenodd">
        <g id="pin-venue">
            <g id="category-pin" transform="translate(68.000000, 0.000000)">
                <path d="M181.83,0 C81.369,0 0,81.36 0,181.83 C0,329.57 181.83,500 181.83,500 C181.83,500 363.66,329.57 363.66,181.83 C363.532,81.36 282.163,0 181.83,0" id="pin" fill="#E5C427"></path>
                <path d="M332.144605,180.123992 C332.144605,262.966878 264.983087,330.135 182.138,330.135 C99.292913,330.135 32.1313955,262.966878 32.1313955,180.123992 C32.1313955,97.281107 99.292913,30.135 182.138,30.135 C264.983087,30.135 332.144605,97.281107 332.144605,180.123992" id="hole" fill="#FFFFFF"></path>
            </g>
            <path d="M253,94.5 L161.333333,94.5 L161.333333,259.5 L344.666667,259.5 L344.666667,131.166667 L253,131.166667 L253,94.5 Z M198,241.166667 L179.666667,241.166667 L179.666667,222.833333 L198,222.833333 L198,241.166667 L198,241.166667 Z M198,204.5 L179.666667,204.5 L179.666667,186.166667 L198,186.166667 L198,204.5 L198,204.5 Z M198,167.833333 L179.666667,167.833333 L179.666667,149.5 L198,149.5 L198,167.833333 L198,167.833333 Z M198,131.166667 L179.666667,131.166667 L179.666667,112.833333 L198,112.833333 L198,131.166667 L198,131.166667 Z M234.666667,241.166667 L216.333333,241.166667 L216.333333,222.833333 L234.666667,222.833333 L234.666667,241.166667 L234.666667,241.166667 Z M234.666667,204.5 L216.333333,204.5 L216.333333,186.166667 L234.666667,186.166667 L234.666667,204.5 L234.666667,204.5 Z M234.666667,167.833333 L216.333333,167.833333 L216.333333,149.5 L234.666667,149.5 L234.666667,167.833333 L234.666667,167.833333 Z M234.666667,131.166667 L216.333333,131.166667 L216.333333,112.833333 L234.666667,112.833333 L234.666667,131.166667 L234.666667,131.166667 Z M326.333333,241.166667 L253,241.166667 L253,222.833333 L271.333333,222.833333 L271.333333,204.5 L253,204.5 L253,186.166667 L271.333333,186.166667 L271.333333,167.833333 L253,167.833333 L253,149.5 L326.333333,149.5 L326.333333,241.166667 L326.333333,241.166667 Z M308,167.833333 L289.666667,167.833333 L289.666667,186.166667 L308,186.166667 L308,167.833333 L308,167.833333 Z M308,204.5 L289.666667,204.5 L289.666667,222.833333 L308,222.833333 L308,204.5 L308,204.5 Z" id="Shape" fill="#E5C427"></path>
        </g>
    </g>
</svg>