<?xml version="1.0" encoding="UTF-8"?>
<svg width="500px" height="500px" viewBox="0 0 500 500" version="1.1" xmlns="http://www.w3.org/2000/svg" xmlns:xlink="http://www.w3.org/1999/xlink">
    <!-- Generator: Sketch 3.8.3 (29802) - http://www.bohemiancoding.com/sketch -->
    <title>pin-about</title>
    <desc>Created with Sketch.</desc>
    <defs></defs>
    <g id="Icons" stroke="none" stroke-width="1" fill="none" fill-rule="evenodd">
        <g id="pin-about">
            <path d="M248,0 C167.63,0 102.54,65.09 102.54,145.46 C102.54,263.66 248,400 248,400 C248,400 393.46,263.66 393.46,145.46 C393.36,65.09 328.27,0 248,0" id="Pin" fill="#DF542C"></path>
            <g id="Group-2" transform="translate(181.944521, 43.321411)" fill="#FFFFFF">
                <path d="M6.59864043,78.2772944 L19.701655,78.2772944 L19.701655,162.029481 L39.2985697,162.029481 L39.2985697,90.2674129 L58.5184192,90.2674129 L58.5184192,162.029481 L78.1258079,162.029481 L78.1258079,90.2674129 L97.3456574,90.2674129 L97.3456574,162.029481 L116.942572,162.029481 L116.942572,78.2772944 L129.658047,78.2772944 C131.574795,78.2772944 133.19827,77.6993308 134.350414,76.6484878 C135.58635,75.5976448 136.162422,74.1579899 136.162422,72.424099 C136.162422,70.5115647 135.303551,68.8827581 133.575336,67.7268308 L133.575336,67.3485273 L133.292537,67.3485273 L71.5271675,35.2978161 L71.5271675,25.8087039 C75.1616567,27.5320864 80.7024199,27.7212381 88.0656647,26.5758192 C95.4289095,25.3253161 101.839017,25.7036196 107.096982,27.6266622 L107.096982,6.90403845 C102.02755,4.99150421 95.6174421,4.6026923 88.0656647,5.85319546 C80.419621,7.09319019 74.9626501,6.80946258 71.5271675,5.08608008 L71.5271675,3.64642518 C71.5271675,1.72338251 70.4692902,0.767115384 68.2697434,0.767115384 C66.0701966,0.767115384 65.0227933,1.72338251 65.0227933,3.64642518 L65.0227933,35.2978161 L3.24695005,67.3485273 L2.86988489,67.3485273 L2.86988489,67.7268308 C0.953136951,68.9773339 2.84217094e-14,70.5115647 2.84217094e-14,72.424099 C2.84217094e-14,74.1579899 0.670338076,75.5030689 2.01101423,76.6484878 C3.35169038,77.8044151 4.88089911,78.2772944 6.59864043,78.2772944" id="Fill-10"></path>
                <polyline id="Fill-11" points="13.1030146 170.078938 2.84217094e-14 182.069057 136.162422 182.069057 123.541213 170.078938 13.1030146 170.078938"></polyline>
            </g>
        </g>
    </g>
</svg>