<?xml version="1.0" encoding="UTF-8"?>
<svg width="500px" height="500px" viewBox="0 0 500 500" version="1.1" xmlns="http://www.w3.org/2000/svg" xmlns:xlink="http://www.w3.org/1999/xlink">
    <!-- Generator: Sketch 3.8.3 (29802) - http://www.bohemiancoding.com/sketch -->
    <title>pin-trip-10</title>
    <desc>Created with Sketch.</desc>
    <defs></defs>
    <g id="Icons" stroke="none" stroke-width="1" fill="none" fill-rule="evenodd">
        <g id="pin-trip-10">
            <g id="Group" transform="translate(68.000000, 0.000000)">
                <path d="M182,0 C81.539,0 0.17,81.36 0.17,181.83 C0.17,329.57 182,500 182,500 C182,500 363.83,329.57 363.83,181.83 C363.7,81.36 282.333,0 182,0" id="Fill-43" fill="#4E4E4B"></path>
                <path d="M319.555,181.54 C319.555,257.51 257.97,319.1 182,319.1 C106.03,319.1 44.444,257.51 44.444,181.54 C44.444,105.57 106.03,43.99 182,43.99 C257.97,43.99 319.555,105.57 319.555,181.54" id="Fill-44" fill="#FFFFFF"></path>
                <path d="M153.414,259.05 L127.137,259.05 C127.137,214.18 124.406,168.3 128.031,123.53 C118.627,133.34 107.121,141.5 96.611,150.03 L83.416,133.37 L131.498,95.58 L153.414,95.58 L153.414,259.05" id="Fill-45" fill="#4E4E4B"></path>
                <path d="M199.012,177.31 C199.012,197.52 198.527,239.39 227.861,239.37 C257.132,239.35 256.934,197.64 256.934,177.31 C256.933,157.04 257.111,115.06 227.861,115.03 C198.509,115.01 199.012,157.16 199.012,177.31 L199.012,177.31 Z M283.434,177.31 C283.434,204.55 280.291,242.31 252.418,256.12 C224.266,270.06 192.218,256.77 180.563,228.57 C161.66,182.83 167.674,77.91 240.716,94.36 C277.174,102.57 283.434,146.12 283.434,177.31 L283.434,177.31 Z" id="Fill-46" fill="#4E4E4B"></path>
            </g>
        </g>
    </g>
</svg>