<?xml version="1.0" encoding="UTF-8"?>
<svg width="500px" height="500px" viewBox="0 0 500 500" version="1.1" xmlns="http://www.w3.org/2000/svg" xmlns:xlink="http://www.w3.org/1999/xlink">
    <!-- Generator: Sketch 3.8.3 (29802) - http://www.bohemiancoding.com/sketch -->
    <title>pin-search</title>
    <desc>Created with Sketch.</desc>
    <defs></defs>
    <g id="Icons" stroke="none" stroke-width="1" fill="none" fill-rule="evenodd">
        <g id="pin-search">
            <circle id="Oval-1" fill="#333333" cx="250" cy="175.417969" r="175.417969"></circle>
            <path d="M288.030111,198.144611 L279.970284,198.144611 L277.113637,195.389987 C287.111903,183.75935 293.131268,168.659928 293.131268,152.234205 C293.131268,115.607902 263.442538,85.9191729 226.816236,85.9191729 C190.189934,85.9191729 160.501204,115.607902 160.501204,152.234205 C160.501204,188.860507 190.189934,218.549236 226.816236,218.549236 C243.241959,218.549236 258.341382,212.529872 269.972018,202.531606 L272.726642,205.388253 L272.726642,213.44808 L323.738205,264.35762 L338.939651,249.156174 L288.030111,198.144611 L288.030111,198.144611 Z M226.816236,198.144611 C201.412478,198.144611 180.905829,177.637963 180.905829,152.234205 C180.905829,126.830446 201.412478,106.323798 226.816236,106.323798 C252.219994,106.323798 272.726642,126.830446 272.726642,152.234205 C272.726642,177.637963 252.219994,198.144611 226.816236,198.144611 L226.816236,198.144611 Z" id="Shape" fill="#FFFFFF"></path>
        </g>
    </g>
</svg>