<?xml version="1.0" encoding="UTF-8"?>
<svg width="500px" height="500px" viewBox="0 0 500 500" version="1.1" xmlns="http://www.w3.org/2000/svg" xmlns:xlink="http://www.w3.org/1999/xlink">
    <!-- Generator: Sketch 3.8.3 (29802) - http://www.bohemiancoding.com/sketch -->
    <title>pin-trip-5</title>
    <desc>Created with Sketch.</desc>
    <defs></defs>
    <g id="Icons" stroke="none" stroke-width="1" fill="none" fill-rule="evenodd">
        <g id="pin-trip-5">
            <g id="Group" transform="translate(68.000000, 0.000000)">
                <path d="M182,0 C81.539,0 0.17,81.36 0.17,181.83 C0.17,329.57 182,500 182,500 C182,500 363.83,329.57 363.83,181.83 C363.702,81.36 282.333,0 182,0" id="Fill-28" fill="#4E4E4B"></path>
                <path d="M319.555,181.54 C319.555,257.51 257.97,319.1 182,319.1 C106.03,319.1 44.445,257.51 44.445,181.54 C44.445,105.57 106.03,43.99 182,43.99 C257.97,43.99 319.555,105.57 319.555,181.54" id="Fill-29" fill="#FFFFFF"></path>
                <path d="M187.721,156.96 C205.952,156.96 224.701,163.18 234.621,179.45 C244.155,195.09 243.474,218.03 234.882,233.95 C217.5,266.15 164.285,268.82 135.279,252.45 L135.279,228.641 C159.159,242.2 212.861,249.38 214.175,209.67 C215.331,174.75 174.576,176.76 150.375,182.35 L138.634,175.41 L144.896,95.58 L229.876,95.58 L229.876,118.95 L168.042,118.95 L164.352,159.42 C172.15,158.09 179.791,156.96 187.721,156.96" id="Fill-30" fill="#4E4E4B"></path>
            </g>
        </g>
    </g>
</svg>