<?xml version="1.0" encoding="UTF-8"?>
<svg width="500px" height="500px" viewBox="0 0 500 500" version="1.1" xmlns="http://www.w3.org/2000/svg" xmlns:xlink="http://www.w3.org/1999/xlink">
    <!-- Generator: Sketch 3.8.3 (29802) - http://www.bohemiancoding.com/sketch -->
    <title>pin-trip-3</title>
    <desc>Created with Sketch.</desc>
    <defs></defs>
    <g id="Icons" stroke="none" stroke-width="1" fill="none" fill-rule="evenodd">
        <g id="pin-trip-3">
            <g id="Group" transform="translate(68.000000, 0.000000)">
                <path d="M181.83,0 C81.37,0 0,81.36 0,181.83 C0,329.57 181.83,500 181.83,500 C181.83,500 363.66,329.57 363.66,181.83 C363.53,81.36 282.16,0 181.83,0" id="Fill-22" fill="#4E4E4B"></path>
                <path d="M319.12,181.56 C319.12,257.53 257.53,319.12 181.56,319.12 C105.59,319.12 44,257.53 44,181.56 C44,105.59 105.59,44 181.56,44 C257.53,44 319.12,105.59 319.12,181.56" id="Fill-23" fill="#FFFFFF"></path>
                <path d="M232.11,132.665038 C232.11,153.705038 217.47,168.135038 197.56,172.465038 L197.56,173.365038 C212.82,175.275038 228.58,181.615038 234.46,196.995038 C240.24,212.145038 236.45,231.685038 225.33,243.425038 C202.53,267.485038 154.69,265.065038 127,251.965038 L127,228.605038 C149.01,239.485038 206.04,251.935038 209.07,213.675038 C211.54,182.495038 173.19,185.105038 151.94,185.105038 L151.94,163.745038 L166.36,163.745038 C185.57,163.745038 209.24,156.435038 205.15,132.425038 C199.99,102.135038 156.48,117.155038 140.31,127.625038 L127.45,109.295038 C156.28,88.0650384 232.11,80.1050384 232.11,132.665038" id="Fill-24" fill="#4E4E4B"></path>
            </g>
        </g>
    </g>
</svg>