<?xml version="1.0" encoding="UTF-8"?>
<svg width="500px" height="500px" viewBox="0 0 500 500" version="1.1" xmlns="http://www.w3.org/2000/svg" xmlns:xlink="http://www.w3.org/1999/xlink">
    <!-- Generator: Sketch 3.8.3 (29802) - http://www.bohemiancoding.com/sketch -->
    <title>pin-trip-2</title>
    <desc>Created with Sketch.</desc>
    <defs></defs>
    <g id="Icons" stroke="none" stroke-width="1" fill="none" fill-rule="evenodd">
        <g id="pin-trip-2">
            <g id="Group" transform="translate(68.000000, 0.000000)">
                <path d="M182,0 C81.539,0 0.17,81.36 0.17,181.83 C0.17,329.57 182,500 182,500 C182,500 363.83,329.57 363.83,181.83 C363.7,81.36 282.333,0 182,0" id="Fill-19" fill="#4E4E4B"></path>
                <path d="M319.555,181.54 C319.555,257.51 257.97,319.1 182,319.1 C106.03,319.1 44.444,257.51 44.444,181.54 C44.444,105.57 106.03,43.98 182,43.98 C257.97,43.98 319.555,105.57 319.555,181.54" id="Fill-20" fill="#FFFFFF"></path>
                <path d="M241.416,259.05 L130.605,259.05 L130.605,239.15 C147.541,222.12 164.758,205.34 181.295,187.92 C195.231,173.24 215.272,153.371 207.991,130.89 C198.755,102.39 160.925,119.72 145.701,131.69 L131.5,114.36 C152.379,96.74 181.829,86.77 208.508,97.121 C234.148,107.06 241.366,135.52 231.134,159.62 C222.671,179.56 205.496,194.5 190.239,209.2 C181.407,217.7 172.623,226.26 163.815,234.79 L163.815,235.91 L241.416,235.91 L241.416,259.05" id="Fill-21" fill="#4E4E4B"></path>
            </g>
        </g>
    </g>
</svg>