<?xml version="1.0" encoding="UTF-8"?>
<svg width="500px" height="500px" viewBox="0 0 500 500" version="1.1" xmlns="http://www.w3.org/2000/svg" xmlns:xlink="http://www.w3.org/1999/xlink">
    <!-- Generator: Sketch 3.8.3 (29802) - http://www.bohemiancoding.com/sketch -->
    <title>pin-trip-9</title>
    <desc>Created with Sketch.</desc>
    <defs></defs>
    <g id="Icons" stroke="none" stroke-width="1" fill="none" fill-rule="evenodd">
        <g id="pin-trip-9">
            <g id="Group" transform="translate(68.000000, 0.000000)">
                <path d="M182,0 C81.539,0 0.17,81.36 0.17,181.83 C0.17,329.57 182,500 182,500 C182,500 363.83,329.57 363.83,181.83 C363.702,81.36 282.333,0 182,0" id="Fill-40" fill="#4E4E4B"></path>
                <path d="M319.555,181.54 C319.555,257.51 257.97,319.1 182,319.1 C106.03,319.1 44.445,257.51 44.445,181.54 C44.445,105.57 106.03,43.99 182,43.99 C257.97,43.99 319.555,105.57 319.555,181.54" id="Fill-41" fill="#FFFFFF"></path>
                <path d="M187.82,115.26 C152.547,115.26 148.498,176.35 183.956,179 C200.103,180.21 217.8,170.18 218.346,152.6 C218.895,134.91 207.102,115.26 187.82,115.26 L187.82,115.26 Z M244.848,165.35 C244.848,191.91 240.934,222.52 221.115,242.17 C202.902,260.22 169.832,266.22 145.442,259.5 L145.442,237.47 C163.078,242.43 185.77,241.92 200.72,230.06 C215.199,218.58 218.764,198.41 219.465,181 L218.123,181 C203.907,202.68 169.747,206.75 149.96,190.07 C130.512,173.68 129.177,139.85 140.869,118.65 C153.948,94.93 185.34,87.51 209.602,97.62 C236.294,108.73 244.848,138.82 244.848,165.35 L244.848,165.35 Z" id="Fill-42" fill="#4E4E4B"></path>
            </g>
        </g>
    </g>
</svg>