<?xml version="1.0" encoding="UTF-8"?>
<svg width="500px" height="500px" viewBox="0 0 500 500" version="1.1" xmlns="http://www.w3.org/2000/svg" xmlns:xlink="http://www.w3.org/1999/xlink">
    <!-- Generator: Sketch 3.8.3 (29802) - http://www.bohemiancoding.com/sketch -->
    <title>pin-retail</title>
    <desc>Created with Sketch.</desc>
    <defs></defs>
    <g id="Icons" stroke="none" stroke-width="1" fill="none" fill-rule="evenodd">
        <g id="pin-retail">
            <g id="category-pin" transform="translate(68.000000, 0.000000)">
                <path d="M181.83,0 C81.369,0 0,81.36 0,181.83 C0,329.57 181.83,500 181.83,500 C181.83,500 363.66,329.57 363.66,181.83 C363.532,81.36 282.163,0 181.83,0" id="pin" fill="#3DCAB7"></path>
                <path d="M332.144605,180.123992 C332.144605,262.966878 264.983087,330.135 182.138,330.135 C99.292913,330.135 32.1313955,262.966878 32.1313955,180.123992 C32.1313955,97.281107 99.292913,30.135 182.138,30.135 C264.983087,30.135 332.144605,97.281107 332.144605,180.123992" id="hole" fill="#FFFFFF"></path>
            </g>
            <g id="Group" transform="translate(169.000000, 74.000000)" fill="#50E3C2">
                <path d="M145.038631,45.3285714 L127.027594,45.3285714 C127.027594,20.482 106.855232,0.316666667 82,0.316666667 C57.1447682,0.316666667 36.9724062,20.482 36.9724062,45.3285714 L18.9613687,45.3285714 C9.05529801,45.3285714 1.04038631,53.4307143 1.04038631,63.3333333 L0.950331126,171.361905 C0.950331126,181.264524 9.05529801,189.366667 18.9613687,189.366667 L145.038631,189.366667 C154.944702,189.366667 163.049669,181.264524 163.049669,171.361905 L163.049669,63.3333333 C163.049669,53.4307143 154.944702,45.3285714 145.038631,45.3285714 L145.038631,45.3285714 Z M82,18.3214286 C96.9491611,18.3214286 109.016556,30.384619 109.016556,45.3285714 L54.9834437,45.3285714 C54.9834437,30.384619 67.0508389,18.3214286 82,18.3214286 L82,18.3214286 Z M82,108.345238 C57.1447682,108.345238 36.9724062,88.1799048 36.9724062,63.3333333 L54.9834437,63.3333333 C54.9834437,78.2772857 67.0508389,90.3404762 82,90.3404762 C96.9491611,90.3404762 109.016556,78.2772857 109.016556,63.3333333 L127.027594,63.3333333 C127.027594,88.1799048 106.855232,108.345238 82,108.345238 L82,108.345238 Z" id="Shape"></path>
            </g>
        </g>
    </g>
</svg>