<?xml version="1.0" encoding="UTF-8"?>
<svg width="500px" height="500px" viewBox="0 0 500 500" version="1.1" xmlns="http://www.w3.org/2000/svg" xmlns:xlink="http://www.w3.org/1999/xlink">
    <!-- Generator: Sketch 3.8.3 (29802) - http://www.bohemiancoding.com/sketch -->
    <title>pin-trip-6</title>
    <desc>Created with Sketch.</desc>
    <defs></defs>
    <g id="Icons" stroke="none" stroke-width="1" fill="none" fill-rule="evenodd">
        <g id="pin-trip-6">
            <g id="Group" transform="translate(68.000000, 0.000000)">
                <path d="M182,0 C81.539,0 0.17,81.36 0.17,181.83 C0.17,329.57 182,500 182,500 C182,500 363.83,329.57 363.83,181.83 C363.7,81.36 282.333,0 182,0" id="Fill-31" fill="#4E4E4B"></path>
                <path d="M319.555,181.54 C319.555,257.51 257.97,319.1 182,319.1 C106.03,319.1 44.444,257.51 44.444,181.54 C44.444,105.57 106.03,43.99 182,43.99 C257.97,43.99 319.555,105.57 319.555,181.54" id="Fill-32" fill="#FFFFFF"></path>
                <path d="M182.734,239.6 C217.465,239.6 222.2,179.9 187.777,176 C168.849,173.85 150.876,186.85 152.534,206.85 C153.888,223.2 164.938,239.6 182.734,239.6 L182.734,239.6 Z M125.707,189.39 C125.707,162.72 129.811,132.13 149.76,112.48 C168.588,93.94 199.707,89.77 224.665,95.35 L224.665,117.27 C207.141,112.2 183.559,113.5 169.016,125.6 C155.084,137.19 151.816,156.96 151.201,174.07 L152.543,174.07 C165.621,151.54 201.504,148.96 220.583,165.09 C239.836,181.35 241.401,214.81 229.95,235.98 C216.995,259.93 185.122,267.17 160.85,257.15 C134.052,246.09 125.707,215.92 125.707,189.39 L125.707,189.39 Z" id="Fill-33" fill="#4E4E4B"></path>
            </g>
        </g>
    </g>
</svg>