<?xml version="1.0" encoding="UTF-8"?>
<svg width="500px" height="500px" viewBox="0 0 500 500" version="1.1" xmlns="http://www.w3.org/2000/svg" xmlns:xlink="http://www.w3.org/1999/xlink">
    <!-- Generator: Sketch 3.8.3 (29802) - http://www.bohemiancoding.com/sketch -->
    <title>pin-trip-12</title>
    <desc>Created with Sketch.</desc>
    <defs></defs>
    <g id="Icons" stroke="none" stroke-width="1" fill="none" fill-rule="evenodd">
        <g id="pin-trip-12">
            <g id="Group" transform="translate(68.000000, 0.000000)">
                <path d="M182,0 C81.54,0 0.17,81.36 0.17,181.83 C0.17,329.57 182,500 182,500 C182,500 363.83,329.57 363.83,181.83 C363.7,81.36 282.33,0 182,0" id="Fill-51" fill="#4E4E4B"></path>
                <path d="M319.56,181.54 C319.56,257.51 257.97,319.1 182,319.1 C106.03,319.1 44.44,257.51 44.44,181.54 C44.44,105.57 106.03,43.99 182,43.99 C257.97,43.99 319.56,105.57 319.56,181.54" id="Fill-52" fill="#FFFFFF"></path>
                <path d="M151.58,259.05 L125.3,259.05 C125.3,214.18 122.57,168.3 126.2,123.53 C116.79,133.34 105.28,141.5 94.78,150.03 L81.58,133.37 L129.66,95.58 L151.58,95.58 L151.58,259.05" id="Fill-53" fill="#4E4E4B"></path>
                <path d="M281.6,259.05 L170.79,259.05 L170.79,239.15 C187.72,222.12 204.94,205.34 221.48,187.92 C235.41,173.24 255.45,153.37 248.17,130.89 C238.94,102.39 201.11,119.72 185.88,131.69 L171.68,114.36 C192.56,96.74 222.01,86.77 248.69,97.12 C274.33,107.06 281.55,135.52 271.32,159.62 C262.85,179.56 245.68,194.5 230.42,209.2 C221.59,217.7 212.81,226.26 204,234.79 L204,235.91 L281.6,235.91 L281.6,259.05" id="Fill-54" fill="#4E4E4B"></path>
            </g>
        </g>
    </g>
</svg>