<?xml version="1.0" encoding="UTF-8"?>
<svg width="500px" height="500px" viewBox="0 0 500 500" version="1.1" xmlns="http://www.w3.org/2000/svg" xmlns:xlink="http://www.w3.org/1999/xlink">
    <!-- Generator: Sketch 3.8.3 (29802) - http://www.bohemiancoding.com/sketch -->
    <title>pin-collections</title>
    <desc>Created with Sketch.</desc>
    <defs></defs>
    <g id="Icons" stroke="none" stroke-width="1" fill="none" fill-rule="evenodd">
        <g id="pin-collections">
            <g id="Left-Pin" transform="translate(0.000000, 67.000000)">
                <path d="M97.5,0 C43.8282534,0 0.360616438,43.447575 0.360616438,97.09455 C0.360616438,175.99305 97.5,267 97.5,267 C97.5,267 194.639384,175.99305 194.639384,97.09455 C194.572603,43.447575 151.104966,0 97.5,0" id="Fill-5" fill="#3769A4"></path>
                <path d="M144.462484,213.778468 C169.27107,180.89604 194.639384,137.414211 194.639384,97.09455 C194.580629,49.8950741 160.926292,10.590714 116.330332,1.82497309 C103.877696,23.8051187 96.77,49.2165606 96.77,76.2965475 C96.77,122.288673 117.952695,170.922445 144.462479,213.778459 Z" id="Combined-Shape" fill="#FFFFFF"></path>
                <path d="M143.004452,91.4475 C143.004452,116.565525 122.629623,136.924275 97.5,136.924275 C72.3703767,136.924275 51.9955479,116.565525 51.9955479,91.4475 C51.9955479,66.3228 72.3703767,45.96405 97.5,45.96405 C122.629623,45.96405 143.004452,66.3228 143.004452,91.4475" id="Fill-6" fill="#FFFFFF"></path>
            </g>
            <g id="Right-Pin" transform="translate(305.000000, 67.000000)">
                <path d="M97.5,0 C43.8282534,0 0.360616438,43.447575 0.360616438,97.09455 C0.360616438,175.99305 97.5,267 97.5,267 C97.5,267 194.639384,175.99305 194.639384,97.09455 C194.572603,43.447575 151.104966,0 97.5,0" id="Fill-5" fill="#3769A4"></path>
                <path d="M75.0407486,2.60519981 C32.2073706,12.7286798 0.360616438,51.1752974 0.360616438,97.09455 C0.360616438,136.224601 24.2540567,178.332976 48.3408278,210.840605 C74.0014579,168.707917 94.23,121.240903 94.23,76.2965475 C94.1967038,49.5363906 87.233275,24.4055985 75.0407432,2.60520103 Z" id="Combined-Shape" fill="#FFFFFF"></path>
                <path d="M143.004452,91.4475 C143.004452,116.565525 122.629623,136.924275 97.5,136.924275 C72.3703767,136.924275 51.9955479,116.565525 51.9955479,91.4475 C51.9955479,66.3228 72.3703767,45.96405 97.5,45.96405 C122.629623,45.96405 143.004452,66.3228 143.004452,91.4475" id="Fill-6" fill="#FFFFFF"></path>
            </g>
            <g id="Center-Pin" transform="translate(102.000000, 0.000000)">
                <path d="M146,0 C65.63,0 0.54,65.09 0.54,145.46 C0.54,263.66 146,400 146,400 C146,400 291.46,263.66 291.46,145.46 C291.36,65.09 226.27,0 146,0" id="Pin" fill="#3769A4"></path>
                <path d="M214.14,137 C214.14,174.63 183.63,205.13 146,205.13 C108.37,205.13 77.86,174.63 77.86,137 C77.86,99.36 108.37,68.86 146,68.86 C183.63,68.86 214.14,99.36 214.14,137" id="Hole" fill="#FFFFFF"></path>
            </g>
        </g>
    </g>
</svg>