<?xml version="1.0" encoding="UTF-8"?>
<svg width="500px" height="500px" viewBox="0 0 500 500" version="1.1" xmlns="http://www.w3.org/2000/svg" xmlns:xlink="http://www.w3.org/1999/xlink">
    <!-- Generator: Sketch 3.8.3 (29802) - http://www.bohemiancoding.com/sketch -->
    <title>pin-trip-11</title>
    <desc>Created with Sketch.</desc>
    <defs></defs>
    <g id="Icons" stroke="none" stroke-width="1" fill="none" fill-rule="evenodd">
        <g id="pin-trip-11">
            <g id="Group" transform="translate(68.000000, 0.000000)">
                <path d="M182,0 C81.54,0 0.17,81.36 0.17,181.83 C0.17,329.57 182,500 182,500 C182,500 363.83,329.57 363.83,181.83 C363.7,81.36 282.33,0 182,0" id="Fill-47" fill="#4E4E4B"></path>
                <path d="M319.56,181.54 C319.56,257.51 257.97,319.1 182,319.1 C106.03,319.1 44.44,257.51 44.44,181.54 C44.44,105.57 106.03,43.99 182,43.99 C257.97,43.99 319.56,105.57 319.56,181.54" id="Fill-48" fill="#FFFFFF"></path>
                <path d="M155.85,259.05 L129.58,259.05 C129.58,214.18 126.84,168.3 130.47,123.53 C121.07,133.34 109.56,141.5 99.05,150.03 L85.86,133.37 L133.94,95.58 L155.85,95.58 L155.85,259.05" id="Fill-49" fill="#4E4E4B"></path>
                <path d="M252.22,259.05 L225.94,259.05 C225.94,214.18 223.21,168.3 226.83,123.53 C217.43,133.34 205.92,141.5 195.41,150.03 L182.22,133.37 L230.3,95.58 L252.22,95.58 L252.22,259.05" id="Fill-50" fill="#4E4E4B"></path>
            </g>
        </g>
    </g>
</svg>