<?xml version="1.0" encoding="UTF-8"?>
<svg width="500px" height="500px" viewBox="0 0 500 500" version="1.1" xmlns="http://www.w3.org/2000/svg" xmlns:xlink="http://www.w3.org/1999/xlink">
    <!-- Generator: Sketch 3.8.3 (29802) - http://www.bohemiancoding.com/sketch -->
    <title>pin-info</title>
    <desc>Created with Sketch.</desc>
    <defs></defs>
    <g id="Icons" stroke="none" stroke-width="1" fill="none" fill-rule="evenodd">
        <g id="pin-info">
            <circle id="Oval-1" fill="#9DC73E" cx="250" cy="175.433594" r="175.433594"></circle>
            <g id="Group" transform="translate(203.948682, 57.015918)" fill="#FFFFFF">
                <g id="i">
                    <path d="M74.8522852,188.132718 C43.5787168,188.132718 70.0298856,134.064284 73.8297098,117.603554 C78.3592702,97.634028 77.6295339,77.2288459 54.1008526,71.4004759 C39.4872343,67.7621601 -0.1168995,71.5535442 0.321178425,92.5356761 C51.4700235,73.8848922 23.1189426,134.49994 17.4192064,158.979094 C11.8670705,183.316954 16.6894701,203.86343 44.7477118,206.347846 C59.5077497,207.654814 91.8050744,203.580842 91.3658156,184.341334 C86.1053381,186.531388 80.5520214,187.697062 74.8522852,188.132718" id="Fill-14"></path>
                    <path d="M53.6686787,0.58872424 C46.3606888,0.58872424 40.0776358,2.92007223 34.9623971,7.58276822 C29.7007387,12.2454642 27.0710904,17.9207659 27.0710904,24.6322222 C27.0710904,31.3319041 29.7007387,36.8659119 34.9623971,41.5286079 C40.2228746,46.1913039 46.3606888,48.5226519 53.6686787,48.5226519 C60.9754879,48.5226519 67.2585409,46.1913039 72.3737796,41.5286079 C77.4890184,36.8659119 80.1198475,31.1906103 80.1198475,24.6322222 C80.1198475,17.9207659 77.4890184,12.386758 72.3737796,7.58276822 C67.1133021,2.92007223 60.9754879,0.58872424 53.6686787,0.58872424" id="Fill-15"></path>
                </g>
            </g>
        </g>
    </g>
</svg>