<?xml version="1.0" encoding="UTF-8"?>
<svg width="500px" height="500px" viewBox="0 0 500 500" version="1.1" xmlns="http://www.w3.org/2000/svg" xmlns:xlink="http://www.w3.org/1999/xlink">
    <!-- Generator: Sketch 3.8.3 (29802) - http://www.bohemiancoding.com/sketch -->
    <title>police</title>
    <desc>Created with Sketch.</desc>
    <defs></defs>
    <g id="Icons" stroke="none" stroke-width="1" fill="none" fill-rule="evenodd">
        <g id="police" fill="#9EC843">
            <path d="M365.529854,251.05 C365.799854,251.49 366.089854,251.93 366.309854,252.33 C378.949854,273.64 371.939854,301.15 350.619854,313.77 C340.229854,362.8 305.399854,403.09 258.429854,420.43 C252.819854,422.5 246.689854,422.5 241.149854,420.43 C194.099854,403.1 159.279854,362.81 148.879854,313.77 C148.469854,313.52 148.039854,313.27 147.659854,313.02 C126.729854,299.65 120.659854,271.92 133.989854,251.05 L116.989854,240.16 C99.089854,268.13 105.159854,305.1 131.009854,325.91 C144.809854,378.3 183.309854,420.65 234.139854,439.42 C244.209854,443.12 255.359854,443.12 265.429854,439.42 C316.259854,420.65 354.689854,378.3 368.499854,325.91 C394.409854,305.1 400.479854,268.13 382.579854,240.16 L365.529854,251.05 L365.529854,251.05 Z M248.879854,89.99 C249.219854,89.52 249.479854,89.05 249.759854,88.55 C255.169854,97.79 267.059854,100.88 276.259854,95.47 C276.699854,95.18 277.199854,94.88 277.699854,94.53 C280.279854,116.78 269.249854,138.38 249.759854,149.36 C230.259854,138.38 219.299854,116.78 221.869854,94.53 C230.569854,100.76 242.639854,98.69 248.879854,89.99 L248.879854,89.99 Z M394.719854,141.01 C394.129854,140.63 393.469854,140.28 392.809854,140 C357.009854,125.54 324.299854,104.36 296.289854,77.66 C270.289854,52.78 229.249854,52.78 203.209854,77.66 C175.259854,104.36 142.489854,125.54 106.689854,140 C101.219854,142.23 98.579854,148.46 100.769854,153.9 C101.119854,154.56 101.439854,155.19 101.739854,155.78 L130.039854,198.37 C206.469854,165.83 293.029854,165.83 369.599854,198.37 L397.759854,155.78 C401.009854,150.9 399.599854,144.26 394.719854,141.01 L394.719854,141.01 Z M373.849854,215.28 L371.909854,232.89 C294.009854,266.83 205.499854,266.83 127.599854,232.89 L125.659854,215.28 C204.689854,180.191 294.879854,180.191 373.849854,215.28 L373.849854,215.28 Z" id="Fill-67"></path>
        </g>
    </g>
</svg>