<?xml version="1.0" encoding="UTF-8"?>
<svg width="500px" height="500px" viewBox="0 0 500 500" version="1.1" xmlns="http://www.w3.org/2000/svg" xmlns:xlink="http://www.w3.org/1999/xlink">
    <!-- Generator: Sketch 3.8.3 (29802) - http://www.bohemiancoding.com/sketch -->
    <title>population</title>
    <desc>Created with Sketch.</desc>
    <defs></defs>
    <g id="Icons" stroke="none" stroke-width="1" fill="none" fill-rule="evenodd">
        <g id="population" fill="#F15922">
            <path d="M434.94,175.87 C434.94,186.45 443.52,195.03 454.09,195.03 C464.67,195.03 473.25,186.45 473.25,175.87 C473.25,165.3 464.67,156.72 454.09,156.72 C443.52,156.72 434.94,165.3 434.94,175.87 L434.94,175.87 Z M473.76,200.25 L434.43,200.25 C427.63,200.25 422.14,205.75 422.14,212.55 L422.14,256.97 C422.14,263.75 427.63,269.26 434.42,269.26 L437.41,269.26 L437.41,334.03 C437.41,339.261 441.65,343.51 446.89,343.51 L461.29,343.51 C466.54,343.51 470.78,339.261 470.78,334.03 L470.78,269.26 L473.76,269.26 C480.55,269.26 486.06,263.75 486.06,256.97 L486.06,212.55 C486.06,205.75 480.55,200.25 473.76,200.25 L473.76,200.25 Z M337.79,146.18 C337.79,160.99 349.79,172.99 364.6,172.99 C379.41,172.99 391.42,160.99 391.42,146.18 C391.42,131.37 379.41,119.36 364.6,119.36 C349.79,119.36 337.79,131.37 337.79,146.18 L337.79,146.18 Z M392.13,180.3 L337.07,180.3 C327.56,180.3 319.86,188 319.86,197.51 L319.86,259.7 C319.86,269.21 327.56,276.91 337.06,276.91 L341.24,276.91 L341.24,367.59 C341.24,374.921 347.18,380.85 354.51,380.85 L374.68,380.85 C382.02,380.85 387.96,374.91 387.96,367.59 L387.96,276.92 L392.13,276.92 C401.64,276.92 409.35,269.21 409.35,259.7 L409.35,197.51 C409.35,188 401.64,180.3 392.13,180.3 L392.13,180.3 Z M25.81,175.87 C25.81,186.45 34.39,195.03 44.97,195.03 C55.54,195.03 64.12,186.45 64.12,175.87 C64.12,165.3 55.54,156.72 44.97,156.72 C34.39,156.72 25.81,165.3 25.81,175.87 L25.81,175.87 Z M64.63,200.25 L25.3,200.25 C18.51,200.25 13,205.75 13,212.55 L13,256.97 C13,263.75 18.51,269.26 25.29,269.26 L28.28,269.26 L28.28,334.03 C28.28,339.261 32.52,343.51 37.75,343.51 L52.16,343.51 C57.4,343.51 61.64,339.261 61.64,334.03 L61.64,269.26 L64.62,269.26 C71.41,269.26 76.92,263.75 76.92,256.97 L76.92,212.55 C76.93,205.75 71.42,200.25 64.63,200.25 L64.63,200.25 Z M107.64,146.18 C107.64,160.99 119.65,172.99 134.46,172.99 C149.27,172.99 161.27,160.99 161.27,146.18 C161.27,131.37 149.27,119.36 134.46,119.36 C119.65,119.36 107.64,131.37 107.64,146.18 L107.64,146.18 Z M162,180.3 L106.92,180.3 C97.42,180.3 89.72,188 89.72,197.51 L89.72,259.7 C89.72,269.21 97.42,276.91 106.92,276.91 L111.1,276.91 L111.1,367.59 C111.1,374.921 117.04,380.85 124.36,380.85 L144.54,380.85 C151.88,380.85 157.81,374.91 157.81,367.59 L157.81,276.92 L161.99,276.92 C171.5,276.92 179.2,269.21 179.2,259.7 L179.2,197.51 C179.21,188 171.5,180.3 162,180.3 L162,180.3 Z M215.05,116.48 C215.05,135.52 230.49,150.95 249.53,150.95 C268.57,150.95 284,135.52 284,116.48 C284,97.44 268.57,82 249.53,82 C230.49,82 215.05,97.44 215.05,116.48 L215.05,116.48 Z M307.07,182.49 L307.07,262.44 C307.07,274.66 297.16,284.58 284.94,284.58 L279.56,284.58 L279.56,401.15 C279.56,410.58 271.93,418.21 262.5,418.21 L236.56,418.21 C227.13,418.21 219.5,410.58 219.5,401.15 L219.5,284.58 L214.12,284.58 C201.9,284.58 192,274.66 192,262.44 L192,182.48 C192,170.25 201.9,160.35 214.12,160.35 L284.94,160.35 C297.16,160.35 307.06,170.26 307.07,182.49 L307.07,182.49 Z" id="Fill-75"></path>
        </g>
    </g>
</svg>