<?xml version="1.0" encoding="UTF-8"?>
<svg width="500px" height="500px" viewBox="0 0 500 500" version="1.1" xmlns="http://www.w3.org/2000/svg" xmlns:xlink="http://www.w3.org/1999/xlink">
    <!-- Generator: Sketch 3.8.3 (29802) - http://www.bohemiancoding.com/sketch -->
    <title>power-plug</title>
    <desc>Created with Sketch.</desc>
    <defs></defs>
    <g id="Icons" stroke="none" stroke-width="1" fill="none" fill-rule="evenodd">
        <g id="power-plug" fill="#9EC843">
            <path d="M454.53,348.45 L425.14,348.45 L425.14,305.54 L454.53,305.54 C466.37,305.54 476,315.16 476,326.99 C476,338.82 466.37,348.45 454.53,348.45 L454.53,348.45 Z M270.81,255.86 L239.05,255.86 L262.26,188.17 L298.91,188.17 L269.59,238.88 L303.18,238.88 L253.09,315.63 L270.81,255.86 L270.81,255.86 Z M476,165.17 C476,177 466.37,186.63 454.53,186.63 L425.14,186.63 L425.14,143.71 L454.53,143.71 C466.37,143.71 476,153.34 476,165.17 L476,165.17 Z M454.53,300.18 L357.75,300.18 L357.75,192 L454.54,192 C469.33,192 481.36,179.97 481.36,165.17 C481.36,150.38 469.33,138.35 454.54,138.35 L357.75,138.35 L357.75,99 L318.2,99 L318.2,99.22 C210.65,102.73 184.22,177.67 103.83,177.67 L76.12,177.67 L76.12,216.12 L18,216.12 L18,285.86 L76.12,285.86 L76.12,323.41 L103.83,323.41 C184.22,323.41 210.65,398.35 318.19,401.86 L318.19,402.09 L357.75,402.09 L357.75,353.81 L454.53,353.81 C469.32,353.81 481.36,341.78 481.36,326.99 C481.36,312.21 469.33,300.18 454.53,300.18 L454.53,300.18 Z" id="Fill-57"></path>
        </g>
    </g>
</svg>