<?xml version="1.0" encoding="UTF-8"?>
<svg width="500px" height="500px" viewBox="0 0 500 500" version="1.1" xmlns="http://www.w3.org/2000/svg" xmlns:xlink="http://www.w3.org/1999/xlink">
    <!-- Generator: Sketch 3.8.3 (29802) - http://www.bohemiancoding.com/sketch -->
    <title>search-white</title>
    <desc>Created with Sketch.</desc>
    <defs></defs>
    <g id="Icons" stroke="none" stroke-width="1" fill="none" fill-rule="evenodd">
        <g id="search-white" fill="#FFFFFF">
            <path d="M357.347055,314.465409 L334.762722,314.465409 L326.758148,306.746712 C354.774157,274.156661 371.640938,231.84677 371.640938,185.820469 C371.640938,83.1903945 288.450543,1.30739863e-12 185.820469,1.30739863e-12 C83.1903945,1.30739863e-12 1.22213351e-12,83.1903945 1.22213351e-12,185.820469 C1.22213351e-12,288.450543 83.1903945,371.640938 185.820469,371.640938 C231.84677,371.640938 274.156661,354.774157 306.746712,326.758148 L314.465409,334.762722 L314.465409,357.347055 L457.404231,500 L500,457.404231 L357.347055,314.465409 L357.347055,314.465409 Z M185.820469,314.465409 C114.636935,314.465409 57.1755289,257.004002 57.1755289,185.820469 C57.1755289,114.636935 114.636935,57.1755289 185.820469,57.1755289 C257.004002,57.1755289 314.465409,114.636935 314.465409,185.820469 C314.465409,257.004002 257.004002,314.465409 185.820469,314.465409 L185.820469,314.465409 Z" id="Shape"></path>
        </g>
    </g>
</svg>