<?xml version="1.0" encoding="UTF-8"?>
<svg width="500px" height="500px" viewBox="0 0 500 500" version="1.1" xmlns="http://www.w3.org/2000/svg" xmlns:xlink="http://www.w3.org/1999/xlink">
    <!-- Generator: Sketch 3.8.3 (29802) - http://www.bohemiancoding.com/sketch -->
    <title>tip</title>
    <desc>Created with Sketch.</desc>
    <defs></defs>
    <g id="Icons" stroke="none" stroke-width="1" fill="none" fill-rule="evenodd">
        <g id="tip" fill="#9EC843">
            <path d="M374.158314,323.53 C374.158314,313.09 382.642314,304.61 393.081314,304.61 C403.521314,304.61 412.001314,313.09 412.001314,323.53 C412.001314,333.97 403.521314,342.45 393.081314,342.45 C382.638314,342.45 374.158314,333.97 374.158314,323.53 L374.158314,323.53 Z M424.621314,285.68 L393.081314,285.68 C372.166314,285.68 355.235314,302.62 355.235314,323.53 C355.235314,344.43 372.170314,361.37 393.081314,361.37 L424.621314,361.37 L448.331314,341.47 L448.231314,266.29 L424.621314,285.68 L424.621314,285.68 Z M77.4963142,159.54 L113.797314,159.54 L131.393314,146.93 L90.2083142,146.93 L90.4933142,146.83 C60.0273142,146.8 50.7213142,147.15 51.0063142,185.06 L51.0063142,441.44 C51.0063142,449.3 58.8293142,455.98 66.6813142,455.98 L410.421314,455.98 C418.271314,455.98 426.161314,449.52 426.161314,441.7 L426.131314,373.24 L424.621314,373.99 L393.081314,373.99 C365.203314,373.99 342.618314,351.41 342.618314,323.53 C342.618314,295.66 365.203314,273.08 393.081314,273.08 L424.621314,273.08 L426.101314,272.32 L426.061314,186.41 C426.061314,178.56 418.271314,172.16 410.421314,172.16 L90.1793142,172.16 C89.0423142,172.13 87.9973142,172.06 87.0553142,171.91 L79.2943142,171.91 C75.8263142,171.91 72.9873142,169.06 72.9873142,165.6 C72.9873142,162.72 74.8803142,160.3 77.4963142,159.54 L77.4963142,159.54 Z M435.941314,362 L435.941314,434.03 C443.091314,433.27 448.521314,426.84 448.521314,419.49 L448.421314,355.75 L435.941314,362 L435.941314,362 Z M395.598314,159.54 L423.041314,159.54 C430.891314,159.54 435.941314,165.66 435.941314,173.48 L435.941314,261.08 L448.301314,254.9 L448.181314,166.89 C448.181314,159.04 437.201314,146.93 429.351314,146.93 L390.589314,146.93 L394.970314,158.72 L395.598314,159.54 L395.598314,159.54 Z M385.539314,165.85 L366.426314,114.16 L222.976314,165.85 L385.539314,165.85 L385.539314,165.85 Z M340.444314,108.96 L292.539314,45 L124.930314,165.85 L192.510314,165.85 L340.444314,108.96 L340.444314,108.96 Z" id="Fill-59"></path>
        </g>
    </g>
</svg>