<?xml version="1.0" encoding="UTF-8"?>
<svg width="500px" height="500px" viewBox="0 0 500 500" version="1.1" xmlns="http://www.w3.org/2000/svg" xmlns:xlink="http://www.w3.org/1999/xlink">
    <!-- Generator: Sketch 3.8.3 (29802) - http://www.bohemiancoding.com/sketch -->
    <title>walking</title>
    <desc>Created with Sketch.</desc>
    <defs></defs>
    <g id="Icons" stroke="none" stroke-width="1" fill="none" fill-rule="evenodd">
        <g id="walking" fill="#F0BD2E">
            <path d="M168.98,386.507 L98.12,481.245 L152.44,481.245 L206.77,416.541 L225.67,356.658 L190.24,314.014 L168.98,386.507 L168.98,386.507 Z M284.87,207.53 L293.3,225.701 C302.39,249.932 320.54,267.3 348.11,277.623 L390.62,291.785 L405.56,246.979 L363.86,233.093 C350.09,227.938 341.74,220.315 336.87,207.525 L323.45,178.646 C309.86,141.313 269.33,120.715 228.62,130.945 L179.03,145.119 C157.69,151.197 141.02,163.618 128.09,183.051 L95,232.667 L134.31,258.87 L167.38,209.254 C174.12,199.128 181.48,193.535 191.99,190.536 L216.83,183.437 L199.68,262.302 C194.96,278.835 202.05,295.369 211.49,307.179 L278.95,380.588 L282.35,384.764 L317.78,481.245 L367.38,481.245 C357.94,458.245 334.32,398.936 324.87,370.592 L269.81,291.031 L268.18,283.469 L284.87,207.53 L284.87,207.53 Z M232.75,66.239 C232.75,40.149 253.9,19 279.99,19 C306.08,19 327.23,40.149 327.23,66.239 C327.23,92.329 306.08,113.479 279.99,113.479 C253.9,113.479 232.75,92.329 232.75,66.239 L232.75,66.239 Z" id="Fill-81"></path>
        </g>
    </g>
</svg>