<?xml version="1.0" encoding="UTF-8"?>
<svg width="500px" height="500px" viewBox="0 0 500 500" version="1.1" xmlns="http://www.w3.org/2000/svg" xmlns:xlink="http://www.w3.org/1999/xlink">
    <!-- Generator: Sketch 3.8.3 (29802) - http://www.bohemiancoding.com/sketch -->
    <title>water-supply</title>
    <desc>Created with Sketch.</desc>
    <defs></defs>
    <g id="Icons" stroke="none" stroke-width="1" fill="none" fill-rule="evenodd">
        <g id="water-supply" fill="#9EC843">
            <path d="M385.408,291.47 L378.716,291.47 L378.716,245.96 C378.716,198.23 339.902,158.97 291.718,158.97 L235.504,158.97 L235.504,154.06 C235.504,141.57 227.92,130.86 217.212,125.95 L217.212,96.06 C220.781,93.83 223.904,90.71 226.135,87.14 L245.765,87.14 C252.458,87.14 257.811,81.78 257.811,75.09 C257.811,68.4 252.458,63.05 245.765,63.05 L226.581,63.05 C222.12,55.91 214.535,51 205.166,51 C195.797,51 188.213,55.91 183.751,63.05 L164.567,63.05 C157.875,63.05 152.521,68.4 152.521,75.09 C152.521,81.78 157.875,87.14 164.567,87.14 L183.751,87.14 C185.982,90.71 189.105,93.83 192.674,96.06 L192.674,125.95 C181.967,130.86 174.382,141.57 174.382,154.06 L174.382,158.97 L103,158.97 L103,230.35 L174.382,230.35 L174.382,235.26 C174.382,252.21 188.213,266.04 205.166,266.04 C222.12,266.04 235.95,252.21 235.95,235.26 L235.95,230.35 L292.164,230.35 C300.641,230.35 307.333,237.04 307.333,245.52 L307.333,291.03 L300.641,291.03 C293.949,291.03 288.595,296.38 288.595,303.07 C288.595,309.76 293.949,315.12 300.641,315.12 L385.408,315.12 C392.1,315.12 397.454,309.76 397.454,303.07 C397.454,296.38 392.1,291.47 385.408,291.47 L385.408,291.47 Z M368.455,386.05 C374.255,395.42 378.716,401.22 378.716,412.82 C378.716,432.45 362.655,448.51 343.025,448.51 C323.394,448.51 307.333,432.45 307.333,412.82 C307.333,401.22 311.795,395.42 317.595,386.05 C325.625,372.67 336.333,357.05 343.025,340.55 C349.717,357.05 360.424,372.67 368.455,386.05 L368.455,386.05 Z" id="Fill-64"></path>
        </g>
    </g>
</svg>