<?xml version="1.0" encoding="UTF-8"?>
<svg width="500px" height="500px" viewBox="0 0 500 500" version="1.1" xmlns="http://www.w3.org/2000/svg" xmlns:xlink="http://www.w3.org/1999/xlink">
    <!-- Generator: Sketch 3.8.3 (29802) - http://www.bohemiancoding.com/sketch -->
    <title>wheelchair</title>
    <desc>Created with Sketch.</desc>
    <defs></defs>
    <g id="Icons" stroke="none" stroke-width="1" fill="none" fill-rule="evenodd">
        <g id="wheelchair" fill="#F0BD2E">
            <path d="M184.336,440.367 C122.396,440.367 72,389.968 72,328.028 C72,286.442 94.762,250.151 128.431,230.729 L128.431,176.65 C66.882,199.388 23,258.578 23,328.028 C23,417.125 95.241,489.367 184.336,489.367 C252.383,489.367 310.552,447.217 334.263,387.609 L296.64,328.658 C296.289,390.311 246.069,440.367 184.336,440.367 L184.336,440.367 Z M445.356,418.128 L414.892,437.577 L396.044,449.767 L395.972,449.647 L395.789,449.767 L300.738,300.849 L148.012,300.849 L148.012,113.107 C132.465,103.325 122.101,86.048 122.101,66.315 C122.101,35.763 146.864,11 177.416,11 C207.967,11 232.731,35.771 232.731,66.315 C232.731,86.041 222.374,103.317 206.819,113.107 L206.819,165.982 L347.977,165.982 L347.977,224.781 L206.811,224.781 L206.811,242.042 L332.964,242.042 L413.6,368.378 L445.962,347.442 L476.816,397.503 L445.244,417.937 L445.356,418.128 L445.356,418.128 Z" id="Fill-79"></path>
        </g>
    </g>
</svg>