<?xml version="1.0" encoding="UTF-8"?>
<svg width="500px" height="500px" viewBox="0 0 500 500" version="1.1" xmlns="http://www.w3.org/2000/svg" xmlns:xlink="http://www.w3.org/1999/xlink">
    <!-- Generator: Sketch 3.8.3 (29802) - http://www.bohemiancoding.com/sketch -->
    <title>wifi</title>
    <desc>Created with Sketch.</desc>
    <defs></defs>
    <g id="Icons" stroke="none" stroke-width="1" fill="none" fill-rule="evenodd">
        <g id="wifi" fill="#F0BD2E">
            <path d="M412.1,270.504 C376.995,226.866 317.724,198.044 250.237,198.044 C182.742,198.044 123.48,226.858 88.374,270.504 C87.513,271.576 86.652,272.64 85.817,273.747 C85.58,274.415 85.387,275.109 85.387,275.865 C85.387,276.743 85.571,277.578 85.887,278.351 C86.467,279.766 87.575,280.882 88.919,281.594 L124.727,320.004 L125.72,321.076 C126.854,322.025 128.269,322.657 129.868,322.657 C130.879,322.657 131.81,322.385 132.662,321.972 C132.935,321.858 133.146,321.647 133.392,321.48 C133.928,321.128 134.411,320.75 134.824,320.267 C134.912,320.162 135.061,320.1 135.149,319.995 C154.112,296.155 197.162,268.712 250.237,268.712 C303.313,268.712 346.353,296.155 365.316,319.995 C365.395,320.1 365.553,320.162 365.641,320.267 C366.054,320.75 366.546,321.128 367.074,321.48 C367.328,321.647 367.531,321.858 367.803,321.972 C368.664,322.385 369.596,322.657 370.597,322.657 C372.197,322.657 373.603,322.025 374.745,321.076 L375.738,320.004 L411.55,281.594 C412.89,280.873 413.99,279.766 414.58,278.351 C414.89,277.578 415.08,276.743 415.08,275.865 C415.08,275.118 414.89,274.415 414.65,273.747 C413.82,272.64 412.96,271.576 412.1,270.504 L412.1,270.504 Z M499.44,190.417 C498.89,189.67 498.31,188.94 497.77,188.193 C441.62,112.315 351.634,63 250,63 C148.365,63 58.383,112.315 2.241,188.193 C1.696,188.94 1.116,189.67 0.571,190.417 C0.211,191.225 0,192.104 0,193.062 C0,194.318 0.448,195.425 1.054,196.418 L2.75,198.264 L40.053,238.967 C40.606,240.337 41.661,241.383 42.935,242.104 C43.893,242.657 44.947,243.053 46.125,243.053 C47.865,243.053 49.42,242.341 50.597,241.251 C51.037,240.636 51.467,240.039 51.907,239.441 C95.677,180.118 167.97,141.181 250,141.181 C332.039,141.181 404.323,180.109 448.08,239.441 C448.52,240.039 448.96,240.636 449.39,241.251 C450.57,242.341 452.13,243.053 453.87,243.053 C455.05,243.053 456.1,242.657 457.06,242.104 C458.33,241.383 459.38,240.337 459.94,238.967 L497.25,198.264 L498.95,196.418 C499.55,195.417 500,194.318 500,193.062 C500.01,192.104 499.79,191.225 499.44,190.417 L499.44,190.417 Z M247.495,309.713 C282.375,309.713 310.65,337.989 310.65,372.868 C310.65,407.747 282.375,436.023 247.495,436.023 C212.616,436.023 184.341,407.747 184.341,372.868 C184.341,337.989 212.616,309.713 247.495,309.713 L247.495,309.713 Z" id="Fill-82"></path>
        </g>
    </g>
</svg>